%TF.GenerationSoftware,KiCad,Pcbnew,6.0.9-8da3e8f707~116~ubuntu20.04.1*%
%TF.CreationDate,2023-03-03T20:38:36+01:00*%
%TF.ProjectId,led_drv_pmod,6c65645f-6472-4765-9f70-6d6f642e6b69,rev?*%
%TF.SameCoordinates,Original*%
%TF.FileFunction,Drillmap*%
%TF.FilePolarity,Positive*%
%FSLAX45Y45*%
G04 Gerber Fmt 4.5, Leading zero omitted, Abs format (unit mm)*
G04 Created by KiCad (PCBNEW 6.0.9-8da3e8f707~116~ubuntu20.04.1) date 2023-03-03 20:38:36*
%MOMM*%
%LPD*%
G01*
G04 APERTURE LIST*
%ADD10C,0.100000*%
%ADD11C,0.200000*%
%ADD12C,0.040000*%
%ADD13C,0.090000*%
G04 APERTURE END LIST*
D10*
X9728200Y-9017000D02*
X7797800Y-9017000D01*
X7747000Y-4241800D02*
X7747000Y-8966200D01*
X7797800Y-4191000D02*
X9728200Y-4191000D01*
X9779000Y-8966200D02*
X9779000Y-4241800D01*
X9728200Y-9017000D02*
G75*
G03*
X9779000Y-8966200I0J50800D01*
G01*
X7747000Y-8966200D02*
G75*
G03*
X7797800Y-9017000I50800J0D01*
G01*
X7797800Y-4191000D02*
G75*
G03*
X7747000Y-4241800I0J-50800D01*
G01*
X9779000Y-4241800D02*
G75*
G03*
X9728200Y-4191000I-50800J0D01*
G01*
D11*
D12*
X8082600Y-5085400D02*
X8122600Y-5125400D01*
X8122600Y-5085400D02*
X8082600Y-5125400D01*
X8335140Y-5340860D02*
X8375140Y-5380860D01*
X8375140Y-5340860D02*
X8335140Y-5380860D01*
X8362000Y-4298000D02*
X8402000Y-4338000D01*
X8402000Y-4298000D02*
X8362000Y-4338000D01*
X8434890Y-5416800D02*
X8474890Y-5456800D01*
X8474890Y-5416800D02*
X8434890Y-5456800D01*
X8756360Y-5060380D02*
X8796360Y-5100380D01*
X8796360Y-5060380D02*
X8756360Y-5100380D01*
X8768400Y-5491800D02*
X8808400Y-5531800D01*
X8808400Y-5491800D02*
X8768400Y-5531800D01*
X8990250Y-5205560D02*
X9030250Y-5245560D01*
X9030250Y-5205560D02*
X8990250Y-5245560D01*
X9124000Y-4298000D02*
X9164000Y-4338000D01*
X9164000Y-4298000D02*
X9124000Y-4338000D01*
X9454200Y-6056890D02*
X9494200Y-6096890D01*
X9494200Y-6056890D02*
X9454200Y-6096890D01*
X9454200Y-8235000D02*
X9494200Y-8275000D01*
X9494200Y-8235000D02*
X9454200Y-8275000D01*
D13*
X8427000Y-6195000D02*
G75*
G03*
X8427000Y-6195000I-45000J0D01*
G01*
X8427000Y-6449000D02*
G75*
G03*
X8427000Y-6449000I-45000J0D01*
G01*
X8427000Y-6703000D02*
G75*
G03*
X8427000Y-6703000I-45000J0D01*
G01*
X8427000Y-6957000D02*
G75*
G03*
X8427000Y-6957000I-45000J0D01*
G01*
X8427000Y-7211000D02*
G75*
G03*
X8427000Y-7211000I-45000J0D01*
G01*
X8427000Y-7465000D02*
G75*
G03*
X8427000Y-7465000I-45000J0D01*
G01*
X8427000Y-7719000D02*
G75*
G03*
X8427000Y-7719000I-45000J0D01*
G01*
X8427000Y-7973000D02*
G75*
G03*
X8427000Y-7973000I-45000J0D01*
G01*
X8808000Y-8354000D02*
G75*
G03*
X8808000Y-8354000I-45000J0D01*
G01*
X8808000Y-8481000D02*
G75*
G03*
X8808000Y-8481000I-45000J0D01*
G01*
X8808000Y-8608000D02*
G75*
G03*
X8808000Y-8608000I-45000J0D01*
G01*
X8808000Y-8735000D02*
G75*
G03*
X8808000Y-8735000I-45000J0D01*
G01*
X9189000Y-6195000D02*
G75*
G03*
X9189000Y-6195000I-45000J0D01*
G01*
X9189000Y-6449000D02*
G75*
G03*
X9189000Y-6449000I-45000J0D01*
G01*
X9189000Y-6703000D02*
G75*
G03*
X9189000Y-6703000I-45000J0D01*
G01*
X9189000Y-6957000D02*
G75*
G03*
X9189000Y-6957000I-45000J0D01*
G01*
X9189000Y-7211000D02*
G75*
G03*
X9189000Y-7211000I-45000J0D01*
G01*
X9189000Y-7465000D02*
G75*
G03*
X9189000Y-7465000I-45000J0D01*
G01*
X9189000Y-7719000D02*
G75*
G03*
X9189000Y-7719000I-45000J0D01*
G01*
X9189000Y-7973000D02*
G75*
G03*
X9189000Y-7973000I-45000J0D01*
G01*
D10*
X8128000Y-4522000D02*
X8128000Y-4622000D01*
X8078000Y-4572000D02*
X8178000Y-4572000D01*
X8128000Y-4776000D02*
X8128000Y-4876000D01*
X8078000Y-4826000D02*
X8178000Y-4826000D01*
X8382000Y-4522000D02*
X8382000Y-4622000D01*
X8332000Y-4572000D02*
X8432000Y-4572000D01*
X8382000Y-4776000D02*
X8382000Y-4876000D01*
X8332000Y-4826000D02*
X8432000Y-4826000D01*
X8636000Y-4522000D02*
X8636000Y-4622000D01*
X8586000Y-4572000D02*
X8686000Y-4572000D01*
X8636000Y-4776000D02*
X8636000Y-4876000D01*
X8586000Y-4826000D02*
X8686000Y-4826000D01*
X8890000Y-4522000D02*
X8890000Y-4622000D01*
X8840000Y-4572000D02*
X8940000Y-4572000D01*
X8890000Y-4776000D02*
X8890000Y-4876000D01*
X8840000Y-4826000D02*
X8940000Y-4826000D01*
X9144000Y-4522000D02*
X9144000Y-4622000D01*
X9094000Y-4572000D02*
X9194000Y-4572000D01*
X9144000Y-4776000D02*
X9144000Y-4876000D01*
X9094000Y-4826000D02*
X9194000Y-4826000D01*
X9398000Y-4522000D02*
X9398000Y-4622000D01*
X9348000Y-4572000D02*
X9448000Y-4572000D01*
X9398000Y-4776000D02*
X9398000Y-4876000D01*
X9348000Y-4826000D02*
X9448000Y-4826000D01*
D11*
X7999619Y-9332476D02*
X7999619Y-9132476D01*
X8047238Y-9132476D01*
X8075809Y-9142000D01*
X8094857Y-9161048D01*
X8104381Y-9180095D01*
X8113905Y-9218190D01*
X8113905Y-9246762D01*
X8104381Y-9284857D01*
X8094857Y-9303905D01*
X8075809Y-9322952D01*
X8047238Y-9332476D01*
X7999619Y-9332476D01*
X8199619Y-9332476D02*
X8199619Y-9199143D01*
X8199619Y-9237238D02*
X8209143Y-9218190D01*
X8218667Y-9208667D01*
X8237714Y-9199143D01*
X8256762Y-9199143D01*
X8323428Y-9332476D02*
X8323428Y-9199143D01*
X8323428Y-9132476D02*
X8313905Y-9142000D01*
X8323428Y-9151524D01*
X8332952Y-9142000D01*
X8323428Y-9132476D01*
X8323428Y-9151524D01*
X8447238Y-9332476D02*
X8428190Y-9322952D01*
X8418667Y-9303905D01*
X8418667Y-9132476D01*
X8552000Y-9332476D02*
X8532952Y-9322952D01*
X8523429Y-9303905D01*
X8523429Y-9132476D01*
X8780571Y-9332476D02*
X8780571Y-9132476D01*
X8847238Y-9275333D01*
X8913905Y-9132476D01*
X8913905Y-9332476D01*
X9094857Y-9332476D02*
X9094857Y-9227714D01*
X9085333Y-9208667D01*
X9066286Y-9199143D01*
X9028190Y-9199143D01*
X9009143Y-9208667D01*
X9094857Y-9322952D02*
X9075810Y-9332476D01*
X9028190Y-9332476D01*
X9009143Y-9322952D01*
X8999619Y-9303905D01*
X8999619Y-9284857D01*
X9009143Y-9265810D01*
X9028190Y-9256286D01*
X9075810Y-9256286D01*
X9094857Y-9246762D01*
X9190095Y-9199143D02*
X9190095Y-9399143D01*
X9190095Y-9208667D02*
X9209143Y-9199143D01*
X9247238Y-9199143D01*
X9266286Y-9208667D01*
X9275810Y-9218190D01*
X9285333Y-9237238D01*
X9285333Y-9294381D01*
X9275810Y-9313429D01*
X9266286Y-9322952D01*
X9247238Y-9332476D01*
X9209143Y-9332476D01*
X9190095Y-9322952D01*
X9371048Y-9313429D02*
X9380571Y-9322952D01*
X9371048Y-9332476D01*
X9361524Y-9322952D01*
X9371048Y-9313429D01*
X9371048Y-9332476D01*
X9371048Y-9208667D02*
X9380571Y-9218190D01*
X9371048Y-9227714D01*
X9361524Y-9218190D01*
X9371048Y-9208667D01*
X9371048Y-9227714D01*
D12*
X7702000Y-9642000D02*
X7742000Y-9682000D01*
X7742000Y-9642000D02*
X7702000Y-9682000D01*
D11*
X8037714Y-9552476D02*
X8056762Y-9552476D01*
X8075809Y-9562000D01*
X8085333Y-9571524D01*
X8094857Y-9590571D01*
X8104381Y-9628667D01*
X8104381Y-9676286D01*
X8094857Y-9714381D01*
X8085333Y-9733429D01*
X8075809Y-9742952D01*
X8056762Y-9752476D01*
X8037714Y-9752476D01*
X8018667Y-9742952D01*
X8009143Y-9733429D01*
X7999619Y-9714381D01*
X7990095Y-9676286D01*
X7990095Y-9628667D01*
X7999619Y-9590571D01*
X8009143Y-9571524D01*
X8018667Y-9562000D01*
X8037714Y-9552476D01*
X8190095Y-9733429D02*
X8199619Y-9742952D01*
X8190095Y-9752476D01*
X8180571Y-9742952D01*
X8190095Y-9733429D01*
X8190095Y-9752476D01*
X8371048Y-9619143D02*
X8371048Y-9752476D01*
X8323428Y-9542952D02*
X8275809Y-9685810D01*
X8399619Y-9685810D01*
X8513905Y-9552476D02*
X8532952Y-9552476D01*
X8552000Y-9562000D01*
X8561524Y-9571524D01*
X8571048Y-9590571D01*
X8580571Y-9628667D01*
X8580571Y-9676286D01*
X8571048Y-9714381D01*
X8561524Y-9733429D01*
X8552000Y-9742952D01*
X8532952Y-9752476D01*
X8513905Y-9752476D01*
X8494857Y-9742952D01*
X8485333Y-9733429D01*
X8475810Y-9714381D01*
X8466286Y-9676286D01*
X8466286Y-9628667D01*
X8475810Y-9590571D01*
X8485333Y-9571524D01*
X8494857Y-9562000D01*
X8513905Y-9552476D01*
X8704381Y-9552476D02*
X8723429Y-9552476D01*
X8742476Y-9562000D01*
X8752000Y-9571524D01*
X8761524Y-9590571D01*
X8771048Y-9628667D01*
X8771048Y-9676286D01*
X8761524Y-9714381D01*
X8752000Y-9733429D01*
X8742476Y-9742952D01*
X8723429Y-9752476D01*
X8704381Y-9752476D01*
X8685333Y-9742952D01*
X8675810Y-9733429D01*
X8666286Y-9714381D01*
X8656762Y-9676286D01*
X8656762Y-9628667D01*
X8666286Y-9590571D01*
X8675810Y-9571524D01*
X8685333Y-9562000D01*
X8704381Y-9552476D01*
X8856762Y-9752476D02*
X8856762Y-9619143D01*
X8856762Y-9638190D02*
X8866286Y-9628667D01*
X8885333Y-9619143D01*
X8913905Y-9619143D01*
X8932952Y-9628667D01*
X8942476Y-9647714D01*
X8942476Y-9752476D01*
X8942476Y-9647714D02*
X8952000Y-9628667D01*
X8971048Y-9619143D01*
X8999619Y-9619143D01*
X9018667Y-9628667D01*
X9028190Y-9647714D01*
X9028190Y-9752476D01*
X9123429Y-9752476D02*
X9123429Y-9619143D01*
X9123429Y-9638190D02*
X9132952Y-9628667D01*
X9152000Y-9619143D01*
X9180571Y-9619143D01*
X9199619Y-9628667D01*
X9209143Y-9647714D01*
X9209143Y-9752476D01*
X9209143Y-9647714D02*
X9218667Y-9628667D01*
X9237714Y-9619143D01*
X9266286Y-9619143D01*
X9285333Y-9628667D01*
X9294857Y-9647714D01*
X9294857Y-9752476D01*
X9685333Y-9542952D02*
X9513905Y-9800095D01*
X9942476Y-9552476D02*
X9961524Y-9552476D01*
X9980571Y-9562000D01*
X9990095Y-9571524D01*
X9999619Y-9590571D01*
X10009143Y-9628667D01*
X10009143Y-9676286D01*
X9999619Y-9714381D01*
X9990095Y-9733429D01*
X9980571Y-9742952D01*
X9961524Y-9752476D01*
X9942476Y-9752476D01*
X9923429Y-9742952D01*
X9913905Y-9733429D01*
X9904381Y-9714381D01*
X9894857Y-9676286D01*
X9894857Y-9628667D01*
X9904381Y-9590571D01*
X9913905Y-9571524D01*
X9923429Y-9562000D01*
X9942476Y-9552476D01*
X10094857Y-9733429D02*
X10104381Y-9742952D01*
X10094857Y-9752476D01*
X10085333Y-9742952D01*
X10094857Y-9733429D01*
X10094857Y-9752476D01*
X10228190Y-9552476D02*
X10247238Y-9552476D01*
X10266286Y-9562000D01*
X10275810Y-9571524D01*
X10285333Y-9590571D01*
X10294857Y-9628667D01*
X10294857Y-9676286D01*
X10285333Y-9714381D01*
X10275810Y-9733429D01*
X10266286Y-9742952D01*
X10247238Y-9752476D01*
X10228190Y-9752476D01*
X10209143Y-9742952D01*
X10199619Y-9733429D01*
X10190095Y-9714381D01*
X10180571Y-9676286D01*
X10180571Y-9628667D01*
X10190095Y-9590571D01*
X10199619Y-9571524D01*
X10209143Y-9562000D01*
X10228190Y-9552476D01*
X10485333Y-9752476D02*
X10371048Y-9752476D01*
X10428190Y-9752476D02*
X10428190Y-9552476D01*
X10409143Y-9581048D01*
X10390095Y-9600095D01*
X10371048Y-9609619D01*
X10666286Y-9552476D02*
X10571048Y-9552476D01*
X10561524Y-9647714D01*
X10571048Y-9638190D01*
X10590095Y-9628667D01*
X10637714Y-9628667D01*
X10656762Y-9638190D01*
X10666286Y-9647714D01*
X10675810Y-9666762D01*
X10675810Y-9714381D01*
X10666286Y-9733429D01*
X10656762Y-9742952D01*
X10637714Y-9752476D01*
X10590095Y-9752476D01*
X10571048Y-9742952D01*
X10561524Y-9733429D01*
X10742476Y-9552476D02*
X10875810Y-9552476D01*
X10790095Y-9752476D01*
X10942476Y-9552476D02*
X10942476Y-9590571D01*
X11018667Y-9552476D02*
X11018667Y-9590571D01*
X11313905Y-9828667D02*
X11304381Y-9819143D01*
X11285333Y-9790571D01*
X11275809Y-9771524D01*
X11266286Y-9742952D01*
X11256762Y-9695333D01*
X11256762Y-9657238D01*
X11266286Y-9609619D01*
X11275809Y-9581048D01*
X11285333Y-9562000D01*
X11304381Y-9533429D01*
X11313905Y-9523905D01*
X11494857Y-9752476D02*
X11380571Y-9752476D01*
X11437714Y-9752476D02*
X11437714Y-9552476D01*
X11418667Y-9581048D01*
X11399619Y-9600095D01*
X11380571Y-9609619D01*
X11618667Y-9552476D02*
X11637714Y-9552476D01*
X11656762Y-9562000D01*
X11666286Y-9571524D01*
X11675809Y-9590571D01*
X11685333Y-9628667D01*
X11685333Y-9676286D01*
X11675809Y-9714381D01*
X11666286Y-9733429D01*
X11656762Y-9742952D01*
X11637714Y-9752476D01*
X11618667Y-9752476D01*
X11599619Y-9742952D01*
X11590095Y-9733429D01*
X11580571Y-9714381D01*
X11571048Y-9676286D01*
X11571048Y-9628667D01*
X11580571Y-9590571D01*
X11590095Y-9571524D01*
X11599619Y-9562000D01*
X11618667Y-9552476D01*
X11923428Y-9752476D02*
X11923428Y-9552476D01*
X12009143Y-9752476D02*
X12009143Y-9647714D01*
X11999619Y-9628667D01*
X11980571Y-9619143D01*
X11952000Y-9619143D01*
X11932952Y-9628667D01*
X11923428Y-9638190D01*
X12132952Y-9752476D02*
X12113905Y-9742952D01*
X12104381Y-9733429D01*
X12094857Y-9714381D01*
X12094857Y-9657238D01*
X12104381Y-9638190D01*
X12113905Y-9628667D01*
X12132952Y-9619143D01*
X12161524Y-9619143D01*
X12180571Y-9628667D01*
X12190095Y-9638190D01*
X12199619Y-9657238D01*
X12199619Y-9714381D01*
X12190095Y-9733429D01*
X12180571Y-9742952D01*
X12161524Y-9752476D01*
X12132952Y-9752476D01*
X12313905Y-9752476D02*
X12294857Y-9742952D01*
X12285333Y-9723905D01*
X12285333Y-9552476D01*
X12466286Y-9742952D02*
X12447238Y-9752476D01*
X12409143Y-9752476D01*
X12390095Y-9742952D01*
X12380571Y-9723905D01*
X12380571Y-9647714D01*
X12390095Y-9628667D01*
X12409143Y-9619143D01*
X12447238Y-9619143D01*
X12466286Y-9628667D01*
X12475809Y-9647714D01*
X12475809Y-9666762D01*
X12380571Y-9685810D01*
X12552000Y-9742952D02*
X12571048Y-9752476D01*
X12609143Y-9752476D01*
X12628190Y-9742952D01*
X12637714Y-9723905D01*
X12637714Y-9714381D01*
X12628190Y-9695333D01*
X12609143Y-9685810D01*
X12580571Y-9685810D01*
X12561524Y-9676286D01*
X12552000Y-9657238D01*
X12552000Y-9647714D01*
X12561524Y-9628667D01*
X12580571Y-9619143D01*
X12609143Y-9619143D01*
X12628190Y-9628667D01*
X12704381Y-9828667D02*
X12713905Y-9819143D01*
X12732952Y-9790571D01*
X12742476Y-9771524D01*
X12752000Y-9742952D01*
X12761524Y-9695333D01*
X12761524Y-9657238D01*
X12752000Y-9609619D01*
X12742476Y-9581048D01*
X12732952Y-9562000D01*
X12713905Y-9533429D01*
X12704381Y-9523905D01*
D13*
X7742000Y-9926000D02*
G75*
G03*
X7742000Y-9926000I-45000J0D01*
G01*
D11*
X8037714Y-9816476D02*
X8056762Y-9816476D01*
X8075809Y-9826000D01*
X8085333Y-9835524D01*
X8094857Y-9854571D01*
X8104381Y-9892667D01*
X8104381Y-9940286D01*
X8094857Y-9978381D01*
X8085333Y-9997429D01*
X8075809Y-10006952D01*
X8056762Y-10016476D01*
X8037714Y-10016476D01*
X8018667Y-10006952D01*
X8009143Y-9997429D01*
X7999619Y-9978381D01*
X7990095Y-9940286D01*
X7990095Y-9892667D01*
X7999619Y-9854571D01*
X8009143Y-9835524D01*
X8018667Y-9826000D01*
X8037714Y-9816476D01*
X8190095Y-9997429D02*
X8199619Y-10006952D01*
X8190095Y-10016476D01*
X8180571Y-10006952D01*
X8190095Y-9997429D01*
X8190095Y-10016476D01*
X8294857Y-10016476D02*
X8332952Y-10016476D01*
X8352000Y-10006952D01*
X8361524Y-9997429D01*
X8380571Y-9968857D01*
X8390095Y-9930762D01*
X8390095Y-9854571D01*
X8380571Y-9835524D01*
X8371048Y-9826000D01*
X8352000Y-9816476D01*
X8313905Y-9816476D01*
X8294857Y-9826000D01*
X8285333Y-9835524D01*
X8275809Y-9854571D01*
X8275809Y-9902190D01*
X8285333Y-9921238D01*
X8294857Y-9930762D01*
X8313905Y-9940286D01*
X8352000Y-9940286D01*
X8371048Y-9930762D01*
X8380571Y-9921238D01*
X8390095Y-9902190D01*
X8513905Y-9816476D02*
X8532952Y-9816476D01*
X8552000Y-9826000D01*
X8561524Y-9835524D01*
X8571048Y-9854571D01*
X8580571Y-9892667D01*
X8580571Y-9940286D01*
X8571048Y-9978381D01*
X8561524Y-9997429D01*
X8552000Y-10006952D01*
X8532952Y-10016476D01*
X8513905Y-10016476D01*
X8494857Y-10006952D01*
X8485333Y-9997429D01*
X8475810Y-9978381D01*
X8466286Y-9940286D01*
X8466286Y-9892667D01*
X8475810Y-9854571D01*
X8485333Y-9835524D01*
X8494857Y-9826000D01*
X8513905Y-9816476D01*
X8704381Y-9816476D02*
X8723429Y-9816476D01*
X8742476Y-9826000D01*
X8752000Y-9835524D01*
X8761524Y-9854571D01*
X8771048Y-9892667D01*
X8771048Y-9940286D01*
X8761524Y-9978381D01*
X8752000Y-9997429D01*
X8742476Y-10006952D01*
X8723429Y-10016476D01*
X8704381Y-10016476D01*
X8685333Y-10006952D01*
X8675810Y-9997429D01*
X8666286Y-9978381D01*
X8656762Y-9940286D01*
X8656762Y-9892667D01*
X8666286Y-9854571D01*
X8675810Y-9835524D01*
X8685333Y-9826000D01*
X8704381Y-9816476D01*
X8856762Y-10016476D02*
X8856762Y-9883143D01*
X8856762Y-9902190D02*
X8866286Y-9892667D01*
X8885333Y-9883143D01*
X8913905Y-9883143D01*
X8932952Y-9892667D01*
X8942476Y-9911714D01*
X8942476Y-10016476D01*
X8942476Y-9911714D02*
X8952000Y-9892667D01*
X8971048Y-9883143D01*
X8999619Y-9883143D01*
X9018667Y-9892667D01*
X9028190Y-9911714D01*
X9028190Y-10016476D01*
X9123429Y-10016476D02*
X9123429Y-9883143D01*
X9123429Y-9902190D02*
X9132952Y-9892667D01*
X9152000Y-9883143D01*
X9180571Y-9883143D01*
X9199619Y-9892667D01*
X9209143Y-9911714D01*
X9209143Y-10016476D01*
X9209143Y-9911714D02*
X9218667Y-9892667D01*
X9237714Y-9883143D01*
X9266286Y-9883143D01*
X9285333Y-9892667D01*
X9294857Y-9911714D01*
X9294857Y-10016476D01*
X9685333Y-9806952D02*
X9513905Y-10064095D01*
X9942476Y-9816476D02*
X9961524Y-9816476D01*
X9980571Y-9826000D01*
X9990095Y-9835524D01*
X9999619Y-9854571D01*
X10009143Y-9892667D01*
X10009143Y-9940286D01*
X9999619Y-9978381D01*
X9990095Y-9997429D01*
X9980571Y-10006952D01*
X9961524Y-10016476D01*
X9942476Y-10016476D01*
X9923429Y-10006952D01*
X9913905Y-9997429D01*
X9904381Y-9978381D01*
X9894857Y-9940286D01*
X9894857Y-9892667D01*
X9904381Y-9854571D01*
X9913905Y-9835524D01*
X9923429Y-9826000D01*
X9942476Y-9816476D01*
X10094857Y-9997429D02*
X10104381Y-10006952D01*
X10094857Y-10016476D01*
X10085333Y-10006952D01*
X10094857Y-9997429D01*
X10094857Y-10016476D01*
X10228190Y-9816476D02*
X10247238Y-9816476D01*
X10266286Y-9826000D01*
X10275810Y-9835524D01*
X10285333Y-9854571D01*
X10294857Y-9892667D01*
X10294857Y-9940286D01*
X10285333Y-9978381D01*
X10275810Y-9997429D01*
X10266286Y-10006952D01*
X10247238Y-10016476D01*
X10228190Y-10016476D01*
X10209143Y-10006952D01*
X10199619Y-9997429D01*
X10190095Y-9978381D01*
X10180571Y-9940286D01*
X10180571Y-9892667D01*
X10190095Y-9854571D01*
X10199619Y-9835524D01*
X10209143Y-9826000D01*
X10228190Y-9816476D01*
X10361524Y-9816476D02*
X10485333Y-9816476D01*
X10418667Y-9892667D01*
X10447238Y-9892667D01*
X10466286Y-9902190D01*
X10475810Y-9911714D01*
X10485333Y-9930762D01*
X10485333Y-9978381D01*
X10475810Y-9997429D01*
X10466286Y-10006952D01*
X10447238Y-10016476D01*
X10390095Y-10016476D01*
X10371048Y-10006952D01*
X10361524Y-9997429D01*
X10666286Y-9816476D02*
X10571048Y-9816476D01*
X10561524Y-9911714D01*
X10571048Y-9902190D01*
X10590095Y-9892667D01*
X10637714Y-9892667D01*
X10656762Y-9902190D01*
X10666286Y-9911714D01*
X10675810Y-9930762D01*
X10675810Y-9978381D01*
X10666286Y-9997429D01*
X10656762Y-10006952D01*
X10637714Y-10016476D01*
X10590095Y-10016476D01*
X10571048Y-10006952D01*
X10561524Y-9997429D01*
X10847238Y-9883143D02*
X10847238Y-10016476D01*
X10799619Y-9806952D02*
X10752000Y-9949810D01*
X10875810Y-9949810D01*
X10942476Y-9816476D02*
X10942476Y-9854571D01*
X11018667Y-9816476D02*
X11018667Y-9854571D01*
X11313905Y-10092667D02*
X11304381Y-10083143D01*
X11285333Y-10054571D01*
X11275809Y-10035524D01*
X11266286Y-10006952D01*
X11256762Y-9959333D01*
X11256762Y-9921238D01*
X11266286Y-9873619D01*
X11275809Y-9845048D01*
X11285333Y-9826000D01*
X11304381Y-9797429D01*
X11313905Y-9787905D01*
X11380571Y-9835524D02*
X11390095Y-9826000D01*
X11409143Y-9816476D01*
X11456762Y-9816476D01*
X11475809Y-9826000D01*
X11485333Y-9835524D01*
X11494857Y-9854571D01*
X11494857Y-9873619D01*
X11485333Y-9902190D01*
X11371048Y-10016476D01*
X11494857Y-10016476D01*
X11618667Y-9816476D02*
X11637714Y-9816476D01*
X11656762Y-9826000D01*
X11666286Y-9835524D01*
X11675809Y-9854571D01*
X11685333Y-9892667D01*
X11685333Y-9940286D01*
X11675809Y-9978381D01*
X11666286Y-9997429D01*
X11656762Y-10006952D01*
X11637714Y-10016476D01*
X11618667Y-10016476D01*
X11599619Y-10006952D01*
X11590095Y-9997429D01*
X11580571Y-9978381D01*
X11571048Y-9940286D01*
X11571048Y-9892667D01*
X11580571Y-9854571D01*
X11590095Y-9835524D01*
X11599619Y-9826000D01*
X11618667Y-9816476D01*
X11923428Y-10016476D02*
X11923428Y-9816476D01*
X12009143Y-10016476D02*
X12009143Y-9911714D01*
X11999619Y-9892667D01*
X11980571Y-9883143D01*
X11952000Y-9883143D01*
X11932952Y-9892667D01*
X11923428Y-9902190D01*
X12132952Y-10016476D02*
X12113905Y-10006952D01*
X12104381Y-9997429D01*
X12094857Y-9978381D01*
X12094857Y-9921238D01*
X12104381Y-9902190D01*
X12113905Y-9892667D01*
X12132952Y-9883143D01*
X12161524Y-9883143D01*
X12180571Y-9892667D01*
X12190095Y-9902190D01*
X12199619Y-9921238D01*
X12199619Y-9978381D01*
X12190095Y-9997429D01*
X12180571Y-10006952D01*
X12161524Y-10016476D01*
X12132952Y-10016476D01*
X12313905Y-10016476D02*
X12294857Y-10006952D01*
X12285333Y-9987905D01*
X12285333Y-9816476D01*
X12466286Y-10006952D02*
X12447238Y-10016476D01*
X12409143Y-10016476D01*
X12390095Y-10006952D01*
X12380571Y-9987905D01*
X12380571Y-9911714D01*
X12390095Y-9892667D01*
X12409143Y-9883143D01*
X12447238Y-9883143D01*
X12466286Y-9892667D01*
X12475809Y-9911714D01*
X12475809Y-9930762D01*
X12380571Y-9949810D01*
X12552000Y-10006952D02*
X12571048Y-10016476D01*
X12609143Y-10016476D01*
X12628190Y-10006952D01*
X12637714Y-9987905D01*
X12637714Y-9978381D01*
X12628190Y-9959333D01*
X12609143Y-9949810D01*
X12580571Y-9949810D01*
X12561524Y-9940286D01*
X12552000Y-9921238D01*
X12552000Y-9911714D01*
X12561524Y-9892667D01*
X12580571Y-9883143D01*
X12609143Y-9883143D01*
X12628190Y-9892667D01*
X12704381Y-10092667D02*
X12713905Y-10083143D01*
X12732952Y-10054571D01*
X12742476Y-10035524D01*
X12752000Y-10006952D01*
X12761524Y-9959333D01*
X12761524Y-9921238D01*
X12752000Y-9873619D01*
X12742476Y-9845048D01*
X12732952Y-9826000D01*
X12713905Y-9797429D01*
X12704381Y-9787905D01*
D10*
X7692000Y-10140000D02*
X7692000Y-10240000D01*
X7642000Y-10190000D02*
X7742000Y-10190000D01*
D11*
X8104381Y-10280476D02*
X7990095Y-10280476D01*
X8047238Y-10280476D02*
X8047238Y-10080476D01*
X8028190Y-10109048D01*
X8009143Y-10128095D01*
X7990095Y-10137619D01*
X8190095Y-10261429D02*
X8199619Y-10270952D01*
X8190095Y-10280476D01*
X8180571Y-10270952D01*
X8190095Y-10261429D01*
X8190095Y-10280476D01*
X8323428Y-10080476D02*
X8342476Y-10080476D01*
X8361524Y-10090000D01*
X8371048Y-10099524D01*
X8380571Y-10118571D01*
X8390095Y-10156667D01*
X8390095Y-10204286D01*
X8380571Y-10242381D01*
X8371048Y-10261429D01*
X8361524Y-10270952D01*
X8342476Y-10280476D01*
X8323428Y-10280476D01*
X8304381Y-10270952D01*
X8294857Y-10261429D01*
X8285333Y-10242381D01*
X8275809Y-10204286D01*
X8275809Y-10156667D01*
X8285333Y-10118571D01*
X8294857Y-10099524D01*
X8304381Y-10090000D01*
X8323428Y-10080476D01*
X8513905Y-10080476D02*
X8532952Y-10080476D01*
X8552000Y-10090000D01*
X8561524Y-10099524D01*
X8571048Y-10118571D01*
X8580571Y-10156667D01*
X8580571Y-10204286D01*
X8571048Y-10242381D01*
X8561524Y-10261429D01*
X8552000Y-10270952D01*
X8532952Y-10280476D01*
X8513905Y-10280476D01*
X8494857Y-10270952D01*
X8485333Y-10261429D01*
X8475810Y-10242381D01*
X8466286Y-10204286D01*
X8466286Y-10156667D01*
X8475810Y-10118571D01*
X8485333Y-10099524D01*
X8494857Y-10090000D01*
X8513905Y-10080476D01*
X8704381Y-10080476D02*
X8723429Y-10080476D01*
X8742476Y-10090000D01*
X8752000Y-10099524D01*
X8761524Y-10118571D01*
X8771048Y-10156667D01*
X8771048Y-10204286D01*
X8761524Y-10242381D01*
X8752000Y-10261429D01*
X8742476Y-10270952D01*
X8723429Y-10280476D01*
X8704381Y-10280476D01*
X8685333Y-10270952D01*
X8675810Y-10261429D01*
X8666286Y-10242381D01*
X8656762Y-10204286D01*
X8656762Y-10156667D01*
X8666286Y-10118571D01*
X8675810Y-10099524D01*
X8685333Y-10090000D01*
X8704381Y-10080476D01*
X8856762Y-10280476D02*
X8856762Y-10147143D01*
X8856762Y-10166190D02*
X8866286Y-10156667D01*
X8885333Y-10147143D01*
X8913905Y-10147143D01*
X8932952Y-10156667D01*
X8942476Y-10175714D01*
X8942476Y-10280476D01*
X8942476Y-10175714D02*
X8952000Y-10156667D01*
X8971048Y-10147143D01*
X8999619Y-10147143D01*
X9018667Y-10156667D01*
X9028190Y-10175714D01*
X9028190Y-10280476D01*
X9123429Y-10280476D02*
X9123429Y-10147143D01*
X9123429Y-10166190D02*
X9132952Y-10156667D01*
X9152000Y-10147143D01*
X9180571Y-10147143D01*
X9199619Y-10156667D01*
X9209143Y-10175714D01*
X9209143Y-10280476D01*
X9209143Y-10175714D02*
X9218667Y-10156667D01*
X9237714Y-10147143D01*
X9266286Y-10147143D01*
X9285333Y-10156667D01*
X9294857Y-10175714D01*
X9294857Y-10280476D01*
X9685333Y-10070952D02*
X9513905Y-10328095D01*
X9942476Y-10080476D02*
X9961524Y-10080476D01*
X9980571Y-10090000D01*
X9990095Y-10099524D01*
X9999619Y-10118571D01*
X10009143Y-10156667D01*
X10009143Y-10204286D01*
X9999619Y-10242381D01*
X9990095Y-10261429D01*
X9980571Y-10270952D01*
X9961524Y-10280476D01*
X9942476Y-10280476D01*
X9923429Y-10270952D01*
X9913905Y-10261429D01*
X9904381Y-10242381D01*
X9894857Y-10204286D01*
X9894857Y-10156667D01*
X9904381Y-10118571D01*
X9913905Y-10099524D01*
X9923429Y-10090000D01*
X9942476Y-10080476D01*
X10094857Y-10261429D02*
X10104381Y-10270952D01*
X10094857Y-10280476D01*
X10085333Y-10270952D01*
X10094857Y-10261429D01*
X10094857Y-10280476D01*
X10228190Y-10080476D02*
X10247238Y-10080476D01*
X10266286Y-10090000D01*
X10275810Y-10099524D01*
X10285333Y-10118571D01*
X10294857Y-10156667D01*
X10294857Y-10204286D01*
X10285333Y-10242381D01*
X10275810Y-10261429D01*
X10266286Y-10270952D01*
X10247238Y-10280476D01*
X10228190Y-10280476D01*
X10209143Y-10270952D01*
X10199619Y-10261429D01*
X10190095Y-10242381D01*
X10180571Y-10204286D01*
X10180571Y-10156667D01*
X10190095Y-10118571D01*
X10199619Y-10099524D01*
X10209143Y-10090000D01*
X10228190Y-10080476D01*
X10361524Y-10080476D02*
X10485333Y-10080476D01*
X10418667Y-10156667D01*
X10447238Y-10156667D01*
X10466286Y-10166190D01*
X10475810Y-10175714D01*
X10485333Y-10194762D01*
X10485333Y-10242381D01*
X10475810Y-10261429D01*
X10466286Y-10270952D01*
X10447238Y-10280476D01*
X10390095Y-10280476D01*
X10371048Y-10270952D01*
X10361524Y-10261429D01*
X10580571Y-10280476D02*
X10618667Y-10280476D01*
X10637714Y-10270952D01*
X10647238Y-10261429D01*
X10666286Y-10232857D01*
X10675810Y-10194762D01*
X10675810Y-10118571D01*
X10666286Y-10099524D01*
X10656762Y-10090000D01*
X10637714Y-10080476D01*
X10599619Y-10080476D01*
X10580571Y-10090000D01*
X10571048Y-10099524D01*
X10561524Y-10118571D01*
X10561524Y-10166190D01*
X10571048Y-10185238D01*
X10580571Y-10194762D01*
X10599619Y-10204286D01*
X10637714Y-10204286D01*
X10656762Y-10194762D01*
X10666286Y-10185238D01*
X10675810Y-10166190D01*
X10847238Y-10147143D02*
X10847238Y-10280476D01*
X10799619Y-10070952D02*
X10752000Y-10213810D01*
X10875810Y-10213810D01*
X10942476Y-10080476D02*
X10942476Y-10118571D01*
X11018667Y-10080476D02*
X11018667Y-10118571D01*
X11313905Y-10356667D02*
X11304381Y-10347143D01*
X11285333Y-10318571D01*
X11275809Y-10299524D01*
X11266286Y-10270952D01*
X11256762Y-10223333D01*
X11256762Y-10185238D01*
X11266286Y-10137619D01*
X11275809Y-10109048D01*
X11285333Y-10090000D01*
X11304381Y-10061429D01*
X11313905Y-10051905D01*
X11494857Y-10280476D02*
X11380571Y-10280476D01*
X11437714Y-10280476D02*
X11437714Y-10080476D01*
X11418667Y-10109048D01*
X11399619Y-10128095D01*
X11380571Y-10137619D01*
X11571048Y-10099524D02*
X11580571Y-10090000D01*
X11599619Y-10080476D01*
X11647238Y-10080476D01*
X11666286Y-10090000D01*
X11675809Y-10099524D01*
X11685333Y-10118571D01*
X11685333Y-10137619D01*
X11675809Y-10166190D01*
X11561524Y-10280476D01*
X11685333Y-10280476D01*
X11923428Y-10280476D02*
X11923428Y-10080476D01*
X12009143Y-10280476D02*
X12009143Y-10175714D01*
X11999619Y-10156667D01*
X11980571Y-10147143D01*
X11952000Y-10147143D01*
X11932952Y-10156667D01*
X11923428Y-10166190D01*
X12132952Y-10280476D02*
X12113905Y-10270952D01*
X12104381Y-10261429D01*
X12094857Y-10242381D01*
X12094857Y-10185238D01*
X12104381Y-10166190D01*
X12113905Y-10156667D01*
X12132952Y-10147143D01*
X12161524Y-10147143D01*
X12180571Y-10156667D01*
X12190095Y-10166190D01*
X12199619Y-10185238D01*
X12199619Y-10242381D01*
X12190095Y-10261429D01*
X12180571Y-10270952D01*
X12161524Y-10280476D01*
X12132952Y-10280476D01*
X12313905Y-10280476D02*
X12294857Y-10270952D01*
X12285333Y-10251905D01*
X12285333Y-10080476D01*
X12466286Y-10270952D02*
X12447238Y-10280476D01*
X12409143Y-10280476D01*
X12390095Y-10270952D01*
X12380571Y-10251905D01*
X12380571Y-10175714D01*
X12390095Y-10156667D01*
X12409143Y-10147143D01*
X12447238Y-10147143D01*
X12466286Y-10156667D01*
X12475809Y-10175714D01*
X12475809Y-10194762D01*
X12380571Y-10213810D01*
X12552000Y-10270952D02*
X12571048Y-10280476D01*
X12609143Y-10280476D01*
X12628190Y-10270952D01*
X12637714Y-10251905D01*
X12637714Y-10242381D01*
X12628190Y-10223333D01*
X12609143Y-10213810D01*
X12580571Y-10213810D01*
X12561524Y-10204286D01*
X12552000Y-10185238D01*
X12552000Y-10175714D01*
X12561524Y-10156667D01*
X12580571Y-10147143D01*
X12609143Y-10147143D01*
X12628190Y-10156667D01*
X12704381Y-10356667D02*
X12713905Y-10347143D01*
X12732952Y-10318571D01*
X12742476Y-10299524D01*
X12752000Y-10270952D01*
X12761524Y-10223333D01*
X12761524Y-10185238D01*
X12752000Y-10137619D01*
X12742476Y-10109048D01*
X12732952Y-10090000D01*
X12713905Y-10061429D01*
X12704381Y-10051905D01*
M02*
