G04 #@! TF.GenerationSoftware,KiCad,Pcbnew,6.0.9-8da3e8f707~116~ubuntu20.04.1*
G04 #@! TF.CreationDate,2023-03-08T17:55:06+01:00*
G04 #@! TF.ProjectId,led_drv_pmod,6c65645f-6472-4765-9f70-6d6f642e6b69,rev?*
G04 #@! TF.SameCoordinates,Original*
G04 #@! TF.FileFunction,Copper,L1,Top*
G04 #@! TF.FilePolarity,Positive*
%FSLAX46Y46*%
G04 Gerber Fmt 4.6, Leading zero omitted, Abs format (unit mm)*
G04 Created by KiCad (PCBNEW 6.0.9-8da3e8f707~116~ubuntu20.04.1) date 2023-03-08 17:55:06*
%MOMM*%
%LPD*%
G01*
G04 APERTURE LIST*
G04 Aperture macros list*
%AMRoundRect*
0 Rectangle with rounded corners*
0 $1 Rounding radius*
0 $2 $3 $4 $5 $6 $7 $8 $9 X,Y pos of 4 corners*
0 Add a 4 corners polygon primitive as box body*
4,1,4,$2,$3,$4,$5,$6,$7,$8,$9,$2,$3,0*
0 Add four circle primitives for the rounded corners*
1,1,$1+$1,$2,$3*
1,1,$1+$1,$4,$5*
1,1,$1+$1,$6,$7*
1,1,$1+$1,$8,$9*
0 Add four rect primitives between the rounded corners*
20,1,$1+$1,$2,$3,$4,$5,0*
20,1,$1+$1,$4,$5,$6,$7,0*
20,1,$1+$1,$6,$7,$8,$9,0*
20,1,$1+$1,$8,$9,$2,$3,0*%
G04 Aperture macros list end*
G04 #@! TA.AperFunction,ComponentPad*
%ADD10R,1.700000X1.700000*%
G04 #@! TD*
G04 #@! TA.AperFunction,ComponentPad*
%ADD11O,1.700000X1.700000*%
G04 #@! TD*
G04 #@! TA.AperFunction,SMDPad,CuDef*
%ADD12RoundRect,0.237500X-0.250000X-0.237500X0.250000X-0.237500X0.250000X0.237500X-0.250000X0.237500X0*%
G04 #@! TD*
G04 #@! TA.AperFunction,SMDPad,CuDef*
%ADD13RoundRect,0.237500X-0.237500X0.250000X-0.237500X-0.250000X0.237500X-0.250000X0.237500X0.250000X0*%
G04 #@! TD*
G04 #@! TA.AperFunction,ComponentPad*
%ADD14R,1.800000X1.800000*%
G04 #@! TD*
G04 #@! TA.AperFunction,ComponentPad*
%ADD15C,1.800000*%
G04 #@! TD*
G04 #@! TA.AperFunction,SMDPad,CuDef*
%ADD16RoundRect,0.237500X0.237500X-0.300000X0.237500X0.300000X-0.237500X0.300000X-0.237500X-0.300000X0*%
G04 #@! TD*
G04 #@! TA.AperFunction,SMDPad,CuDef*
%ADD17RoundRect,0.007800X0.397200X0.122200X-0.397200X0.122200X-0.397200X-0.122200X0.397200X-0.122200X0*%
G04 #@! TD*
G04 #@! TA.AperFunction,SMDPad,CuDef*
%ADD18RoundRect,0.007800X-0.122200X0.397200X-0.122200X-0.397200X0.122200X-0.397200X0.122200X0.397200X0*%
G04 #@! TD*
G04 #@! TA.AperFunction,SMDPad,CuDef*
%ADD19R,2.600000X2.600000*%
G04 #@! TD*
G04 #@! TA.AperFunction,ComponentPad*
%ADD20R,1.800000X1.070000*%
G04 #@! TD*
G04 #@! TA.AperFunction,ComponentPad*
%ADD21O,1.800000X1.070000*%
G04 #@! TD*
G04 #@! TA.AperFunction,SMDPad,CuDef*
%ADD22RoundRect,0.237500X0.250000X0.237500X-0.250000X0.237500X-0.250000X-0.237500X0.250000X-0.237500X0*%
G04 #@! TD*
G04 #@! TA.AperFunction,ViaPad*
%ADD23C,0.800000*%
G04 #@! TD*
G04 #@! TA.AperFunction,Conductor*
%ADD24C,0.250000*%
G04 #@! TD*
G04 #@! TA.AperFunction,Conductor*
%ADD25C,0.300000*%
G04 #@! TD*
G04 APERTURE END LIST*
D10*
X81280000Y-48260000D03*
D11*
X81280000Y-45720000D03*
X83820000Y-48260000D03*
X83820000Y-45720000D03*
X86360000Y-48260000D03*
X86360000Y-45720000D03*
X88900000Y-48260000D03*
X88900000Y-45720000D03*
X91440000Y-48260000D03*
X91440000Y-45720000D03*
X93980000Y-48260000D03*
X93980000Y-45720000D03*
D12*
X95043000Y-52424500D03*
X93218000Y-52424500D03*
D13*
X80264000Y-54512500D03*
X80264000Y-56337500D03*
D14*
X91440000Y-79730000D03*
D15*
X91440000Y-77190000D03*
D16*
X82296000Y-56234500D03*
X82296000Y-54509500D03*
D14*
X83820000Y-64490000D03*
D15*
X83820000Y-61950000D03*
D14*
X83820000Y-69570000D03*
D15*
X83820000Y-67030000D03*
D14*
X91440000Y-74650000D03*
D15*
X91440000Y-72110000D03*
D14*
X83820000Y-74650000D03*
D15*
X83820000Y-72110000D03*
D14*
X83820000Y-79730000D03*
D15*
X83820000Y-77190000D03*
D14*
X91440000Y-69570000D03*
D15*
X91440000Y-67030000D03*
D17*
X89834000Y-56368000D03*
X89834000Y-55868000D03*
X89834000Y-55368000D03*
X89834000Y-54868000D03*
X89834000Y-54368000D03*
X89834000Y-53868000D03*
D18*
X89134000Y-53168000D03*
X88634000Y-53168000D03*
X88134000Y-53168000D03*
X87634000Y-53168000D03*
X87134000Y-53168000D03*
X86634000Y-53168000D03*
D17*
X85934000Y-53868000D03*
X85934000Y-54368000D03*
X85934000Y-54868000D03*
X85934000Y-55368000D03*
X85934000Y-55868000D03*
X85934000Y-56368000D03*
D18*
X86634000Y-57068000D03*
X87134000Y-57068000D03*
X87634000Y-57068000D03*
X88134000Y-57068000D03*
X88634000Y-57068000D03*
X89134000Y-57068000D03*
D19*
X87884000Y-55118000D03*
D14*
X91440000Y-64490000D03*
D15*
X91440000Y-61950000D03*
D16*
X83947000Y-54329500D03*
X83947000Y-52604500D03*
D20*
X87630000Y-87350000D03*
D21*
X87630000Y-86080000D03*
X87630000Y-84810000D03*
X87630000Y-83540000D03*
D22*
X82296000Y-52578000D03*
X80471000Y-52578000D03*
X90955500Y-50927000D03*
X89130500Y-50927000D03*
D16*
X94996000Y-56081000D03*
X94996000Y-54356000D03*
X93218000Y-56081000D03*
X93218000Y-54356000D03*
D23*
X84988400Y-53238400D03*
X90957400Y-52425600D03*
X87884000Y-55118000D03*
X83820000Y-43180000D03*
X91440000Y-43180000D03*
X83496900Y-55429900D03*
X87763600Y-50803800D03*
D24*
X95043000Y-52424500D02*
X94243000Y-51624500D01*
X94243000Y-51624500D02*
X92264500Y-51624500D01*
X92264500Y-51624500D02*
X91768000Y-51128000D01*
X91768000Y-51128000D02*
X91768000Y-50456505D01*
X91768000Y-50456505D02*
X91398495Y-50087000D01*
X91398495Y-50087000D02*
X90121000Y-50087000D01*
D25*
X81280000Y-48260000D02*
X81280000Y-49435300D01*
X81280000Y-49435300D02*
X78978100Y-51737200D01*
X78978100Y-51737200D02*
X78978100Y-56369950D01*
X78978100Y-56369950D02*
X79783150Y-57175000D01*
X79783150Y-57175000D02*
X81355500Y-57175000D01*
X81355500Y-57175000D02*
X82296000Y-56234500D01*
D24*
X90121000Y-49833000D02*
X90121000Y-45260400D01*
X90121000Y-51219495D02*
X90121000Y-49833000D01*
X90957400Y-52425600D02*
X93216900Y-52425600D01*
X93216900Y-52425600D02*
X93218000Y-52424500D01*
X89134000Y-53168000D02*
X90215000Y-53168000D01*
X90215000Y-53168000D02*
X90957400Y-52425600D01*
X94996000Y-54356000D02*
X94130900Y-53490900D01*
X94130900Y-53490900D02*
X92305100Y-53490900D01*
X92305100Y-53490900D02*
X91928000Y-53868000D01*
X91928000Y-53868000D02*
X89834000Y-53868000D01*
X90957400Y-52425600D02*
X90957400Y-50928900D01*
X90957400Y-50928900D02*
X90955500Y-50927000D01*
X88634000Y-53168000D02*
X88634000Y-52310600D01*
X87535300Y-45352600D02*
X87535300Y-45720000D01*
X88634000Y-52310600D02*
X88976200Y-51968400D01*
X89405300Y-44544700D02*
X88343200Y-44544700D01*
X88976200Y-51968400D02*
X89372095Y-51968400D01*
X89372095Y-51968400D02*
X90121000Y-51219495D01*
X90121000Y-45260400D02*
X89405300Y-44544700D01*
X88343200Y-44544700D02*
X87535300Y-45352600D01*
X87535300Y-45720000D02*
X86360000Y-45720000D01*
X89130500Y-50927000D02*
X88134000Y-51923500D01*
X88134000Y-51923500D02*
X88134000Y-53168000D01*
X89130500Y-50927000D02*
X89130500Y-50152201D01*
X89130500Y-50152201D02*
X87725000Y-48746701D01*
X87725000Y-48746701D02*
X87725000Y-47703000D01*
X85934000Y-54868000D02*
X85083400Y-54868000D01*
X85083400Y-54868000D02*
X83716900Y-56234500D01*
X83716900Y-56234500D02*
X82296000Y-56234500D01*
X86678700Y-53912700D02*
X87884000Y-55118000D01*
X79453100Y-55526600D02*
X80264000Y-56337500D01*
X85934000Y-53868000D02*
X85934000Y-53295000D01*
X83820000Y-45720000D02*
X83820000Y-48260000D01*
X82296000Y-54255500D02*
X83947000Y-52604500D01*
X83820000Y-48260000D02*
X83820000Y-50038000D01*
X80471000Y-51609000D02*
X80471000Y-52578000D01*
X85934000Y-53295000D02*
X85217000Y-52578000D01*
X85978700Y-53912700D02*
X86678700Y-53912700D01*
X79453100Y-53595900D02*
X79453100Y-55526600D01*
X81026000Y-51054000D02*
X80471000Y-51609000D01*
X82296000Y-54509500D02*
X82296000Y-54255500D01*
X80471000Y-52578000D02*
X79453100Y-53595900D01*
X85217000Y-52578000D02*
X83973500Y-52578000D01*
X85934000Y-53868000D02*
X85978700Y-53912700D01*
X81534000Y-50546000D02*
X81026000Y-51054000D01*
X80264000Y-56337500D02*
X80468000Y-56337500D01*
X80468000Y-56337500D02*
X82296000Y-54509500D01*
X83312000Y-50546000D02*
X81534000Y-50546000D01*
X83820000Y-50038000D02*
X83312000Y-50546000D01*
X83973500Y-52578000D02*
X83947000Y-52604500D01*
X92005000Y-54868000D02*
X89834000Y-54868000D01*
X93218000Y-56081000D02*
X92005000Y-54868000D01*
X89846000Y-54356000D02*
X89834000Y-54368000D01*
X93218000Y-54356000D02*
X89846000Y-54356000D01*
X94996000Y-56081000D02*
X94095000Y-56982000D01*
X92763900Y-56982000D02*
X91149900Y-55368000D01*
X94095000Y-56982000D02*
X92763900Y-56982000D01*
X91149900Y-55368000D02*
X89834000Y-55368000D01*
X92665400Y-78415400D02*
X92665400Y-84320600D01*
X87630000Y-86080000D02*
X90906000Y-86080000D01*
X83985500Y-54368000D02*
X83947000Y-54329500D01*
X92665400Y-78415400D02*
X91440000Y-77190000D01*
X83947000Y-54329500D02*
X83947000Y-54979800D01*
X85934000Y-54368000D02*
X83985500Y-54368000D01*
X92665400Y-84320600D02*
X90906000Y-86080000D01*
X83947000Y-54979800D02*
X83496900Y-55429900D01*
X88134000Y-74650200D02*
X84279500Y-78504700D01*
X84279500Y-78504700D02*
X83820000Y-78504700D01*
X88134000Y-57068000D02*
X88134000Y-74650200D01*
X83820000Y-79730000D02*
X83820000Y-78504700D01*
X87634000Y-70070200D02*
X84279500Y-73424700D01*
X83820000Y-74650000D02*
X83820000Y-73424700D01*
X84279500Y-73424700D02*
X83820000Y-73424700D01*
X87634000Y-57068000D02*
X87634000Y-70070200D01*
X87134000Y-57068000D02*
X87134000Y-65490200D01*
X84279500Y-68344700D02*
X83820000Y-68344700D01*
X83820000Y-69570000D02*
X83820000Y-68344700D01*
X87134000Y-65490200D02*
X84279500Y-68344700D01*
X83820000Y-64490000D02*
X83820000Y-63264700D01*
X84279500Y-63264700D02*
X83820000Y-63264700D01*
X86634000Y-57068000D02*
X86634000Y-60910200D01*
X86634000Y-60910200D02*
X84279500Y-63264700D01*
X88634000Y-76158200D02*
X90980500Y-78504700D01*
X88634000Y-57068000D02*
X88634000Y-76158200D01*
X91440000Y-79730000D02*
X91440000Y-78504700D01*
X90980500Y-78504700D02*
X91440000Y-78504700D01*
X89134000Y-57068000D02*
X89134000Y-71578200D01*
X91440000Y-74650000D02*
X91440000Y-73424700D01*
X89134000Y-71578200D02*
X90980500Y-73424700D01*
X90980500Y-73424700D02*
X91440000Y-73424700D01*
X90980500Y-68344700D02*
X89758700Y-67122900D01*
X89758700Y-67122900D02*
X89758700Y-56443300D01*
X89758700Y-56443300D02*
X89834000Y-56368000D01*
X91440000Y-68344700D02*
X90980500Y-68344700D01*
X91440000Y-69570000D02*
X91440000Y-68344700D01*
X91440000Y-64490000D02*
X91440000Y-63264700D01*
X90980500Y-63264700D02*
X90209100Y-62493300D01*
X90572800Y-56116100D02*
X90324700Y-55868000D01*
X90324700Y-55868000D02*
X89834000Y-55868000D01*
X90209100Y-62493300D02*
X90209100Y-57158300D01*
X91440000Y-63264700D02*
X90980500Y-63264700D01*
X90209100Y-57158300D02*
X90572800Y-56794600D01*
X90572800Y-56794600D02*
X90572800Y-56116100D01*
X83901200Y-56687300D02*
X85220500Y-55368000D01*
X87630000Y-87350000D02*
X86404700Y-87350000D01*
X83901200Y-58659400D02*
X83901200Y-56687300D01*
X81692000Y-60868600D02*
X83901200Y-58659400D01*
X81692000Y-82637300D02*
X81692000Y-60868600D01*
X86404700Y-87350000D02*
X81692000Y-82637300D01*
X85220500Y-55368000D02*
X85934000Y-55368000D01*
X82142300Y-61055200D02*
X84929300Y-58268200D01*
X85413600Y-55868000D02*
X85934000Y-55868000D01*
X86404700Y-84810000D02*
X85927000Y-84810000D01*
X85927000Y-84810000D02*
X82142300Y-81025300D01*
X82142300Y-81025300D02*
X82142300Y-61055200D01*
X84929300Y-56352300D02*
X85413600Y-55868000D01*
X87630000Y-84810000D02*
X86404700Y-84810000D01*
X84929300Y-58268200D02*
X84929300Y-56352300D01*
X82592600Y-80764000D02*
X82592600Y-61334900D01*
X85368600Y-83540000D02*
X82592600Y-80764000D01*
X85934000Y-57993500D02*
X85934000Y-56368000D01*
X86404700Y-83540000D02*
X85368600Y-83540000D01*
X82592600Y-61334900D02*
X85934000Y-57993500D01*
X87630000Y-83540000D02*
X86404700Y-83540000D01*
X88532700Y-46895300D02*
X87718800Y-47709200D01*
X88900000Y-46895300D02*
X88532700Y-46895300D01*
X88900000Y-45720000D02*
X88900000Y-46895300D01*
X87634000Y-50933400D02*
X87634000Y-53168000D01*
X87763600Y-50803800D02*
X87634000Y-50933400D01*
X86634000Y-53168000D02*
X85028000Y-51562000D01*
X82653996Y-51562000D02*
X82296000Y-51919996D01*
X85028000Y-51562000D02*
X82653996Y-51562000D01*
X82296000Y-51919996D02*
X82296000Y-52578000D01*
X81751000Y-51345000D02*
X81751000Y-51354305D01*
X81751000Y-51354305D02*
X81383500Y-51721805D01*
X82042000Y-51054000D02*
X81751000Y-51345000D01*
X81383500Y-53393000D02*
X80264000Y-54512500D01*
X87134000Y-52677950D02*
X85510050Y-51054000D01*
X81383500Y-51721805D02*
X81383500Y-53393000D01*
X85510050Y-51054000D02*
X82042000Y-51054000D01*
X87134000Y-53168000D02*
X87134000Y-52677950D01*
G04 #@! TA.AperFunction,Conductor*
G36*
X97223621Y-42438502D02*
G01*
X97270114Y-42492158D01*
X97281500Y-42544500D01*
X97281500Y-89535500D01*
X97261498Y-89603621D01*
X97207842Y-89650114D01*
X97155500Y-89661500D01*
X78104500Y-89661500D01*
X78036379Y-89641498D01*
X77989886Y-89587842D01*
X77978500Y-89535500D01*
X77978500Y-51716352D01*
X78314694Y-51716352D01*
X78318034Y-51751680D01*
X78319041Y-51762338D01*
X78319600Y-51774196D01*
X78319600Y-56287894D01*
X78319041Y-56299750D01*
X78317312Y-56307487D01*
X78317561Y-56315409D01*
X78319538Y-56378319D01*
X78319600Y-56382277D01*
X78319600Y-56411382D01*
X78320156Y-56415782D01*
X78321088Y-56427614D01*
X78322538Y-56473781D01*
X78324750Y-56481394D01*
X78324750Y-56481395D01*
X78328519Y-56494366D01*
X78332530Y-56513732D01*
X78335218Y-56535014D01*
X78338134Y-56542379D01*
X78338135Y-56542383D01*
X78352226Y-56577971D01*
X78356065Y-56589181D01*
X78368955Y-56633550D01*
X78379875Y-56652015D01*
X78388566Y-56669755D01*
X78396465Y-56689706D01*
X78423616Y-56727076D01*
X78430133Y-56736998D01*
X78449607Y-56769927D01*
X78449610Y-56769931D01*
X78453647Y-56776757D01*
X78468811Y-56791921D01*
X78481651Y-56806954D01*
X78494259Y-56824307D01*
X78527352Y-56851684D01*
X78529852Y-56853752D01*
X78538632Y-56861742D01*
X79259495Y-57582605D01*
X79267485Y-57591385D01*
X79271734Y-57598080D01*
X79277512Y-57603506D01*
X79277513Y-57603507D01*
X79323407Y-57646604D01*
X79326249Y-57649359D01*
X79346817Y-57669927D01*
X79350320Y-57672644D01*
X79359345Y-57680352D01*
X79393017Y-57711972D01*
X79399968Y-57715793D01*
X79399969Y-57715794D01*
X79411808Y-57722303D01*
X79428332Y-57733157D01*
X79438421Y-57740982D01*
X79445282Y-57746304D01*
X79452554Y-57749451D01*
X79452556Y-57749452D01*
X79487685Y-57764654D01*
X79498345Y-57769876D01*
X79528318Y-57786354D01*
X79538813Y-57792124D01*
X79559591Y-57797459D01*
X79578281Y-57803858D01*
X79597974Y-57812380D01*
X79632713Y-57817882D01*
X79643598Y-57819606D01*
X79655221Y-57822013D01*
X79679904Y-57828350D01*
X79699962Y-57833500D01*
X79721409Y-57833500D01*
X79741119Y-57835051D01*
X79762302Y-57838406D01*
X79808291Y-57834059D01*
X79820146Y-57833500D01*
X81273444Y-57833500D01*
X81285300Y-57834059D01*
X81285303Y-57834059D01*
X81293037Y-57835788D01*
X81363869Y-57833562D01*
X81367827Y-57833500D01*
X81396932Y-57833500D01*
X81401332Y-57832944D01*
X81413164Y-57832012D01*
X81459331Y-57830562D01*
X81479921Y-57824580D01*
X81499282Y-57820570D01*
X81506916Y-57819606D01*
X81512704Y-57818875D01*
X81512705Y-57818875D01*
X81520564Y-57817882D01*
X81527929Y-57814966D01*
X81527933Y-57814965D01*
X81563521Y-57800874D01*
X81574731Y-57797035D01*
X81619100Y-57784145D01*
X81637565Y-57773225D01*
X81655305Y-57764534D01*
X81675256Y-57756635D01*
X81712629Y-57729482D01*
X81722548Y-57722967D01*
X81755477Y-57703493D01*
X81755481Y-57703490D01*
X81762307Y-57699453D01*
X81777471Y-57684289D01*
X81792505Y-57671448D01*
X81809857Y-57658841D01*
X81839303Y-57623247D01*
X81847292Y-57614468D01*
X82144355Y-57317405D01*
X82206667Y-57283379D01*
X82233450Y-57280500D01*
X82583072Y-57280500D01*
X82586318Y-57280163D01*
X82586322Y-57280163D01*
X82680235Y-57270419D01*
X82680239Y-57270418D01*
X82687093Y-57269707D01*
X82693629Y-57267526D01*
X82693631Y-57267526D01*
X82845159Y-57216972D01*
X82852107Y-57214654D01*
X83000031Y-57123116D01*
X83005204Y-57117934D01*
X83005209Y-57117930D01*
X83052527Y-57070529D01*
X83114809Y-57036449D01*
X83185629Y-57041452D01*
X83242502Y-57083949D01*
X83267371Y-57150447D01*
X83267700Y-57159546D01*
X83267700Y-58344806D01*
X83247698Y-58412927D01*
X83230795Y-58433901D01*
X81299747Y-60364948D01*
X81291461Y-60372488D01*
X81284982Y-60376600D01*
X81279557Y-60382377D01*
X81238357Y-60426251D01*
X81235602Y-60429093D01*
X81215865Y-60448830D01*
X81213385Y-60452027D01*
X81205682Y-60461047D01*
X81175414Y-60493279D01*
X81171595Y-60500225D01*
X81171593Y-60500228D01*
X81165652Y-60511034D01*
X81154801Y-60527553D01*
X81142386Y-60543559D01*
X81139241Y-60550828D01*
X81139238Y-60550832D01*
X81124826Y-60584137D01*
X81119609Y-60594787D01*
X81098305Y-60633540D01*
X81096334Y-60641215D01*
X81096334Y-60641216D01*
X81093267Y-60653162D01*
X81086863Y-60671866D01*
X81078819Y-60690455D01*
X81077580Y-60698278D01*
X81077577Y-60698288D01*
X81071901Y-60734124D01*
X81069495Y-60745744D01*
X81058500Y-60788570D01*
X81058500Y-60808824D01*
X81056949Y-60828534D01*
X81053780Y-60848543D01*
X81054526Y-60856435D01*
X81057941Y-60892561D01*
X81058500Y-60904419D01*
X81058500Y-82558533D01*
X81057973Y-82569716D01*
X81056298Y-82577209D01*
X81056547Y-82585135D01*
X81056547Y-82585136D01*
X81058438Y-82645286D01*
X81058500Y-82649245D01*
X81058500Y-82677156D01*
X81058997Y-82681090D01*
X81058997Y-82681091D01*
X81059005Y-82681156D01*
X81059938Y-82692993D01*
X81061327Y-82737189D01*
X81066978Y-82756639D01*
X81070987Y-82776000D01*
X81073526Y-82796097D01*
X81076445Y-82803468D01*
X81076445Y-82803470D01*
X81089804Y-82837212D01*
X81093649Y-82848442D01*
X81103771Y-82883283D01*
X81105982Y-82890893D01*
X81110015Y-82897712D01*
X81110017Y-82897717D01*
X81116293Y-82908328D01*
X81124988Y-82926076D01*
X81132448Y-82944917D01*
X81137110Y-82951333D01*
X81137110Y-82951334D01*
X81158436Y-82980687D01*
X81164952Y-82990607D01*
X81187458Y-83028662D01*
X81201779Y-83042983D01*
X81214619Y-83058016D01*
X81226528Y-83074407D01*
X81232634Y-83079458D01*
X81260605Y-83102598D01*
X81269384Y-83110588D01*
X85901043Y-87742247D01*
X85908587Y-87750537D01*
X85912700Y-87757018D01*
X85918477Y-87762443D01*
X85962367Y-87803658D01*
X85965209Y-87806413D01*
X85984930Y-87826134D01*
X85988125Y-87828612D01*
X85997147Y-87836318D01*
X86029379Y-87866586D01*
X86036328Y-87870406D01*
X86047132Y-87876346D01*
X86063656Y-87887199D01*
X86079659Y-87899613D01*
X86120243Y-87917176D01*
X86130873Y-87922383D01*
X86169640Y-87943695D01*
X86169641Y-87943695D01*
X86169114Y-87944654D01*
X86219272Y-87983787D01*
X86234899Y-88013039D01*
X86279385Y-88131705D01*
X86366739Y-88248261D01*
X86483295Y-88335615D01*
X86619684Y-88386745D01*
X86681866Y-88393500D01*
X88578134Y-88393500D01*
X88640316Y-88386745D01*
X88776705Y-88335615D01*
X88893261Y-88248261D01*
X88980615Y-88131705D01*
X89031745Y-87995316D01*
X89038500Y-87933134D01*
X89038500Y-86839500D01*
X89058502Y-86771379D01*
X89112158Y-86724886D01*
X89164500Y-86713500D01*
X90827233Y-86713500D01*
X90838416Y-86714027D01*
X90845909Y-86715702D01*
X90853835Y-86715453D01*
X90853836Y-86715453D01*
X90913986Y-86713562D01*
X90917945Y-86713500D01*
X90945856Y-86713500D01*
X90949791Y-86713003D01*
X90949856Y-86712995D01*
X90961693Y-86712062D01*
X90993951Y-86711048D01*
X90997970Y-86710922D01*
X91005889Y-86710673D01*
X91025343Y-86705021D01*
X91044700Y-86701013D01*
X91056930Y-86699468D01*
X91056931Y-86699468D01*
X91064797Y-86698474D01*
X91072168Y-86695555D01*
X91072170Y-86695555D01*
X91105912Y-86682196D01*
X91117142Y-86678351D01*
X91151983Y-86668229D01*
X91151984Y-86668229D01*
X91159593Y-86666018D01*
X91166412Y-86661985D01*
X91166417Y-86661983D01*
X91177028Y-86655707D01*
X91194776Y-86647012D01*
X91213617Y-86639552D01*
X91249387Y-86613564D01*
X91259307Y-86607048D01*
X91290535Y-86588580D01*
X91290538Y-86588578D01*
X91297362Y-86584542D01*
X91311683Y-86570221D01*
X91326717Y-86557380D01*
X91336694Y-86550131D01*
X91343107Y-86545472D01*
X91371298Y-86511395D01*
X91379288Y-86502616D01*
X93057647Y-84824257D01*
X93065937Y-84816713D01*
X93072418Y-84812600D01*
X93119059Y-84762932D01*
X93121813Y-84760091D01*
X93141534Y-84740370D01*
X93144012Y-84737175D01*
X93151718Y-84728153D01*
X93176558Y-84701701D01*
X93181986Y-84695921D01*
X93191746Y-84678168D01*
X93202599Y-84661645D01*
X93210153Y-84651906D01*
X93215013Y-84645641D01*
X93232576Y-84605057D01*
X93237783Y-84594427D01*
X93259095Y-84555660D01*
X93261066Y-84547983D01*
X93261068Y-84547978D01*
X93264132Y-84536042D01*
X93270538Y-84517330D01*
X93275434Y-84506017D01*
X93278581Y-84498745D01*
X93285497Y-84455081D01*
X93287904Y-84443460D01*
X93296928Y-84408311D01*
X93296928Y-84408310D01*
X93298900Y-84400630D01*
X93298900Y-84380369D01*
X93300451Y-84360658D01*
X93302379Y-84348485D01*
X93303619Y-84340657D01*
X93299459Y-84296646D01*
X93298900Y-84284789D01*
X93298900Y-78494167D01*
X93299427Y-78482984D01*
X93301102Y-78475491D01*
X93298962Y-78407414D01*
X93298900Y-78403455D01*
X93298900Y-78375544D01*
X93298395Y-78371544D01*
X93297462Y-78359701D01*
X93296322Y-78323429D01*
X93296073Y-78315510D01*
X93290422Y-78296058D01*
X93286414Y-78276706D01*
X93284867Y-78264463D01*
X93283874Y-78256603D01*
X93280956Y-78249232D01*
X93267600Y-78215497D01*
X93263755Y-78204270D01*
X93263121Y-78202087D01*
X93251418Y-78161807D01*
X93247384Y-78154985D01*
X93247381Y-78154979D01*
X93241106Y-78144368D01*
X93232410Y-78126618D01*
X93227872Y-78115156D01*
X93227869Y-78115151D01*
X93224952Y-78107783D01*
X93198973Y-78072025D01*
X93192457Y-78062107D01*
X93173975Y-78030857D01*
X93169942Y-78024037D01*
X93155618Y-78009713D01*
X93142776Y-77994678D01*
X93130872Y-77978293D01*
X93096806Y-77950111D01*
X93088027Y-77942122D01*
X92831299Y-77685394D01*
X92797273Y-77623082D01*
X92799836Y-77559672D01*
X92821408Y-77488671D01*
X92851640Y-77259041D01*
X92853327Y-77190000D01*
X92847032Y-77113434D01*
X92834773Y-76964318D01*
X92834772Y-76964312D01*
X92834349Y-76959167D01*
X92777925Y-76734533D01*
X92763771Y-76701981D01*
X92687630Y-76526868D01*
X92687628Y-76526865D01*
X92685570Y-76522131D01*
X92559764Y-76327665D01*
X92550057Y-76316997D01*
X92469848Y-76228848D01*
X92438796Y-76165002D01*
X92447192Y-76094504D01*
X92492369Y-76039736D01*
X92518812Y-76026067D01*
X92578297Y-76003767D01*
X92586705Y-76000615D01*
X92703261Y-75913261D01*
X92790615Y-75796705D01*
X92841745Y-75660316D01*
X92848500Y-75598134D01*
X92848500Y-73701866D01*
X92841745Y-73639684D01*
X92790615Y-73503295D01*
X92703261Y-73386739D01*
X92586705Y-73299385D01*
X92578296Y-73296233D01*
X92578295Y-73296232D01*
X92519804Y-73274305D01*
X92463039Y-73231664D01*
X92438339Y-73165103D01*
X92453546Y-73095754D01*
X92475093Y-73067073D01*
X92512636Y-73029660D01*
X92512640Y-73029655D01*
X92516303Y-73026005D01*
X92651458Y-72837917D01*
X92662009Y-72816570D01*
X92751784Y-72634922D01*
X92751785Y-72634920D01*
X92754078Y-72630280D01*
X92821408Y-72408671D01*
X92851640Y-72179041D01*
X92853327Y-72110000D01*
X92847032Y-72033434D01*
X92834773Y-71884318D01*
X92834772Y-71884312D01*
X92834349Y-71879167D01*
X92777925Y-71654533D01*
X92763771Y-71621981D01*
X92687630Y-71446868D01*
X92687628Y-71446865D01*
X92685570Y-71442131D01*
X92559764Y-71247665D01*
X92469848Y-71148848D01*
X92438796Y-71085002D01*
X92447192Y-71014504D01*
X92492369Y-70959736D01*
X92518812Y-70946067D01*
X92578297Y-70923767D01*
X92586705Y-70920615D01*
X92703261Y-70833261D01*
X92790615Y-70716705D01*
X92841745Y-70580316D01*
X92848500Y-70518134D01*
X92848500Y-68621866D01*
X92841745Y-68559684D01*
X92790615Y-68423295D01*
X92703261Y-68306739D01*
X92586705Y-68219385D01*
X92578296Y-68216233D01*
X92578295Y-68216232D01*
X92519804Y-68194305D01*
X92463039Y-68151664D01*
X92438339Y-68085103D01*
X92453546Y-68015754D01*
X92475093Y-67987073D01*
X92512636Y-67949660D01*
X92512640Y-67949655D01*
X92516303Y-67946005D01*
X92651458Y-67757917D01*
X92754078Y-67550280D01*
X92821408Y-67328671D01*
X92851640Y-67099041D01*
X92853327Y-67030000D01*
X92835635Y-66814805D01*
X92834773Y-66804318D01*
X92834772Y-66804312D01*
X92834349Y-66799167D01*
X92777925Y-66574533D01*
X92734562Y-66474804D01*
X92687630Y-66366868D01*
X92687628Y-66366865D01*
X92685570Y-66362131D01*
X92559764Y-66167665D01*
X92469848Y-66068848D01*
X92438796Y-66005002D01*
X92447192Y-65934504D01*
X92492369Y-65879736D01*
X92518812Y-65866067D01*
X92578297Y-65843767D01*
X92586705Y-65840615D01*
X92703261Y-65753261D01*
X92790615Y-65636705D01*
X92841745Y-65500316D01*
X92848500Y-65438134D01*
X92848500Y-63541866D01*
X92841745Y-63479684D01*
X92790615Y-63343295D01*
X92703261Y-63226739D01*
X92586705Y-63139385D01*
X92578296Y-63136233D01*
X92578295Y-63136232D01*
X92519804Y-63114305D01*
X92463039Y-63071664D01*
X92438339Y-63005103D01*
X92453546Y-62935754D01*
X92475093Y-62907073D01*
X92512636Y-62869660D01*
X92512640Y-62869655D01*
X92516303Y-62866005D01*
X92651458Y-62677917D01*
X92754078Y-62470280D01*
X92821408Y-62248671D01*
X92851640Y-62019041D01*
X92853327Y-61950000D01*
X92847032Y-61873434D01*
X92834773Y-61724318D01*
X92834772Y-61724312D01*
X92834349Y-61719167D01*
X92777925Y-61494533D01*
X92734562Y-61394804D01*
X92687630Y-61286868D01*
X92687628Y-61286865D01*
X92685570Y-61282131D01*
X92559764Y-61087665D01*
X92403887Y-60916358D01*
X92399836Y-60913159D01*
X92399832Y-60913155D01*
X92226177Y-60776011D01*
X92226172Y-60776008D01*
X92222123Y-60772810D01*
X92217607Y-60770317D01*
X92217604Y-60770315D01*
X92023879Y-60663373D01*
X92023875Y-60663371D01*
X92019355Y-60660876D01*
X92014486Y-60659152D01*
X92014482Y-60659150D01*
X91805903Y-60585288D01*
X91805899Y-60585287D01*
X91801028Y-60583562D01*
X91795935Y-60582655D01*
X91795932Y-60582654D01*
X91578095Y-60543851D01*
X91578089Y-60543850D01*
X91573006Y-60542945D01*
X91500096Y-60542054D01*
X91346581Y-60540179D01*
X91346579Y-60540179D01*
X91341411Y-60540116D01*
X91112464Y-60575150D01*
X91068288Y-60589589D01*
X91007745Y-60609377D01*
X90936781Y-60611528D01*
X90875919Y-60574972D01*
X90844483Y-60511314D01*
X90842600Y-60489612D01*
X90842600Y-57472894D01*
X90862602Y-57404773D01*
X90879505Y-57383799D01*
X90965047Y-57298257D01*
X90973337Y-57290713D01*
X90979818Y-57286600D01*
X90995682Y-57269707D01*
X91026458Y-57236933D01*
X91029213Y-57234091D01*
X91048934Y-57214370D01*
X91051412Y-57211175D01*
X91059118Y-57202153D01*
X91083958Y-57175701D01*
X91089386Y-57169921D01*
X91099146Y-57152168D01*
X91109999Y-57135645D01*
X91111156Y-57134153D01*
X91122413Y-57119641D01*
X91139976Y-57079057D01*
X91145183Y-57068427D01*
X91166495Y-57029660D01*
X91168466Y-57021983D01*
X91168468Y-57021978D01*
X91171532Y-57010042D01*
X91177938Y-56991330D01*
X91182834Y-56980017D01*
X91185981Y-56972745D01*
X91187298Y-56964434D01*
X91192897Y-56929081D01*
X91195304Y-56917460D01*
X91204328Y-56882311D01*
X91204328Y-56882310D01*
X91206300Y-56874630D01*
X91206300Y-56854369D01*
X91207851Y-56834658D01*
X91209491Y-56824307D01*
X91211019Y-56814657D01*
X91206859Y-56770646D01*
X91206300Y-56758789D01*
X91206300Y-56624494D01*
X91226302Y-56556373D01*
X91279958Y-56509880D01*
X91350232Y-56499776D01*
X91414812Y-56529270D01*
X91421395Y-56535399D01*
X92260243Y-57374247D01*
X92267787Y-57382537D01*
X92271900Y-57389018D01*
X92277677Y-57394443D01*
X92321567Y-57435658D01*
X92324409Y-57438413D01*
X92344131Y-57458135D01*
X92347273Y-57460572D01*
X92347333Y-57460619D01*
X92356345Y-57468317D01*
X92369778Y-57480931D01*
X92388579Y-57498586D01*
X92395522Y-57502403D01*
X92406331Y-57508345D01*
X92422853Y-57519198D01*
X92438859Y-57531614D01*
X92446137Y-57534764D01*
X92446138Y-57534764D01*
X92479437Y-57549174D01*
X92490087Y-57554391D01*
X92528840Y-57575695D01*
X92536515Y-57577666D01*
X92536516Y-57577666D01*
X92548462Y-57580733D01*
X92567167Y-57587137D01*
X92585755Y-57595181D01*
X92593578Y-57596420D01*
X92593588Y-57596423D01*
X92629424Y-57602099D01*
X92641044Y-57604505D01*
X92672859Y-57612673D01*
X92683870Y-57615500D01*
X92704124Y-57615500D01*
X92723834Y-57617051D01*
X92743843Y-57620220D01*
X92751735Y-57619474D01*
X92770480Y-57617702D01*
X92787862Y-57616059D01*
X92799719Y-57615500D01*
X94016233Y-57615500D01*
X94027416Y-57616027D01*
X94034909Y-57617702D01*
X94042835Y-57617453D01*
X94042836Y-57617453D01*
X94102986Y-57615562D01*
X94106945Y-57615500D01*
X94134856Y-57615500D01*
X94138791Y-57615003D01*
X94138856Y-57614995D01*
X94150693Y-57614062D01*
X94182951Y-57613048D01*
X94186970Y-57612922D01*
X94194889Y-57612673D01*
X94214343Y-57607021D01*
X94233700Y-57603013D01*
X94245930Y-57601468D01*
X94245931Y-57601468D01*
X94253797Y-57600474D01*
X94261168Y-57597555D01*
X94261170Y-57597555D01*
X94294912Y-57584196D01*
X94306142Y-57580351D01*
X94340983Y-57570229D01*
X94340984Y-57570229D01*
X94348593Y-57568018D01*
X94355412Y-57563985D01*
X94355417Y-57563983D01*
X94366028Y-57557707D01*
X94383776Y-57549012D01*
X94402617Y-57541552D01*
X94438387Y-57515564D01*
X94448307Y-57509048D01*
X94479535Y-57490580D01*
X94479538Y-57490578D01*
X94486362Y-57486542D01*
X94500683Y-57472221D01*
X94515717Y-57459380D01*
X94517431Y-57458135D01*
X94532107Y-57447472D01*
X94560298Y-57413395D01*
X94568288Y-57404616D01*
X94808999Y-57163905D01*
X94871311Y-57129879D01*
X94898094Y-57127000D01*
X95283072Y-57127000D01*
X95286318Y-57126663D01*
X95286322Y-57126663D01*
X95380235Y-57116919D01*
X95380239Y-57116918D01*
X95387093Y-57116207D01*
X95393629Y-57114026D01*
X95393631Y-57114026D01*
X95545159Y-57063472D01*
X95552107Y-57061154D01*
X95700031Y-56969616D01*
X95705204Y-56964434D01*
X95817758Y-56851684D01*
X95817762Y-56851679D01*
X95822929Y-56846503D01*
X95826770Y-56840272D01*
X95910369Y-56704650D01*
X95910370Y-56704648D01*
X95914209Y-56698420D01*
X95968974Y-56533309D01*
X95971375Y-56509880D01*
X95979172Y-56433771D01*
X95979500Y-56430572D01*
X95979500Y-55731428D01*
X95978871Y-55725361D01*
X95969419Y-55634265D01*
X95969418Y-55634261D01*
X95968707Y-55627407D01*
X95913654Y-55462393D01*
X95874136Y-55398532D01*
X95825969Y-55320695D01*
X95825968Y-55320694D01*
X95822116Y-55314469D01*
X95815212Y-55307577D01*
X95814411Y-55306113D01*
X95812389Y-55303562D01*
X95812826Y-55303216D01*
X95781134Y-55245296D01*
X95786137Y-55174476D01*
X95815056Y-55129390D01*
X95817757Y-55126684D01*
X95822929Y-55121503D01*
X95827238Y-55114513D01*
X95910369Y-54979650D01*
X95910370Y-54979648D01*
X95914209Y-54973420D01*
X95968974Y-54808309D01*
X95979500Y-54705572D01*
X95979500Y-54006428D01*
X95979163Y-54003178D01*
X95969419Y-53909265D01*
X95969418Y-53909261D01*
X95968707Y-53902407D01*
X95964704Y-53890407D01*
X95915972Y-53744341D01*
X95913654Y-53737393D01*
X95822116Y-53589469D01*
X95701329Y-53468893D01*
X95667250Y-53406611D01*
X95672253Y-53335791D01*
X95714750Y-53278918D01*
X95724044Y-53272576D01*
X95753303Y-53254470D01*
X95759531Y-53250616D01*
X95780293Y-53229818D01*
X95877258Y-53132684D01*
X95877262Y-53132679D01*
X95882429Y-53127503D01*
X95922045Y-53063234D01*
X95969869Y-52985650D01*
X95969870Y-52985648D01*
X95973709Y-52979420D01*
X96028474Y-52814309D01*
X96032592Y-52774121D01*
X96038672Y-52714771D01*
X96039000Y-52711572D01*
X96039000Y-52137428D01*
X96028207Y-52033407D01*
X96020385Y-52009960D01*
X95975472Y-51875341D01*
X95973154Y-51868393D01*
X95881616Y-51720469D01*
X95846462Y-51685376D01*
X95763684Y-51602742D01*
X95763679Y-51602738D01*
X95758503Y-51597571D01*
X95697317Y-51559855D01*
X95616650Y-51510131D01*
X95616648Y-51510130D01*
X95610420Y-51506291D01*
X95445309Y-51451526D01*
X95438473Y-51450826D01*
X95438470Y-51450825D01*
X95386974Y-51445549D01*
X95342572Y-51441000D01*
X95007595Y-51441000D01*
X94939474Y-51420998D01*
X94918500Y-51404095D01*
X94746652Y-51232247D01*
X94739112Y-51223961D01*
X94735000Y-51217482D01*
X94685348Y-51170856D01*
X94682507Y-51168102D01*
X94662770Y-51148365D01*
X94659573Y-51145885D01*
X94650551Y-51138180D01*
X94624100Y-51113341D01*
X94618321Y-51107914D01*
X94611375Y-51104095D01*
X94611372Y-51104093D01*
X94600566Y-51098152D01*
X94584047Y-51087301D01*
X94583583Y-51086941D01*
X94568041Y-51074886D01*
X94560772Y-51071741D01*
X94560768Y-51071738D01*
X94527463Y-51057326D01*
X94516813Y-51052109D01*
X94478060Y-51030805D01*
X94458437Y-51025767D01*
X94439734Y-51019363D01*
X94428420Y-51014467D01*
X94428419Y-51014467D01*
X94421145Y-51011319D01*
X94413322Y-51010080D01*
X94413312Y-51010077D01*
X94377476Y-51004401D01*
X94365856Y-51001995D01*
X94330711Y-50992972D01*
X94330710Y-50992972D01*
X94323030Y-50991000D01*
X94302776Y-50991000D01*
X94283065Y-50989449D01*
X94270886Y-50987520D01*
X94263057Y-50986280D01*
X94255165Y-50987026D01*
X94219039Y-50990441D01*
X94207181Y-50991000D01*
X92579095Y-50991000D01*
X92510974Y-50970998D01*
X92489999Y-50954095D01*
X92438404Y-50902499D01*
X92404379Y-50840186D01*
X92401500Y-50813404D01*
X92401500Y-50535272D01*
X92402027Y-50524089D01*
X92403702Y-50516596D01*
X92403153Y-50499110D01*
X92401562Y-50448506D01*
X92401500Y-50444548D01*
X92401500Y-50416649D01*
X92400996Y-50412658D01*
X92400063Y-50400816D01*
X92398923Y-50364541D01*
X92398674Y-50356616D01*
X92396462Y-50349002D01*
X92396461Y-50348997D01*
X92393023Y-50337164D01*
X92389012Y-50317800D01*
X92387467Y-50305569D01*
X92386474Y-50297708D01*
X92383557Y-50290341D01*
X92383556Y-50290336D01*
X92370198Y-50256597D01*
X92366354Y-50245370D01*
X92356230Y-50210527D01*
X92354018Y-50202912D01*
X92343707Y-50185477D01*
X92335012Y-50167729D01*
X92327552Y-50148888D01*
X92301564Y-50113118D01*
X92295048Y-50103198D01*
X92276578Y-50071968D01*
X92272542Y-50065143D01*
X92266936Y-50059536D01*
X92258220Y-50050820D01*
X92245379Y-50035786D01*
X92238131Y-50025810D01*
X92238130Y-50025809D01*
X92233472Y-50019398D01*
X92199407Y-49991217D01*
X92190626Y-49983227D01*
X91927279Y-49719879D01*
X91893254Y-49657567D01*
X91898319Y-49586751D01*
X91940866Y-49529916D01*
X91960942Y-49517633D01*
X92051516Y-49473261D01*
X92137994Y-49430896D01*
X92319860Y-49301173D01*
X92478096Y-49143489D01*
X92608453Y-48962077D01*
X92609776Y-48963028D01*
X92656645Y-48919857D01*
X92726580Y-48907625D01*
X92792026Y-48935144D01*
X92819875Y-48966994D01*
X92879987Y-49065088D01*
X93026250Y-49233938D01*
X93198126Y-49376632D01*
X93391000Y-49489338D01*
X93599692Y-49569030D01*
X93604760Y-49570061D01*
X93604763Y-49570062D01*
X93686793Y-49586751D01*
X93818597Y-49613567D01*
X93823772Y-49613757D01*
X93823774Y-49613757D01*
X94036673Y-49621564D01*
X94036677Y-49621564D01*
X94041837Y-49621753D01*
X94046957Y-49621097D01*
X94046959Y-49621097D01*
X94258288Y-49594025D01*
X94258289Y-49594025D01*
X94263416Y-49593368D01*
X94268366Y-49591883D01*
X94472429Y-49530661D01*
X94472434Y-49530659D01*
X94477384Y-49529174D01*
X94677994Y-49430896D01*
X94859860Y-49301173D01*
X95018096Y-49143489D01*
X95148453Y-48962077D01*
X95161995Y-48934678D01*
X95245136Y-48766453D01*
X95245137Y-48766451D01*
X95247430Y-48761811D01*
X95312370Y-48548069D01*
X95341529Y-48326590D01*
X95343156Y-48260000D01*
X95324852Y-48037361D01*
X95270431Y-47820702D01*
X95181354Y-47615840D01*
X95060014Y-47428277D01*
X94909670Y-47263051D01*
X94905619Y-47259852D01*
X94905615Y-47259848D01*
X94738414Y-47127800D01*
X94738410Y-47127798D01*
X94734359Y-47124598D01*
X94693053Y-47101796D01*
X94643084Y-47051364D01*
X94628312Y-46981921D01*
X94653428Y-46915516D01*
X94680780Y-46888909D01*
X94724603Y-46857650D01*
X94859860Y-46761173D01*
X95018096Y-46603489D01*
X95077594Y-46520689D01*
X95145435Y-46426277D01*
X95148453Y-46422077D01*
X95161995Y-46394678D01*
X95245136Y-46226453D01*
X95245137Y-46226451D01*
X95247430Y-46221811D01*
X95312370Y-46008069D01*
X95341529Y-45786590D01*
X95343156Y-45720000D01*
X95324852Y-45497361D01*
X95270431Y-45280702D01*
X95181354Y-45075840D01*
X95060014Y-44888277D01*
X94909670Y-44723051D01*
X94905619Y-44719852D01*
X94905615Y-44719848D01*
X94738414Y-44587800D01*
X94738410Y-44587798D01*
X94734359Y-44584598D01*
X94698028Y-44564542D01*
X94682136Y-44555769D01*
X94538789Y-44476638D01*
X94533920Y-44474914D01*
X94533916Y-44474912D01*
X94333087Y-44403795D01*
X94333083Y-44403794D01*
X94328212Y-44402069D01*
X94323119Y-44401162D01*
X94323116Y-44401161D01*
X94113373Y-44363800D01*
X94113367Y-44363799D01*
X94108284Y-44362894D01*
X94034452Y-44361992D01*
X93890081Y-44360228D01*
X93890079Y-44360228D01*
X93884911Y-44360165D01*
X93664091Y-44393955D01*
X93451756Y-44463357D01*
X93253607Y-44566507D01*
X93249474Y-44569610D01*
X93249471Y-44569612D01*
X93084778Y-44693267D01*
X93074965Y-44700635D01*
X92920629Y-44862138D01*
X92813201Y-45019621D01*
X92758293Y-45064621D01*
X92687768Y-45072792D01*
X92624021Y-45041538D01*
X92603324Y-45017054D01*
X92522822Y-44892617D01*
X92522820Y-44892614D01*
X92520014Y-44888277D01*
X92369670Y-44723051D01*
X92365619Y-44719852D01*
X92365615Y-44719848D01*
X92198414Y-44587800D01*
X92198410Y-44587798D01*
X92194359Y-44584598D01*
X92158028Y-44564542D01*
X92142136Y-44555769D01*
X91998789Y-44476638D01*
X91993920Y-44474914D01*
X91993916Y-44474912D01*
X91793087Y-44403795D01*
X91793083Y-44403794D01*
X91788212Y-44402069D01*
X91783119Y-44401162D01*
X91783116Y-44401161D01*
X91573373Y-44363800D01*
X91573367Y-44363799D01*
X91568284Y-44362894D01*
X91494452Y-44361992D01*
X91350081Y-44360228D01*
X91350079Y-44360228D01*
X91344911Y-44360165D01*
X91124091Y-44393955D01*
X90911756Y-44463357D01*
X90713607Y-44566507D01*
X90709474Y-44569610D01*
X90709471Y-44569612D01*
X90577950Y-44668361D01*
X90511465Y-44693267D01*
X90442070Y-44678275D01*
X90413202Y-44656696D01*
X89908948Y-44152442D01*
X89901413Y-44144162D01*
X89897300Y-44137682D01*
X89847648Y-44091056D01*
X89844807Y-44088302D01*
X89825070Y-44068565D01*
X89821873Y-44066085D01*
X89812851Y-44058380D01*
X89799422Y-44045769D01*
X89780621Y-44028114D01*
X89773675Y-44024295D01*
X89773672Y-44024293D01*
X89762866Y-44018352D01*
X89746347Y-44007501D01*
X89745883Y-44007141D01*
X89730341Y-43995086D01*
X89723072Y-43991941D01*
X89723068Y-43991938D01*
X89689763Y-43977526D01*
X89679113Y-43972309D01*
X89640360Y-43951005D01*
X89620737Y-43945967D01*
X89602034Y-43939563D01*
X89590720Y-43934667D01*
X89590719Y-43934667D01*
X89583445Y-43931519D01*
X89575622Y-43930280D01*
X89575612Y-43930277D01*
X89539776Y-43924601D01*
X89528156Y-43922195D01*
X89493011Y-43913172D01*
X89493010Y-43913172D01*
X89485330Y-43911200D01*
X89465076Y-43911200D01*
X89445365Y-43909649D01*
X89433186Y-43907720D01*
X89425357Y-43906480D01*
X89396086Y-43909247D01*
X89381339Y-43910641D01*
X89369481Y-43911200D01*
X88421967Y-43911200D01*
X88410784Y-43910673D01*
X88403291Y-43908998D01*
X88395365Y-43909247D01*
X88395364Y-43909247D01*
X88335214Y-43911138D01*
X88331255Y-43911200D01*
X88303344Y-43911200D01*
X88299410Y-43911697D01*
X88299409Y-43911697D01*
X88299344Y-43911705D01*
X88287507Y-43912638D01*
X88255690Y-43913638D01*
X88251229Y-43913778D01*
X88243310Y-43914027D01*
X88225654Y-43919156D01*
X88223858Y-43919678D01*
X88204506Y-43923686D01*
X88197435Y-43924580D01*
X88184403Y-43926226D01*
X88177034Y-43929143D01*
X88177032Y-43929144D01*
X88143297Y-43942500D01*
X88132069Y-43946345D01*
X88089607Y-43958682D01*
X88082784Y-43962717D01*
X88082782Y-43962718D01*
X88072172Y-43968993D01*
X88054424Y-43977688D01*
X88035583Y-43985148D01*
X88029167Y-43989810D01*
X88029166Y-43989810D01*
X87999813Y-44011136D01*
X87989893Y-44017652D01*
X87958665Y-44036120D01*
X87958662Y-44036122D01*
X87951838Y-44040158D01*
X87937517Y-44054479D01*
X87922484Y-44067319D01*
X87906093Y-44079228D01*
X87901042Y-44085333D01*
X87901037Y-44085338D01*
X87877901Y-44113304D01*
X87869913Y-44122082D01*
X87357332Y-44634663D01*
X87295020Y-44668689D01*
X87224205Y-44663624D01*
X87190145Y-44644450D01*
X87118414Y-44587800D01*
X87118410Y-44587798D01*
X87114359Y-44584598D01*
X87078028Y-44564542D01*
X87062136Y-44555769D01*
X86918789Y-44476638D01*
X86913920Y-44474914D01*
X86913916Y-44474912D01*
X86713087Y-44403795D01*
X86713083Y-44403794D01*
X86708212Y-44402069D01*
X86703119Y-44401162D01*
X86703116Y-44401161D01*
X86493373Y-44363800D01*
X86493367Y-44363799D01*
X86488284Y-44362894D01*
X86414452Y-44361992D01*
X86270081Y-44360228D01*
X86270079Y-44360228D01*
X86264911Y-44360165D01*
X86044091Y-44393955D01*
X85831756Y-44463357D01*
X85633607Y-44566507D01*
X85629474Y-44569610D01*
X85629471Y-44569612D01*
X85464778Y-44693267D01*
X85454965Y-44700635D01*
X85300629Y-44862138D01*
X85193204Y-45019618D01*
X85192898Y-45020066D01*
X85137987Y-45065069D01*
X85067462Y-45073240D01*
X85003715Y-45041986D01*
X84983018Y-45017502D01*
X84902426Y-44892926D01*
X84896136Y-44884757D01*
X84752806Y-44727240D01*
X84745273Y-44720215D01*
X84578139Y-44588222D01*
X84569552Y-44582517D01*
X84383117Y-44479599D01*
X84373705Y-44475369D01*
X84172959Y-44404280D01*
X84162988Y-44401646D01*
X84091837Y-44388972D01*
X84078540Y-44390432D01*
X84074000Y-44404989D01*
X84074000Y-49578517D01*
X84078064Y-49592359D01*
X84091478Y-49594393D01*
X84098184Y-49593534D01*
X84108262Y-49591392D01*
X84312255Y-49530191D01*
X84321842Y-49526433D01*
X84513095Y-49432739D01*
X84521945Y-49427464D01*
X84695328Y-49303792D01*
X84703200Y-49297139D01*
X84854052Y-49146812D01*
X84860730Y-49138965D01*
X84988022Y-48961819D01*
X84989279Y-48962722D01*
X85036373Y-48919362D01*
X85106311Y-48907145D01*
X85171751Y-48934678D01*
X85199579Y-48966511D01*
X85259987Y-49065088D01*
X85406250Y-49233938D01*
X85578126Y-49376632D01*
X85771000Y-49489338D01*
X85979692Y-49569030D01*
X85984760Y-49570061D01*
X85984763Y-49570062D01*
X86066793Y-49586751D01*
X86198597Y-49613567D01*
X86203772Y-49613757D01*
X86203774Y-49613757D01*
X86416673Y-49621564D01*
X86416677Y-49621564D01*
X86421837Y-49621753D01*
X86426957Y-49621097D01*
X86426959Y-49621097D01*
X86638288Y-49594025D01*
X86638289Y-49594025D01*
X86643416Y-49593368D01*
X86648366Y-49591883D01*
X86852429Y-49530661D01*
X86852434Y-49530659D01*
X86857384Y-49529174D01*
X87057994Y-49430896D01*
X87062199Y-49427896D01*
X87062205Y-49427893D01*
X87217996Y-49316768D01*
X87236901Y-49303284D01*
X87303973Y-49280011D01*
X87372982Y-49296694D01*
X87399163Y-49316768D01*
X87762600Y-49680205D01*
X87796626Y-49742517D01*
X87791561Y-49813332D01*
X87749014Y-49870168D01*
X87682494Y-49894979D01*
X87675339Y-49895234D01*
X87674711Y-49895300D01*
X87668113Y-49895300D01*
X87661661Y-49896672D01*
X87661656Y-49896672D01*
X87574713Y-49915153D01*
X87481312Y-49935006D01*
X87475282Y-49937691D01*
X87475281Y-49937691D01*
X87312878Y-50009997D01*
X87312876Y-50009998D01*
X87306848Y-50012682D01*
X87152347Y-50124934D01*
X87147926Y-50129844D01*
X87147925Y-50129845D01*
X87088282Y-50196086D01*
X87024560Y-50266856D01*
X86989467Y-50327639D01*
X86937863Y-50417020D01*
X86929073Y-50432244D01*
X86870058Y-50613872D01*
X86869368Y-50620433D01*
X86869368Y-50620435D01*
X86865026Y-50661747D01*
X86850096Y-50803800D01*
X86850786Y-50810365D01*
X86869354Y-50987026D01*
X86870058Y-50993728D01*
X86929073Y-51175356D01*
X86932376Y-51181078D01*
X86932377Y-51181079D01*
X86983619Y-51269832D01*
X87000500Y-51332832D01*
X87000500Y-51344356D01*
X86980498Y-51412477D01*
X86926842Y-51458970D01*
X86856568Y-51469074D01*
X86791988Y-51439580D01*
X86785422Y-51433467D01*
X86013691Y-50661736D01*
X86006162Y-50653462D01*
X86002050Y-50646982D01*
X85952398Y-50600356D01*
X85949557Y-50597602D01*
X85929820Y-50577865D01*
X85926623Y-50575385D01*
X85917601Y-50567680D01*
X85913448Y-50563780D01*
X85885371Y-50537414D01*
X85878425Y-50533595D01*
X85878422Y-50533593D01*
X85867616Y-50527652D01*
X85851097Y-50516801D01*
X85850633Y-50516441D01*
X85835091Y-50504386D01*
X85827822Y-50501241D01*
X85827818Y-50501238D01*
X85794513Y-50486826D01*
X85783863Y-50481609D01*
X85745110Y-50460305D01*
X85725487Y-50455267D01*
X85706784Y-50448863D01*
X85695470Y-50443967D01*
X85695469Y-50443967D01*
X85688195Y-50440819D01*
X85680372Y-50439580D01*
X85680362Y-50439577D01*
X85644526Y-50433901D01*
X85632906Y-50431495D01*
X85597761Y-50422472D01*
X85597760Y-50422472D01*
X85590080Y-50420500D01*
X85569826Y-50420500D01*
X85550115Y-50418949D01*
X85537936Y-50417020D01*
X85530107Y-50415780D01*
X85500836Y-50418547D01*
X85486089Y-50419941D01*
X85474231Y-50420500D01*
X82120767Y-50420500D01*
X82109584Y-50419973D01*
X82102091Y-50418298D01*
X82094165Y-50418547D01*
X82094164Y-50418547D01*
X82034014Y-50420438D01*
X82030055Y-50420500D01*
X82002144Y-50420500D01*
X81998210Y-50420997D01*
X81998209Y-50420997D01*
X81998144Y-50421005D01*
X81986307Y-50421938D01*
X81954490Y-50422938D01*
X81950029Y-50423078D01*
X81942110Y-50423327D01*
X81931116Y-50426521D01*
X81922658Y-50428978D01*
X81903306Y-50432986D01*
X81896235Y-50433880D01*
X81883203Y-50435526D01*
X81875834Y-50438443D01*
X81875832Y-50438444D01*
X81842097Y-50451800D01*
X81830869Y-50455645D01*
X81788407Y-50467982D01*
X81781584Y-50472017D01*
X81781582Y-50472018D01*
X81770972Y-50478293D01*
X81753224Y-50486988D01*
X81734383Y-50494448D01*
X81727967Y-50499110D01*
X81727966Y-50499110D01*
X81698613Y-50520436D01*
X81688692Y-50526952D01*
X81650638Y-50549458D01*
X81645031Y-50555064D01*
X81636315Y-50563780D01*
X81621282Y-50576620D01*
X81604893Y-50588528D01*
X81599841Y-50594635D01*
X81576712Y-50622593D01*
X81568722Y-50631374D01*
X81358742Y-50841353D01*
X81350463Y-50848887D01*
X81343982Y-50853000D01*
X81332155Y-50865595D01*
X81297356Y-50902652D01*
X81294601Y-50905494D01*
X81274865Y-50925230D01*
X81272385Y-50928427D01*
X81264682Y-50937447D01*
X81234414Y-50969679D01*
X81230607Y-50976603D01*
X81217792Y-50991608D01*
X80991247Y-51218153D01*
X80982961Y-51225693D01*
X80976482Y-51229805D01*
X80971057Y-51235582D01*
X80929857Y-51279456D01*
X80927102Y-51282298D01*
X80907365Y-51302035D01*
X80904885Y-51305232D01*
X80897182Y-51314252D01*
X80866914Y-51346484D01*
X80863095Y-51353430D01*
X80863093Y-51353433D01*
X80857152Y-51364239D01*
X80846301Y-51380758D01*
X80833886Y-51396764D01*
X80830741Y-51404033D01*
X80830738Y-51404037D01*
X80816326Y-51437342D01*
X80811109Y-51447992D01*
X80789805Y-51486745D01*
X80784787Y-51506291D01*
X80784767Y-51506367D01*
X80778363Y-51525072D01*
X80772119Y-51539501D01*
X80751707Y-51571972D01*
X80726671Y-51600865D01*
X80725000Y-51608548D01*
X80725000Y-52706000D01*
X80704998Y-52774121D01*
X80651342Y-52820614D01*
X80599000Y-52832000D01*
X80343000Y-52832000D01*
X80274879Y-52811998D01*
X80228386Y-52758342D01*
X80217000Y-52706000D01*
X80217000Y-51613115D01*
X80207121Y-51579469D01*
X80188640Y-51550712D01*
X80188640Y-51479715D01*
X80220441Y-51426119D01*
X81687605Y-49958955D01*
X81696385Y-49950965D01*
X81696387Y-49950963D01*
X81703080Y-49946716D01*
X81714077Y-49935006D01*
X81751604Y-49895043D01*
X81754359Y-49892201D01*
X81774927Y-49871633D01*
X81777647Y-49868126D01*
X81785353Y-49859104D01*
X81811544Y-49831213D01*
X81816972Y-49825433D01*
X81820794Y-49818481D01*
X81827303Y-49806642D01*
X81838157Y-49790118D01*
X81846443Y-49779435D01*
X81846444Y-49779434D01*
X81851304Y-49773168D01*
X81869654Y-49730764D01*
X81874877Y-49720104D01*
X81894836Y-49683799D01*
X81945181Y-49633740D01*
X82005250Y-49618500D01*
X82178134Y-49618500D01*
X82240316Y-49611745D01*
X82376705Y-49560615D01*
X82493261Y-49473261D01*
X82580615Y-49356705D01*
X82603112Y-49296694D01*
X82624798Y-49238848D01*
X82667440Y-49182084D01*
X82734001Y-49157384D01*
X82803350Y-49172592D01*
X82838017Y-49200580D01*
X82863218Y-49229673D01*
X82870580Y-49236883D01*
X83034434Y-49372916D01*
X83042881Y-49378831D01*
X83226756Y-49486279D01*
X83236042Y-49490729D01*
X83435001Y-49566703D01*
X83444899Y-49569579D01*
X83548250Y-49590606D01*
X83562299Y-49589410D01*
X83566000Y-49579065D01*
X83566000Y-44403102D01*
X83562082Y-44389758D01*
X83547806Y-44387771D01*
X83509324Y-44393660D01*
X83499288Y-44396051D01*
X83296868Y-44462212D01*
X83287359Y-44466209D01*
X83098463Y-44564542D01*
X83089738Y-44570036D01*
X82919433Y-44697905D01*
X82911726Y-44704748D01*
X82764590Y-44858717D01*
X82758109Y-44866722D01*
X82653498Y-45020074D01*
X82598587Y-45065076D01*
X82528062Y-45073247D01*
X82464315Y-45041993D01*
X82443618Y-45017509D01*
X82362822Y-44892617D01*
X82362820Y-44892614D01*
X82360014Y-44888277D01*
X82209670Y-44723051D01*
X82205619Y-44719852D01*
X82205615Y-44719848D01*
X82038414Y-44587800D01*
X82038410Y-44587798D01*
X82034359Y-44584598D01*
X81998028Y-44564542D01*
X81982136Y-44555769D01*
X81838789Y-44476638D01*
X81833920Y-44474914D01*
X81833916Y-44474912D01*
X81633087Y-44403795D01*
X81633083Y-44403794D01*
X81628212Y-44402069D01*
X81623119Y-44401162D01*
X81623116Y-44401161D01*
X81413373Y-44363800D01*
X81413367Y-44363799D01*
X81408284Y-44362894D01*
X81334452Y-44361992D01*
X81190081Y-44360228D01*
X81190079Y-44360228D01*
X81184911Y-44360165D01*
X80964091Y-44393955D01*
X80751756Y-44463357D01*
X80553607Y-44566507D01*
X80549474Y-44569610D01*
X80549471Y-44569612D01*
X80384778Y-44693267D01*
X80374965Y-44700635D01*
X80220629Y-44862138D01*
X80094743Y-45046680D01*
X80000688Y-45249305D01*
X79940989Y-45464570D01*
X79917251Y-45686695D01*
X79917548Y-45691848D01*
X79917548Y-45691851D01*
X79923011Y-45786590D01*
X79930110Y-45909715D01*
X79931247Y-45914761D01*
X79931248Y-45914767D01*
X79951119Y-46002939D01*
X79979222Y-46127639D01*
X80063266Y-46334616D01*
X80114019Y-46417438D01*
X80177291Y-46520688D01*
X80179987Y-46525088D01*
X80326250Y-46693938D01*
X80330230Y-46697242D01*
X80334981Y-46701187D01*
X80374616Y-46760090D01*
X80376113Y-46831071D01*
X80338997Y-46891593D01*
X80298725Y-46916112D01*
X80258638Y-46931140D01*
X80183295Y-46959385D01*
X80066739Y-47046739D01*
X79979385Y-47163295D01*
X79928255Y-47299684D01*
X79921500Y-47361866D01*
X79921500Y-49158134D01*
X79928255Y-49220316D01*
X79979385Y-49356705D01*
X80066739Y-49473261D01*
X80089942Y-49490651D01*
X80132455Y-49547508D01*
X80137481Y-49618326D01*
X80103470Y-49680570D01*
X78570495Y-51213545D01*
X78561715Y-51221535D01*
X78561713Y-51221537D01*
X78555020Y-51225784D01*
X78549594Y-51231562D01*
X78549593Y-51231563D01*
X78506496Y-51277457D01*
X78503741Y-51280299D01*
X78483173Y-51300867D01*
X78480456Y-51304370D01*
X78472748Y-51313395D01*
X78441128Y-51347067D01*
X78437307Y-51354018D01*
X78437306Y-51354019D01*
X78430797Y-51365858D01*
X78419943Y-51382382D01*
X78413644Y-51390504D01*
X78406796Y-51399332D01*
X78403649Y-51406604D01*
X78403648Y-51406606D01*
X78388446Y-51441735D01*
X78383224Y-51452395D01*
X78382512Y-51453691D01*
X78360976Y-51492863D01*
X78355641Y-51513641D01*
X78349242Y-51532331D01*
X78340720Y-51552024D01*
X78339480Y-51559855D01*
X78333494Y-51597648D01*
X78331087Y-51609271D01*
X78319600Y-51654012D01*
X78319600Y-51675459D01*
X78318049Y-51695169D01*
X78314694Y-51716352D01*
X77978500Y-51716352D01*
X77978500Y-42544500D01*
X77998502Y-42476379D01*
X78052158Y-42429886D01*
X78104500Y-42418500D01*
X97155500Y-42418500D01*
X97223621Y-42438502D01*
G37*
G04 #@! TD.AperFunction*
G04 #@! TA.AperFunction,Conductor*
G36*
X84936526Y-52370502D02*
G01*
X84957501Y-52387405D01*
X85585047Y-53014952D01*
X85619072Y-53077264D01*
X85614007Y-53148080D01*
X85571460Y-53204915D01*
X85503537Y-53229818D01*
X85492965Y-53230456D01*
X85420649Y-53239207D01*
X85405078Y-53243161D01*
X85289203Y-53289039D01*
X85274364Y-53297400D01*
X85175486Y-53372454D01*
X85163454Y-53384486D01*
X85088400Y-53483364D01*
X85080039Y-53498203D01*
X85036972Y-53606978D01*
X84993298Y-53662952D01*
X84926295Y-53686429D01*
X84857236Y-53669953D01*
X84812677Y-53626899D01*
X84773116Y-53562969D01*
X84765861Y-53555726D01*
X84764895Y-53553962D01*
X84763387Y-53552059D01*
X84763713Y-53551801D01*
X84731781Y-53493446D01*
X84736782Y-53422625D01*
X84765708Y-53377530D01*
X84768364Y-53374869D01*
X84777375Y-53363460D01*
X84860912Y-53227937D01*
X84867056Y-53214759D01*
X84917315Y-53063234D01*
X84920181Y-53049868D01*
X84929672Y-52957230D01*
X84930000Y-52950815D01*
X84930000Y-52876615D01*
X84925525Y-52861376D01*
X84924135Y-52860171D01*
X84916452Y-52858500D01*
X83819000Y-52858500D01*
X83750879Y-52838498D01*
X83704386Y-52784842D01*
X83693000Y-52732500D01*
X83693000Y-52476500D01*
X83713002Y-52408379D01*
X83766658Y-52361886D01*
X83819000Y-52350500D01*
X84868405Y-52350500D01*
X84936526Y-52370502D01*
G37*
G04 #@! TD.AperFunction*
M02*
