G04 #@! TF.GenerationSoftware,KiCad,Pcbnew,6.0.9-8da3e8f707~116~ubuntu20.04.1*
G04 #@! TF.CreationDate,2023-03-08T17:55:06+01:00*
G04 #@! TF.ProjectId,led_drv_pmod,6c65645f-6472-4765-9f70-6d6f642e6b69,rev?*
G04 #@! TF.SameCoordinates,Original*
G04 #@! TF.FileFunction,Copper,L2,Bot*
G04 #@! TF.FilePolarity,Positive*
%FSLAX46Y46*%
G04 Gerber Fmt 4.6, Leading zero omitted, Abs format (unit mm)*
G04 Created by KiCad (PCBNEW 6.0.9-8da3e8f707~116~ubuntu20.04.1) date 2023-03-08 17:55:06*
%MOMM*%
%LPD*%
G01*
G04 APERTURE LIST*
G04 #@! TA.AperFunction,ComponentPad*
%ADD10R,1.700000X1.700000*%
G04 #@! TD*
G04 #@! TA.AperFunction,ComponentPad*
%ADD11O,1.700000X1.700000*%
G04 #@! TD*
G04 #@! TA.AperFunction,ComponentPad*
%ADD12R,1.800000X1.800000*%
G04 #@! TD*
G04 #@! TA.AperFunction,ComponentPad*
%ADD13C,1.800000*%
G04 #@! TD*
G04 #@! TA.AperFunction,ComponentPad*
%ADD14R,1.800000X1.070000*%
G04 #@! TD*
G04 #@! TA.AperFunction,ComponentPad*
%ADD15O,1.800000X1.070000*%
G04 #@! TD*
G04 #@! TA.AperFunction,ViaPad*
%ADD16C,0.800000*%
G04 #@! TD*
G04 #@! TA.AperFunction,Conductor*
%ADD17C,0.250000*%
G04 #@! TD*
G04 APERTURE END LIST*
D10*
X81280000Y-48260000D03*
D11*
X81280000Y-45720000D03*
X83820000Y-48260000D03*
X83820000Y-45720000D03*
X86360000Y-48260000D03*
X86360000Y-45720000D03*
X88900000Y-48260000D03*
X88900000Y-45720000D03*
X91440000Y-48260000D03*
X91440000Y-45720000D03*
X93980000Y-48260000D03*
X93980000Y-45720000D03*
D12*
X91440000Y-79730000D03*
D13*
X91440000Y-77190000D03*
D12*
X83820000Y-64490000D03*
D13*
X83820000Y-61950000D03*
D12*
X83820000Y-69570000D03*
D13*
X83820000Y-67030000D03*
D12*
X91440000Y-74650000D03*
D13*
X91440000Y-72110000D03*
D12*
X83820000Y-74650000D03*
D13*
X83820000Y-72110000D03*
D12*
X83820000Y-79730000D03*
D13*
X83820000Y-77190000D03*
D12*
X91440000Y-69570000D03*
D13*
X91440000Y-67030000D03*
D12*
X91440000Y-64490000D03*
D13*
X91440000Y-61950000D03*
D14*
X87630000Y-87350000D03*
D15*
X87630000Y-86080000D03*
X87630000Y-84810000D03*
X87630000Y-83540000D03*
D16*
X84988400Y-53238400D03*
X90957400Y-52425600D03*
X87884000Y-55118000D03*
X83820000Y-43180000D03*
X91440000Y-43180000D03*
X83496900Y-55429900D03*
X87763600Y-50803800D03*
D17*
X90957400Y-52425600D02*
X88359700Y-52425600D01*
X84345600Y-47084600D02*
X83452500Y-47084600D01*
X88359700Y-52425600D02*
X85090000Y-49155900D01*
X85090000Y-49155900D02*
X85090000Y-47829000D01*
X85090000Y-47829000D02*
X84345600Y-47084600D01*
X83452500Y-47084600D02*
X82455300Y-46087400D01*
X82455300Y-46087400D02*
X81458000Y-47084700D01*
X81280000Y-48260000D02*
X81280000Y-47084700D01*
X81280000Y-45720000D02*
X82455300Y-45720000D01*
X82455300Y-45720000D02*
X82455300Y-46087400D01*
X81458000Y-47084700D02*
X81280000Y-47084700D01*
X83820000Y-61950000D02*
X83820000Y-57023000D01*
X90214600Y-75964600D02*
X90214600Y-75875400D01*
X90199900Y-63190100D02*
X90199900Y-67030000D01*
X85045400Y-75875400D02*
X85045400Y-75964600D01*
X85045400Y-75964600D02*
X83820000Y-77190000D01*
X85045400Y-75875400D02*
X90214600Y-75875400D01*
X91440000Y-77190000D02*
X90214600Y-75964600D01*
X83820000Y-57023000D02*
X83496900Y-56699900D01*
X85058900Y-70871100D02*
X83820000Y-72110000D01*
X90199900Y-67030000D02*
X91440000Y-67030000D01*
X85045400Y-73335400D02*
X85045400Y-75875400D01*
X85058900Y-67030000D02*
X85058900Y-70871100D01*
X90214600Y-75875400D02*
X90214600Y-73335400D01*
X90199900Y-67030000D02*
X85058900Y-67030000D01*
X83496900Y-56699900D02*
X83496900Y-55429900D01*
X85058900Y-67030000D02*
X83820000Y-67030000D01*
X91440000Y-61950000D02*
X90199900Y-63190100D01*
X90214600Y-73335400D02*
X91440000Y-72110000D01*
X85058900Y-63188900D02*
X83820000Y-61950000D01*
X83820000Y-72110000D02*
X85045400Y-73335400D01*
X85058900Y-67030000D02*
X85058900Y-63188900D01*
X90170000Y-48673500D02*
X88039700Y-50803800D01*
X90170000Y-47829000D02*
X90170000Y-48673500D01*
X91996800Y-46895300D02*
X91103700Y-46895300D01*
X88039700Y-50803800D02*
X87763600Y-50803800D01*
X93980000Y-45720000D02*
X92804700Y-45720000D01*
X92804700Y-46087400D02*
X91996800Y-46895300D01*
X92804700Y-45720000D02*
X92804700Y-46087400D01*
X91103700Y-46895300D02*
X90170000Y-47829000D01*
G04 #@! TA.AperFunction,Conductor*
G36*
X97223621Y-42438502D02*
G01*
X97270114Y-42492158D01*
X97281500Y-42544500D01*
X97281500Y-89535500D01*
X97261498Y-89603621D01*
X97207842Y-89650114D01*
X97155500Y-89661500D01*
X78104500Y-89661500D01*
X78036379Y-89641498D01*
X77989886Y-89587842D01*
X77978500Y-89535500D01*
X77978500Y-86072680D01*
X86216477Y-86072680D01*
X86235024Y-86276478D01*
X86236762Y-86282384D01*
X86236763Y-86282388D01*
X86292127Y-86470499D01*
X86292172Y-86541496D01*
X86283140Y-86563284D01*
X86279385Y-86568295D01*
X86228255Y-86704684D01*
X86221500Y-86766866D01*
X86221500Y-87933134D01*
X86228255Y-87995316D01*
X86279385Y-88131705D01*
X86366739Y-88248261D01*
X86483295Y-88335615D01*
X86619684Y-88386745D01*
X86681866Y-88393500D01*
X88578134Y-88393500D01*
X88640316Y-88386745D01*
X88776705Y-88335615D01*
X88893261Y-88248261D01*
X88980615Y-88131705D01*
X89031745Y-87995316D01*
X89038500Y-87933134D01*
X89038500Y-86766866D01*
X89031745Y-86704684D01*
X88980615Y-86568295D01*
X88977046Y-86563533D01*
X88962201Y-86495662D01*
X88967525Y-86467250D01*
X89020311Y-86296725D01*
X89022133Y-86290840D01*
X89023022Y-86282388D01*
X89042879Y-86093449D01*
X89042879Y-86093447D01*
X89043523Y-86087320D01*
X89024976Y-85883522D01*
X88967198Y-85687207D01*
X88963200Y-85679558D01*
X88872388Y-85505853D01*
X88873934Y-85505045D01*
X88855769Y-85445040D01*
X88870929Y-85384057D01*
X88882272Y-85363079D01*
X88961619Y-85216329D01*
X89022133Y-85020840D01*
X89023022Y-85012388D01*
X89042879Y-84823449D01*
X89042879Y-84823447D01*
X89043523Y-84817320D01*
X89024976Y-84613522D01*
X88967198Y-84417207D01*
X88963200Y-84409558D01*
X88872388Y-84235853D01*
X88873934Y-84235045D01*
X88855769Y-84175040D01*
X88870929Y-84114057D01*
X88882272Y-84093079D01*
X88961619Y-83946329D01*
X89022133Y-83750840D01*
X89023022Y-83742388D01*
X89042879Y-83553449D01*
X89042879Y-83553447D01*
X89043523Y-83547320D01*
X89024976Y-83343522D01*
X88967198Y-83147207D01*
X88963200Y-83139558D01*
X88875240Y-82971309D01*
X88872388Y-82965853D01*
X88744160Y-82806369D01*
X88587396Y-82674828D01*
X88408067Y-82576242D01*
X88402200Y-82574381D01*
X88402198Y-82574380D01*
X88310536Y-82545303D01*
X88213006Y-82514364D01*
X88053744Y-82496500D01*
X87213505Y-82496500D01*
X87061336Y-82511420D01*
X86865429Y-82570568D01*
X86849180Y-82579208D01*
X86690184Y-82663747D01*
X86690181Y-82663749D01*
X86684742Y-82666641D01*
X86679972Y-82670531D01*
X86679968Y-82670534D01*
X86530932Y-82792085D01*
X86530929Y-82792088D01*
X86526157Y-82795980D01*
X86522230Y-82800728D01*
X86522228Y-82800729D01*
X86460935Y-82874819D01*
X86395713Y-82953659D01*
X86298381Y-83133671D01*
X86237867Y-83329160D01*
X86237224Y-83335282D01*
X86237223Y-83335285D01*
X86235712Y-83349661D01*
X86216477Y-83532680D01*
X86235024Y-83736478D01*
X86292802Y-83932793D01*
X86295655Y-83938251D01*
X86295657Y-83938255D01*
X86387612Y-84114147D01*
X86386066Y-84114955D01*
X86404231Y-84174960D01*
X86389071Y-84235943D01*
X86298381Y-84403671D01*
X86237867Y-84599160D01*
X86237224Y-84605282D01*
X86237223Y-84605285D01*
X86235712Y-84619661D01*
X86216477Y-84802680D01*
X86235024Y-85006478D01*
X86292802Y-85202793D01*
X86295655Y-85208251D01*
X86295657Y-85208255D01*
X86387612Y-85384147D01*
X86386066Y-85384955D01*
X86404231Y-85444960D01*
X86389071Y-85505943D01*
X86298381Y-85673671D01*
X86237867Y-85869160D01*
X86237224Y-85875282D01*
X86237223Y-85875285D01*
X86235712Y-85889661D01*
X86216477Y-86072680D01*
X77978500Y-86072680D01*
X77978500Y-77155469D01*
X82407095Y-77155469D01*
X82407392Y-77160622D01*
X82407392Y-77160625D01*
X82413067Y-77259041D01*
X82420427Y-77386697D01*
X82421564Y-77391743D01*
X82421565Y-77391749D01*
X82453741Y-77534523D01*
X82471346Y-77612642D01*
X82473288Y-77617424D01*
X82473289Y-77617428D01*
X82556540Y-77822450D01*
X82558484Y-77827237D01*
X82679501Y-78024719D01*
X82682882Y-78028622D01*
X82791304Y-78153788D01*
X82820786Y-78218373D01*
X82810671Y-78288646D01*
X82764170Y-78342294D01*
X82740296Y-78354267D01*
X82684515Y-78375179D01*
X82673295Y-78379385D01*
X82556739Y-78466739D01*
X82469385Y-78583295D01*
X82418255Y-78719684D01*
X82411500Y-78781866D01*
X82411500Y-80678134D01*
X82418255Y-80740316D01*
X82469385Y-80876705D01*
X82556739Y-80993261D01*
X82673295Y-81080615D01*
X82809684Y-81131745D01*
X82871866Y-81138500D01*
X84768134Y-81138500D01*
X84830316Y-81131745D01*
X84966705Y-81080615D01*
X85083261Y-80993261D01*
X85170615Y-80876705D01*
X85221745Y-80740316D01*
X85228500Y-80678134D01*
X85228500Y-78781866D01*
X85221745Y-78719684D01*
X85170615Y-78583295D01*
X85083261Y-78466739D01*
X84966705Y-78379385D01*
X84958296Y-78376233D01*
X84958295Y-78376232D01*
X84899804Y-78354305D01*
X84843039Y-78311664D01*
X84818339Y-78245103D01*
X84833546Y-78175754D01*
X84855093Y-78147073D01*
X84892636Y-78109660D01*
X84892640Y-78109655D01*
X84896303Y-78106005D01*
X85031458Y-77917917D01*
X85078641Y-77822450D01*
X85131784Y-77714922D01*
X85131785Y-77714920D01*
X85134078Y-77710280D01*
X85201408Y-77488671D01*
X85231640Y-77259041D01*
X85233327Y-77190000D01*
X85214349Y-76959167D01*
X85178026Y-76814560D01*
X85180830Y-76743618D01*
X85211135Y-76694769D01*
X85360099Y-76545805D01*
X85422411Y-76511779D01*
X85449194Y-76508900D01*
X89810806Y-76508900D01*
X89878927Y-76528902D01*
X89899901Y-76545805D01*
X90049154Y-76695058D01*
X90083180Y-76757370D01*
X90081476Y-76817825D01*
X90051707Y-76925169D01*
X90027095Y-77155469D01*
X90027392Y-77160622D01*
X90027392Y-77160625D01*
X90033067Y-77259041D01*
X90040427Y-77386697D01*
X90041564Y-77391743D01*
X90041565Y-77391749D01*
X90073741Y-77534523D01*
X90091346Y-77612642D01*
X90093288Y-77617424D01*
X90093289Y-77617428D01*
X90176540Y-77822450D01*
X90178484Y-77827237D01*
X90299501Y-78024719D01*
X90302882Y-78028622D01*
X90411304Y-78153788D01*
X90440786Y-78218373D01*
X90430671Y-78288646D01*
X90384170Y-78342294D01*
X90360296Y-78354267D01*
X90304515Y-78375179D01*
X90293295Y-78379385D01*
X90176739Y-78466739D01*
X90089385Y-78583295D01*
X90038255Y-78719684D01*
X90031500Y-78781866D01*
X90031500Y-80678134D01*
X90038255Y-80740316D01*
X90089385Y-80876705D01*
X90176739Y-80993261D01*
X90293295Y-81080615D01*
X90429684Y-81131745D01*
X90491866Y-81138500D01*
X92388134Y-81138500D01*
X92450316Y-81131745D01*
X92586705Y-81080615D01*
X92703261Y-80993261D01*
X92790615Y-80876705D01*
X92841745Y-80740316D01*
X92848500Y-80678134D01*
X92848500Y-78781866D01*
X92841745Y-78719684D01*
X92790615Y-78583295D01*
X92703261Y-78466739D01*
X92586705Y-78379385D01*
X92578296Y-78376233D01*
X92578295Y-78376232D01*
X92519804Y-78354305D01*
X92463039Y-78311664D01*
X92438339Y-78245103D01*
X92453546Y-78175754D01*
X92475093Y-78147073D01*
X92512636Y-78109660D01*
X92512640Y-78109655D01*
X92516303Y-78106005D01*
X92651458Y-77917917D01*
X92698641Y-77822450D01*
X92751784Y-77714922D01*
X92751785Y-77714920D01*
X92754078Y-77710280D01*
X92821408Y-77488671D01*
X92851640Y-77259041D01*
X92853327Y-77190000D01*
X92847032Y-77113434D01*
X92834773Y-76964318D01*
X92834772Y-76964312D01*
X92834349Y-76959167D01*
X92806137Y-76846850D01*
X92779184Y-76739544D01*
X92779183Y-76739540D01*
X92777925Y-76734533D01*
X92775866Y-76729797D01*
X92687630Y-76526868D01*
X92687628Y-76526865D01*
X92685570Y-76522131D01*
X92559764Y-76327665D01*
X92469848Y-76228848D01*
X92438796Y-76165002D01*
X92447192Y-76094504D01*
X92492369Y-76039736D01*
X92518812Y-76026067D01*
X92578297Y-76003767D01*
X92586705Y-76000615D01*
X92703261Y-75913261D01*
X92790615Y-75796705D01*
X92841745Y-75660316D01*
X92848500Y-75598134D01*
X92848500Y-73701866D01*
X92841745Y-73639684D01*
X92790615Y-73503295D01*
X92703261Y-73386739D01*
X92586705Y-73299385D01*
X92578296Y-73296233D01*
X92578295Y-73296232D01*
X92534198Y-73279701D01*
X92519804Y-73274305D01*
X92463039Y-73231664D01*
X92438339Y-73165103D01*
X92453546Y-73095754D01*
X92475093Y-73067073D01*
X92512636Y-73029660D01*
X92512640Y-73029655D01*
X92516303Y-73026005D01*
X92651458Y-72837917D01*
X92698641Y-72742450D01*
X92751784Y-72634922D01*
X92751785Y-72634920D01*
X92754078Y-72630280D01*
X92821408Y-72408671D01*
X92851640Y-72179041D01*
X92853327Y-72110000D01*
X92847032Y-72033434D01*
X92834773Y-71884318D01*
X92834772Y-71884312D01*
X92834349Y-71879167D01*
X92798026Y-71734560D01*
X92779184Y-71659544D01*
X92779183Y-71659540D01*
X92777925Y-71654533D01*
X92775866Y-71649797D01*
X92687630Y-71446868D01*
X92687628Y-71446865D01*
X92685570Y-71442131D01*
X92559764Y-71247665D01*
X92531704Y-71216827D01*
X92469848Y-71148848D01*
X92438796Y-71085002D01*
X92447192Y-71014504D01*
X92492369Y-70959736D01*
X92518812Y-70946067D01*
X92578297Y-70923767D01*
X92586705Y-70920615D01*
X92703261Y-70833261D01*
X92790615Y-70716705D01*
X92841745Y-70580316D01*
X92848500Y-70518134D01*
X92848500Y-68621866D01*
X92841745Y-68559684D01*
X92790615Y-68423295D01*
X92703261Y-68306739D01*
X92586705Y-68219385D01*
X92578296Y-68216233D01*
X92578295Y-68216232D01*
X92519804Y-68194305D01*
X92463039Y-68151664D01*
X92438339Y-68085103D01*
X92453546Y-68015754D01*
X92475093Y-67987073D01*
X92512636Y-67949660D01*
X92512640Y-67949655D01*
X92516303Y-67946005D01*
X92651458Y-67757917D01*
X92668387Y-67723665D01*
X92751784Y-67554922D01*
X92751785Y-67554920D01*
X92754078Y-67550280D01*
X92821408Y-67328671D01*
X92851640Y-67099041D01*
X92853327Y-67030000D01*
X92847032Y-66953434D01*
X92834773Y-66804318D01*
X92834772Y-66804312D01*
X92834349Y-66799167D01*
X92777925Y-66574533D01*
X92775866Y-66569797D01*
X92687630Y-66366868D01*
X92687628Y-66366865D01*
X92685570Y-66362131D01*
X92559764Y-66167665D01*
X92469848Y-66068848D01*
X92438796Y-66005002D01*
X92447192Y-65934504D01*
X92492369Y-65879736D01*
X92518812Y-65866067D01*
X92578297Y-65843767D01*
X92586705Y-65840615D01*
X92703261Y-65753261D01*
X92790615Y-65636705D01*
X92841745Y-65500316D01*
X92848500Y-65438134D01*
X92848500Y-63541866D01*
X92841745Y-63479684D01*
X92790615Y-63343295D01*
X92703261Y-63226739D01*
X92586705Y-63139385D01*
X92578296Y-63136233D01*
X92578295Y-63136232D01*
X92519804Y-63114305D01*
X92463039Y-63071664D01*
X92438339Y-63005103D01*
X92453546Y-62935754D01*
X92475093Y-62907073D01*
X92512636Y-62869660D01*
X92512640Y-62869655D01*
X92516303Y-62866005D01*
X92651458Y-62677917D01*
X92698641Y-62582450D01*
X92751784Y-62474922D01*
X92751785Y-62474920D01*
X92754078Y-62470280D01*
X92821408Y-62248671D01*
X92851640Y-62019041D01*
X92853327Y-61950000D01*
X92847032Y-61873434D01*
X92834773Y-61724318D01*
X92834772Y-61724312D01*
X92834349Y-61719167D01*
X92777925Y-61494533D01*
X92775866Y-61489797D01*
X92687630Y-61286868D01*
X92687628Y-61286865D01*
X92685570Y-61282131D01*
X92559764Y-61087665D01*
X92403887Y-60916358D01*
X92399836Y-60913159D01*
X92399832Y-60913155D01*
X92226177Y-60776011D01*
X92226172Y-60776008D01*
X92222123Y-60772810D01*
X92217607Y-60770317D01*
X92217604Y-60770315D01*
X92023879Y-60663373D01*
X92023875Y-60663371D01*
X92019355Y-60660876D01*
X92014486Y-60659152D01*
X92014482Y-60659150D01*
X91805903Y-60585288D01*
X91805899Y-60585287D01*
X91801028Y-60583562D01*
X91795935Y-60582655D01*
X91795932Y-60582654D01*
X91578095Y-60543851D01*
X91578089Y-60543850D01*
X91573006Y-60542945D01*
X91500096Y-60542054D01*
X91346581Y-60540179D01*
X91346579Y-60540179D01*
X91341411Y-60540116D01*
X91112464Y-60575150D01*
X90892314Y-60647106D01*
X90887726Y-60649494D01*
X90887722Y-60649496D01*
X90739401Y-60726707D01*
X90686872Y-60754052D01*
X90682739Y-60757155D01*
X90682736Y-60757157D01*
X90657625Y-60776011D01*
X90501655Y-60893117D01*
X90341639Y-61060564D01*
X90338725Y-61064836D01*
X90338724Y-61064837D01*
X90323152Y-61087665D01*
X90211119Y-61251899D01*
X90113602Y-61461981D01*
X90051707Y-61685169D01*
X90027095Y-61915469D01*
X90027392Y-61920622D01*
X90027392Y-61920625D01*
X90033067Y-62019041D01*
X90040427Y-62146697D01*
X90041564Y-62151743D01*
X90041565Y-62151749D01*
X90081623Y-62329498D01*
X90077087Y-62400350D01*
X90047801Y-62446294D01*
X89807647Y-62686448D01*
X89799361Y-62693988D01*
X89792882Y-62698100D01*
X89787457Y-62703877D01*
X89746257Y-62747751D01*
X89743502Y-62750593D01*
X89723765Y-62770330D01*
X89721285Y-62773527D01*
X89713582Y-62782547D01*
X89683314Y-62814779D01*
X89679495Y-62821725D01*
X89679493Y-62821728D01*
X89673552Y-62832534D01*
X89662701Y-62849053D01*
X89650286Y-62865059D01*
X89647141Y-62872328D01*
X89647138Y-62872332D01*
X89632726Y-62905637D01*
X89627509Y-62916287D01*
X89606205Y-62955040D01*
X89604234Y-62962715D01*
X89604234Y-62962716D01*
X89601167Y-62974662D01*
X89594763Y-62993366D01*
X89586719Y-63011955D01*
X89585480Y-63019778D01*
X89585477Y-63019788D01*
X89579801Y-63055624D01*
X89577395Y-63067244D01*
X89573761Y-63081400D01*
X89566400Y-63110070D01*
X89566400Y-63130324D01*
X89564849Y-63150034D01*
X89561680Y-63170043D01*
X89562426Y-63177935D01*
X89565841Y-63214061D01*
X89566400Y-63225919D01*
X89566400Y-66270500D01*
X89546398Y-66338621D01*
X89492742Y-66385114D01*
X89440400Y-66396500D01*
X85818400Y-66396500D01*
X85750279Y-66376498D01*
X85703786Y-66322842D01*
X85692400Y-66270500D01*
X85692400Y-63267667D01*
X85692927Y-63256484D01*
X85694602Y-63248991D01*
X85692462Y-63180914D01*
X85692400Y-63176955D01*
X85692400Y-63149044D01*
X85691895Y-63145044D01*
X85690962Y-63133201D01*
X85689822Y-63096929D01*
X85689573Y-63089010D01*
X85683922Y-63069558D01*
X85679914Y-63050206D01*
X85678367Y-63037963D01*
X85677374Y-63030103D01*
X85670189Y-63011955D01*
X85661100Y-62988997D01*
X85657255Y-62977770D01*
X85650651Y-62955040D01*
X85644918Y-62935307D01*
X85640884Y-62928485D01*
X85640881Y-62928479D01*
X85634606Y-62917868D01*
X85625910Y-62900118D01*
X85621372Y-62888656D01*
X85621369Y-62888651D01*
X85618452Y-62881283D01*
X85592473Y-62845525D01*
X85585957Y-62835607D01*
X85567475Y-62804357D01*
X85563442Y-62797537D01*
X85549118Y-62783213D01*
X85536276Y-62768178D01*
X85524372Y-62751793D01*
X85490306Y-62723611D01*
X85481527Y-62715622D01*
X85211299Y-62445394D01*
X85177273Y-62383082D01*
X85179836Y-62319672D01*
X85201408Y-62248671D01*
X85231640Y-62019041D01*
X85233327Y-61950000D01*
X85227032Y-61873434D01*
X85214773Y-61724318D01*
X85214772Y-61724312D01*
X85214349Y-61719167D01*
X85157925Y-61494533D01*
X85155866Y-61489797D01*
X85067630Y-61286868D01*
X85067628Y-61286865D01*
X85065570Y-61282131D01*
X84939764Y-61087665D01*
X84783887Y-60916358D01*
X84779836Y-60913159D01*
X84779832Y-60913155D01*
X84606178Y-60776012D01*
X84606175Y-60776010D01*
X84602123Y-60772810D01*
X84518607Y-60726707D01*
X84468636Y-60676274D01*
X84453500Y-60616398D01*
X84453500Y-57101763D01*
X84454027Y-57090579D01*
X84455701Y-57083091D01*
X84453562Y-57015032D01*
X84453500Y-57011075D01*
X84453500Y-56983144D01*
X84452994Y-56979138D01*
X84452061Y-56967292D01*
X84451628Y-56953493D01*
X84450673Y-56923110D01*
X84445022Y-56903658D01*
X84441014Y-56884306D01*
X84439468Y-56872068D01*
X84439467Y-56872066D01*
X84438474Y-56864203D01*
X84422194Y-56823086D01*
X84418359Y-56811885D01*
X84406018Y-56769406D01*
X84401985Y-56762587D01*
X84401983Y-56762582D01*
X84395707Y-56751971D01*
X84387010Y-56734221D01*
X84379552Y-56715383D01*
X84353571Y-56679623D01*
X84347053Y-56669701D01*
X84328578Y-56638460D01*
X84328574Y-56638455D01*
X84324542Y-56631637D01*
X84310218Y-56617313D01*
X84297376Y-56602278D01*
X84285472Y-56585893D01*
X84251406Y-56557711D01*
X84242627Y-56549722D01*
X84167305Y-56474400D01*
X84133279Y-56412088D01*
X84130400Y-56385305D01*
X84130400Y-56132424D01*
X84150402Y-56064303D01*
X84162758Y-56048121D01*
X84235940Y-55966844D01*
X84331427Y-55801456D01*
X84390442Y-55619828D01*
X84410404Y-55429900D01*
X84390442Y-55239972D01*
X84331427Y-55058344D01*
X84235940Y-54892956D01*
X84108153Y-54751034D01*
X83953652Y-54638782D01*
X83947624Y-54636098D01*
X83947622Y-54636097D01*
X83785219Y-54563791D01*
X83785218Y-54563791D01*
X83779188Y-54561106D01*
X83685788Y-54541253D01*
X83598844Y-54522772D01*
X83598839Y-54522772D01*
X83592387Y-54521400D01*
X83401413Y-54521400D01*
X83394961Y-54522772D01*
X83394956Y-54522772D01*
X83308012Y-54541253D01*
X83214612Y-54561106D01*
X83208582Y-54563791D01*
X83208581Y-54563791D01*
X83046178Y-54636097D01*
X83046176Y-54636098D01*
X83040148Y-54638782D01*
X82885647Y-54751034D01*
X82757860Y-54892956D01*
X82662373Y-55058344D01*
X82603358Y-55239972D01*
X82583396Y-55429900D01*
X82603358Y-55619828D01*
X82662373Y-55801456D01*
X82757860Y-55966844D01*
X82831037Y-56048115D01*
X82861753Y-56112121D01*
X82863400Y-56132424D01*
X82863400Y-56621133D01*
X82862873Y-56632316D01*
X82861198Y-56639809D01*
X82861447Y-56647735D01*
X82861447Y-56647736D01*
X82863338Y-56707886D01*
X82863400Y-56711845D01*
X82863400Y-56739756D01*
X82863897Y-56743690D01*
X82863897Y-56743691D01*
X82863905Y-56743756D01*
X82864838Y-56755593D01*
X82866227Y-56799789D01*
X82871878Y-56819239D01*
X82875887Y-56838600D01*
X82878426Y-56858697D01*
X82881345Y-56866068D01*
X82881345Y-56866070D01*
X82894704Y-56899812D01*
X82898549Y-56911042D01*
X82910882Y-56953493D01*
X82914915Y-56960312D01*
X82914917Y-56960317D01*
X82921193Y-56970928D01*
X82929888Y-56988676D01*
X82937348Y-57007517D01*
X82942010Y-57013933D01*
X82942010Y-57013934D01*
X82963336Y-57043287D01*
X82969852Y-57053207D01*
X82987526Y-57083091D01*
X82992358Y-57091262D01*
X83006679Y-57105583D01*
X83019519Y-57120616D01*
X83031428Y-57137007D01*
X83037534Y-57142058D01*
X83065505Y-57165198D01*
X83074284Y-57173188D01*
X83149595Y-57248499D01*
X83183621Y-57310811D01*
X83186500Y-57337594D01*
X83186500Y-60615319D01*
X83166498Y-60683440D01*
X83118679Y-60727083D01*
X83066872Y-60754052D01*
X82881655Y-60893117D01*
X82721639Y-61060564D01*
X82718725Y-61064836D01*
X82718724Y-61064837D01*
X82703152Y-61087665D01*
X82591119Y-61251899D01*
X82493602Y-61461981D01*
X82431707Y-61685169D01*
X82407095Y-61915469D01*
X82407392Y-61920622D01*
X82407392Y-61920625D01*
X82413067Y-62019041D01*
X82420427Y-62146697D01*
X82421564Y-62151743D01*
X82421565Y-62151749D01*
X82444523Y-62253620D01*
X82471346Y-62372642D01*
X82473288Y-62377424D01*
X82473289Y-62377428D01*
X82556540Y-62582450D01*
X82558484Y-62587237D01*
X82679501Y-62784719D01*
X82682882Y-62788622D01*
X82791304Y-62913788D01*
X82820786Y-62978373D01*
X82810671Y-63048646D01*
X82764170Y-63102294D01*
X82740296Y-63114267D01*
X82697465Y-63130324D01*
X82673295Y-63139385D01*
X82556739Y-63226739D01*
X82469385Y-63343295D01*
X82418255Y-63479684D01*
X82411500Y-63541866D01*
X82411500Y-65438134D01*
X82418255Y-65500316D01*
X82469385Y-65636705D01*
X82556739Y-65753261D01*
X82673295Y-65840615D01*
X82681704Y-65843767D01*
X82681705Y-65843768D01*
X82741164Y-65866058D01*
X82797929Y-65908699D01*
X82822629Y-65975261D01*
X82807422Y-66044609D01*
X82788029Y-66071091D01*
X82721639Y-66140564D01*
X82718725Y-66144836D01*
X82718724Y-66144837D01*
X82703152Y-66167665D01*
X82591119Y-66331899D01*
X82493602Y-66541981D01*
X82431707Y-66765169D01*
X82407095Y-66995469D01*
X82407392Y-67000622D01*
X82407392Y-67000625D01*
X82413067Y-67099041D01*
X82420427Y-67226697D01*
X82421564Y-67231743D01*
X82421565Y-67231749D01*
X82453741Y-67374523D01*
X82471346Y-67452642D01*
X82473288Y-67457424D01*
X82473289Y-67457428D01*
X82556540Y-67662450D01*
X82558484Y-67667237D01*
X82679501Y-67864719D01*
X82682882Y-67868622D01*
X82791304Y-67993788D01*
X82820786Y-68058373D01*
X82810671Y-68128646D01*
X82764170Y-68182294D01*
X82740296Y-68194267D01*
X82684515Y-68215179D01*
X82673295Y-68219385D01*
X82556739Y-68306739D01*
X82469385Y-68423295D01*
X82418255Y-68559684D01*
X82411500Y-68621866D01*
X82411500Y-70518134D01*
X82418255Y-70580316D01*
X82469385Y-70716705D01*
X82556739Y-70833261D01*
X82673295Y-70920615D01*
X82681704Y-70923767D01*
X82681705Y-70923768D01*
X82741164Y-70946058D01*
X82797929Y-70988699D01*
X82822629Y-71055261D01*
X82807422Y-71124609D01*
X82788029Y-71151091D01*
X82721639Y-71220564D01*
X82718725Y-71224836D01*
X82718724Y-71224837D01*
X82675855Y-71287681D01*
X82591119Y-71411899D01*
X82493602Y-71621981D01*
X82431707Y-71845169D01*
X82407095Y-72075469D01*
X82407392Y-72080622D01*
X82407392Y-72080625D01*
X82413067Y-72179041D01*
X82420427Y-72306697D01*
X82421564Y-72311743D01*
X82421565Y-72311749D01*
X82444523Y-72413620D01*
X82471346Y-72532642D01*
X82473288Y-72537424D01*
X82473289Y-72537428D01*
X82556540Y-72742450D01*
X82558484Y-72747237D01*
X82679501Y-72944719D01*
X82715708Y-72986517D01*
X82791304Y-73073788D01*
X82820786Y-73138373D01*
X82810671Y-73208646D01*
X82764170Y-73262294D01*
X82740296Y-73274267D01*
X82694211Y-73291544D01*
X82673295Y-73299385D01*
X82556739Y-73386739D01*
X82469385Y-73503295D01*
X82418255Y-73639684D01*
X82411500Y-73701866D01*
X82411500Y-75598134D01*
X82418255Y-75660316D01*
X82469385Y-75796705D01*
X82556739Y-75913261D01*
X82673295Y-76000615D01*
X82681704Y-76003767D01*
X82681705Y-76003768D01*
X82741164Y-76026058D01*
X82797929Y-76068699D01*
X82822629Y-76135261D01*
X82807422Y-76204609D01*
X82788029Y-76231091D01*
X82721639Y-76300564D01*
X82718725Y-76304836D01*
X82718724Y-76304837D01*
X82703152Y-76327665D01*
X82591119Y-76491899D01*
X82493602Y-76701981D01*
X82431707Y-76925169D01*
X82407095Y-77155469D01*
X77978500Y-77155469D01*
X77978500Y-45686695D01*
X79917251Y-45686695D01*
X79917548Y-45691848D01*
X79917548Y-45691851D01*
X79923011Y-45786590D01*
X79930110Y-45909715D01*
X79931247Y-45914761D01*
X79931248Y-45914767D01*
X79951119Y-46002939D01*
X79979222Y-46127639D01*
X80063266Y-46334616D01*
X80112032Y-46414195D01*
X80177291Y-46520688D01*
X80179987Y-46525088D01*
X80326250Y-46693938D01*
X80330230Y-46697242D01*
X80334981Y-46701187D01*
X80374616Y-46760090D01*
X80376113Y-46831071D01*
X80338997Y-46891593D01*
X80298725Y-46916112D01*
X80210095Y-46949338D01*
X80183295Y-46959385D01*
X80066739Y-47046739D01*
X79979385Y-47163295D01*
X79928255Y-47299684D01*
X79921500Y-47361866D01*
X79921500Y-49158134D01*
X79928255Y-49220316D01*
X79979385Y-49356705D01*
X80066739Y-49473261D01*
X80183295Y-49560615D01*
X80319684Y-49611745D01*
X80381866Y-49618500D01*
X82178134Y-49618500D01*
X82240316Y-49611745D01*
X82376705Y-49560615D01*
X82493261Y-49473261D01*
X82580615Y-49356705D01*
X82618447Y-49255789D01*
X82624798Y-49238848D01*
X82667440Y-49182084D01*
X82734001Y-49157384D01*
X82803350Y-49172592D01*
X82838017Y-49200580D01*
X82863218Y-49229673D01*
X82870580Y-49236883D01*
X83034434Y-49372916D01*
X83042881Y-49378831D01*
X83226756Y-49486279D01*
X83236042Y-49490729D01*
X83435001Y-49566703D01*
X83444899Y-49569579D01*
X83548250Y-49590606D01*
X83562299Y-49589410D01*
X83566000Y-49579065D01*
X83566000Y-47844100D01*
X83586002Y-47775979D01*
X83639658Y-47729486D01*
X83692000Y-47718100D01*
X83948000Y-47718100D01*
X84016121Y-47738102D01*
X84062614Y-47791758D01*
X84074000Y-47844100D01*
X84074000Y-49578517D01*
X84078064Y-49592359D01*
X84091478Y-49594393D01*
X84098184Y-49593534D01*
X84108262Y-49591392D01*
X84312248Y-49530193D01*
X84321846Y-49526432D01*
X84412093Y-49482220D01*
X84482067Y-49470214D01*
X84547424Y-49497944D01*
X84575977Y-49531231D01*
X84585458Y-49547262D01*
X84599779Y-49561583D01*
X84612619Y-49576616D01*
X84624528Y-49593007D01*
X84654898Y-49618131D01*
X84658605Y-49621198D01*
X84667384Y-49629188D01*
X87856048Y-52817853D01*
X87863588Y-52826139D01*
X87867700Y-52832618D01*
X87873477Y-52838043D01*
X87917351Y-52879243D01*
X87920193Y-52881998D01*
X87939930Y-52901735D01*
X87943127Y-52904215D01*
X87952147Y-52911918D01*
X87984379Y-52942186D01*
X87991325Y-52946005D01*
X87991328Y-52946007D01*
X88002134Y-52951948D01*
X88018653Y-52962799D01*
X88034659Y-52975214D01*
X88041928Y-52978359D01*
X88041932Y-52978362D01*
X88075237Y-52992774D01*
X88085887Y-52997991D01*
X88124640Y-53019295D01*
X88132315Y-53021266D01*
X88132316Y-53021266D01*
X88144262Y-53024333D01*
X88162967Y-53030737D01*
X88181555Y-53038781D01*
X88189378Y-53040020D01*
X88189388Y-53040023D01*
X88225224Y-53045699D01*
X88236844Y-53048105D01*
X88271989Y-53057128D01*
X88279670Y-53059100D01*
X88299924Y-53059100D01*
X88319634Y-53060651D01*
X88339643Y-53063820D01*
X88347535Y-53063074D01*
X88383661Y-53059659D01*
X88395519Y-53059100D01*
X90249200Y-53059100D01*
X90317321Y-53079102D01*
X90336547Y-53095443D01*
X90336820Y-53095140D01*
X90341732Y-53099563D01*
X90346147Y-53104466D01*
X90500648Y-53216718D01*
X90506676Y-53219402D01*
X90506678Y-53219403D01*
X90669081Y-53291709D01*
X90675112Y-53294394D01*
X90768512Y-53314247D01*
X90855456Y-53332728D01*
X90855461Y-53332728D01*
X90861913Y-53334100D01*
X91052887Y-53334100D01*
X91059339Y-53332728D01*
X91059344Y-53332728D01*
X91146288Y-53314247D01*
X91239688Y-53294394D01*
X91245719Y-53291709D01*
X91408122Y-53219403D01*
X91408124Y-53219402D01*
X91414152Y-53216718D01*
X91568653Y-53104466D01*
X91605251Y-53063820D01*
X91692021Y-52967452D01*
X91692022Y-52967451D01*
X91696440Y-52962544D01*
X91791927Y-52797156D01*
X91850942Y-52615528D01*
X91870904Y-52425600D01*
X91850942Y-52235672D01*
X91791927Y-52054044D01*
X91696440Y-51888656D01*
X91568653Y-51746734D01*
X91414152Y-51634482D01*
X91408124Y-51631798D01*
X91408122Y-51631797D01*
X91245719Y-51559491D01*
X91245718Y-51559491D01*
X91239688Y-51556806D01*
X91146287Y-51536953D01*
X91059344Y-51518472D01*
X91059339Y-51518472D01*
X91052887Y-51517100D01*
X90861913Y-51517100D01*
X90855461Y-51518472D01*
X90855456Y-51518472D01*
X90768512Y-51536953D01*
X90675112Y-51556806D01*
X90669082Y-51559491D01*
X90669081Y-51559491D01*
X90506678Y-51631797D01*
X90506676Y-51631798D01*
X90500648Y-51634482D01*
X90346147Y-51746734D01*
X90341732Y-51751637D01*
X90336820Y-51756060D01*
X90335695Y-51754811D01*
X90282386Y-51787651D01*
X90249200Y-51792100D01*
X88674294Y-51792100D01*
X88606173Y-51772098D01*
X88585199Y-51755195D01*
X88429939Y-51599935D01*
X88395913Y-51537623D01*
X88400978Y-51466808D01*
X88425398Y-51426530D01*
X88498221Y-51345652D01*
X88498222Y-51345651D01*
X88502640Y-51340744D01*
X88598127Y-51175356D01*
X88605183Y-51153640D01*
X88635921Y-51103483D01*
X90415536Y-49323868D01*
X90477848Y-49289842D01*
X90548663Y-49294907D01*
X90585115Y-49316018D01*
X90594571Y-49323868D01*
X90658126Y-49376632D01*
X90851000Y-49489338D01*
X91059692Y-49569030D01*
X91064760Y-49570061D01*
X91064763Y-49570062D01*
X91126744Y-49582672D01*
X91278597Y-49613567D01*
X91283772Y-49613757D01*
X91283774Y-49613757D01*
X91496673Y-49621564D01*
X91496677Y-49621564D01*
X91501837Y-49621753D01*
X91506957Y-49621097D01*
X91506959Y-49621097D01*
X91718288Y-49594025D01*
X91718289Y-49594025D01*
X91723416Y-49593368D01*
X91728366Y-49591883D01*
X91932429Y-49530661D01*
X91932434Y-49530659D01*
X91937384Y-49529174D01*
X92137994Y-49430896D01*
X92319860Y-49301173D01*
X92336330Y-49284761D01*
X92464152Y-49157384D01*
X92478096Y-49143489D01*
X92608453Y-48962077D01*
X92609776Y-48963028D01*
X92656645Y-48919857D01*
X92726580Y-48907625D01*
X92792026Y-48935144D01*
X92819875Y-48966994D01*
X92879987Y-49065088D01*
X93026250Y-49233938D01*
X93198126Y-49376632D01*
X93391000Y-49489338D01*
X93599692Y-49569030D01*
X93604760Y-49570061D01*
X93604763Y-49570062D01*
X93666744Y-49582672D01*
X93818597Y-49613567D01*
X93823772Y-49613757D01*
X93823774Y-49613757D01*
X94036673Y-49621564D01*
X94036677Y-49621564D01*
X94041837Y-49621753D01*
X94046957Y-49621097D01*
X94046959Y-49621097D01*
X94258288Y-49594025D01*
X94258289Y-49594025D01*
X94263416Y-49593368D01*
X94268366Y-49591883D01*
X94472429Y-49530661D01*
X94472434Y-49530659D01*
X94477384Y-49529174D01*
X94677994Y-49430896D01*
X94859860Y-49301173D01*
X94876330Y-49284761D01*
X95004152Y-49157384D01*
X95018096Y-49143489D01*
X95148453Y-48962077D01*
X95169320Y-48919857D01*
X95245136Y-48766453D01*
X95245137Y-48766451D01*
X95247430Y-48761811D01*
X95312370Y-48548069D01*
X95341529Y-48326590D01*
X95343156Y-48260000D01*
X95324852Y-48037361D01*
X95270431Y-47820702D01*
X95181354Y-47615840D01*
X95100991Y-47491618D01*
X95062822Y-47432617D01*
X95062818Y-47432612D01*
X95060014Y-47428277D01*
X94909670Y-47263051D01*
X94905619Y-47259852D01*
X94905615Y-47259848D01*
X94738414Y-47127800D01*
X94738410Y-47127798D01*
X94734359Y-47124598D01*
X94693053Y-47101796D01*
X94643084Y-47051364D01*
X94628312Y-46981921D01*
X94653428Y-46915516D01*
X94680780Y-46888909D01*
X94724603Y-46857650D01*
X94859860Y-46761173D01*
X95018096Y-46603489D01*
X95077594Y-46520689D01*
X95145435Y-46426277D01*
X95148453Y-46422077D01*
X95161995Y-46394678D01*
X95245136Y-46226453D01*
X95245137Y-46226451D01*
X95247430Y-46221811D01*
X95312370Y-46008069D01*
X95341529Y-45786590D01*
X95341693Y-45779883D01*
X95343074Y-45723365D01*
X95343074Y-45723361D01*
X95343156Y-45720000D01*
X95324852Y-45497361D01*
X95270431Y-45280702D01*
X95181354Y-45075840D01*
X95060014Y-44888277D01*
X94909670Y-44723051D01*
X94905619Y-44719852D01*
X94905615Y-44719848D01*
X94738414Y-44587800D01*
X94738410Y-44587798D01*
X94734359Y-44584598D01*
X94698028Y-44564542D01*
X94682136Y-44555769D01*
X94538789Y-44476638D01*
X94533920Y-44474914D01*
X94533916Y-44474912D01*
X94333087Y-44403795D01*
X94333083Y-44403794D01*
X94328212Y-44402069D01*
X94323119Y-44401162D01*
X94323116Y-44401161D01*
X94113373Y-44363800D01*
X94113367Y-44363799D01*
X94108284Y-44362894D01*
X94034452Y-44361992D01*
X93890081Y-44360228D01*
X93890079Y-44360228D01*
X93884911Y-44360165D01*
X93664091Y-44393955D01*
X93451756Y-44463357D01*
X93253607Y-44566507D01*
X93249474Y-44569610D01*
X93249471Y-44569612D01*
X93225247Y-44587800D01*
X93074965Y-44700635D01*
X92920629Y-44862138D01*
X92813201Y-45019621D01*
X92758293Y-45064621D01*
X92687768Y-45072792D01*
X92624021Y-45041538D01*
X92603324Y-45017054D01*
X92522822Y-44892617D01*
X92522820Y-44892614D01*
X92520014Y-44888277D01*
X92369670Y-44723051D01*
X92365619Y-44719852D01*
X92365615Y-44719848D01*
X92198414Y-44587800D01*
X92198410Y-44587798D01*
X92194359Y-44584598D01*
X92158028Y-44564542D01*
X92142136Y-44555769D01*
X91998789Y-44476638D01*
X91993920Y-44474914D01*
X91993916Y-44474912D01*
X91793087Y-44403795D01*
X91793083Y-44403794D01*
X91788212Y-44402069D01*
X91783119Y-44401162D01*
X91783116Y-44401161D01*
X91573373Y-44363800D01*
X91573367Y-44363799D01*
X91568284Y-44362894D01*
X91494452Y-44361992D01*
X91350081Y-44360228D01*
X91350079Y-44360228D01*
X91344911Y-44360165D01*
X91124091Y-44393955D01*
X90911756Y-44463357D01*
X90713607Y-44566507D01*
X90709474Y-44569610D01*
X90709471Y-44569612D01*
X90685247Y-44587800D01*
X90534965Y-44700635D01*
X90380629Y-44862138D01*
X90273201Y-45019621D01*
X90218293Y-45064621D01*
X90147768Y-45072792D01*
X90084021Y-45041538D01*
X90063324Y-45017054D01*
X89982822Y-44892617D01*
X89982820Y-44892614D01*
X89980014Y-44888277D01*
X89829670Y-44723051D01*
X89825619Y-44719852D01*
X89825615Y-44719848D01*
X89658414Y-44587800D01*
X89658410Y-44587798D01*
X89654359Y-44584598D01*
X89618028Y-44564542D01*
X89602136Y-44555769D01*
X89458789Y-44476638D01*
X89453920Y-44474914D01*
X89453916Y-44474912D01*
X89253087Y-44403795D01*
X89253083Y-44403794D01*
X89248212Y-44402069D01*
X89243119Y-44401162D01*
X89243116Y-44401161D01*
X89033373Y-44363800D01*
X89033367Y-44363799D01*
X89028284Y-44362894D01*
X88954452Y-44361992D01*
X88810081Y-44360228D01*
X88810079Y-44360228D01*
X88804911Y-44360165D01*
X88584091Y-44393955D01*
X88371756Y-44463357D01*
X88173607Y-44566507D01*
X88169474Y-44569610D01*
X88169471Y-44569612D01*
X88145247Y-44587800D01*
X87994965Y-44700635D01*
X87840629Y-44862138D01*
X87733201Y-45019621D01*
X87678293Y-45064621D01*
X87607768Y-45072792D01*
X87544021Y-45041538D01*
X87523324Y-45017054D01*
X87442822Y-44892617D01*
X87442820Y-44892614D01*
X87440014Y-44888277D01*
X87289670Y-44723051D01*
X87285619Y-44719852D01*
X87285615Y-44719848D01*
X87118414Y-44587800D01*
X87118410Y-44587798D01*
X87114359Y-44584598D01*
X87078028Y-44564542D01*
X87062136Y-44555769D01*
X86918789Y-44476638D01*
X86913920Y-44474914D01*
X86913916Y-44474912D01*
X86713087Y-44403795D01*
X86713083Y-44403794D01*
X86708212Y-44402069D01*
X86703119Y-44401162D01*
X86703116Y-44401161D01*
X86493373Y-44363800D01*
X86493367Y-44363799D01*
X86488284Y-44362894D01*
X86414452Y-44361992D01*
X86270081Y-44360228D01*
X86270079Y-44360228D01*
X86264911Y-44360165D01*
X86044091Y-44393955D01*
X85831756Y-44463357D01*
X85633607Y-44566507D01*
X85629474Y-44569610D01*
X85629471Y-44569612D01*
X85605247Y-44587800D01*
X85454965Y-44700635D01*
X85300629Y-44862138D01*
X85193204Y-45019618D01*
X85192898Y-45020066D01*
X85137987Y-45065069D01*
X85067462Y-45073240D01*
X85003715Y-45041986D01*
X84983018Y-45017502D01*
X84902426Y-44892926D01*
X84896136Y-44884757D01*
X84752806Y-44727240D01*
X84745273Y-44720215D01*
X84578139Y-44588222D01*
X84569552Y-44582517D01*
X84383117Y-44479599D01*
X84373705Y-44475369D01*
X84172959Y-44404280D01*
X84162988Y-44401646D01*
X84091837Y-44388972D01*
X84078540Y-44390432D01*
X84074000Y-44404989D01*
X84074000Y-46325100D01*
X84053998Y-46393221D01*
X84000342Y-46439714D01*
X83948000Y-46451100D01*
X83767094Y-46451100D01*
X83698973Y-46431098D01*
X83677999Y-46414195D01*
X83602905Y-46339101D01*
X83568879Y-46276789D01*
X83566000Y-46250006D01*
X83566000Y-44403102D01*
X83562082Y-44389758D01*
X83547806Y-44387771D01*
X83509324Y-44393660D01*
X83499288Y-44396051D01*
X83296868Y-44462212D01*
X83287359Y-44466209D01*
X83098463Y-44564542D01*
X83089738Y-44570036D01*
X82919433Y-44697905D01*
X82911726Y-44704748D01*
X82764590Y-44858717D01*
X82758109Y-44866722D01*
X82653498Y-45020074D01*
X82598587Y-45065076D01*
X82528062Y-45073247D01*
X82464315Y-45041993D01*
X82443618Y-45017509D01*
X82362822Y-44892617D01*
X82362820Y-44892614D01*
X82360014Y-44888277D01*
X82209670Y-44723051D01*
X82205619Y-44719852D01*
X82205615Y-44719848D01*
X82038414Y-44587800D01*
X82038410Y-44587798D01*
X82034359Y-44584598D01*
X81998028Y-44564542D01*
X81982136Y-44555769D01*
X81838789Y-44476638D01*
X81833920Y-44474914D01*
X81833916Y-44474912D01*
X81633087Y-44403795D01*
X81633083Y-44403794D01*
X81628212Y-44402069D01*
X81623119Y-44401162D01*
X81623116Y-44401161D01*
X81413373Y-44363800D01*
X81413367Y-44363799D01*
X81408284Y-44362894D01*
X81334452Y-44361992D01*
X81190081Y-44360228D01*
X81190079Y-44360228D01*
X81184911Y-44360165D01*
X80964091Y-44393955D01*
X80751756Y-44463357D01*
X80553607Y-44566507D01*
X80549474Y-44569610D01*
X80549471Y-44569612D01*
X80525247Y-44587800D01*
X80374965Y-44700635D01*
X80220629Y-44862138D01*
X80094743Y-45046680D01*
X80047715Y-45147993D01*
X80002885Y-45244573D01*
X80000688Y-45249305D01*
X79940989Y-45464570D01*
X79917251Y-45686695D01*
X77978500Y-45686695D01*
X77978500Y-42544500D01*
X77998502Y-42476379D01*
X78052158Y-42429886D01*
X78104500Y-42418500D01*
X97155500Y-42418500D01*
X97223621Y-42438502D01*
G37*
G04 #@! TD.AperFunction*
M02*
