M48
; DRILL file {KiCad 6.0.9-8da3e8f707~116~ubuntu20.04.1} date sre 08 mar 2023 17:55:12
; FORMAT={-:-/ absolute / metric / decimal}
; #@! TF.CreationDate,2023-03-08T17:55:12+01:00
; #@! TF.GenerationSoftware,Kicad,Pcbnew,6.0.9-8da3e8f707~116~ubuntu20.04.1
; #@! TF.FileFunction,Plated,1,2,PTH
FMAT,2
METRIC
; #@! TA.AperFunction,Plated,PTH,ViaDrill
T1C0.400
; #@! TA.AperFunction,Plated,PTH,ComponentDrill
T2C0.900
; #@! TA.AperFunction,Plated,PTH,ComponentDrill
T3C1.000
%
G90
G05
T1
X83.497Y-55.43
X83.82Y-43.18
X84.988Y-53.238
X87.764Y-50.804
X87.884Y-55.118
X90.957Y-52.426
X91.44Y-43.18
T2
X83.82Y-61.95
X83.82Y-64.49
X83.82Y-67.03
X83.82Y-69.57
X83.82Y-72.11
X83.82Y-74.65
X83.82Y-77.19
X83.82Y-79.73
X87.63Y-83.54
X87.63Y-84.81
X87.63Y-86.08
X87.63Y-87.35
X91.44Y-61.95
X91.44Y-64.49
X91.44Y-67.03
X91.44Y-69.57
X91.44Y-72.11
X91.44Y-74.65
X91.44Y-77.19
X91.44Y-79.73
T3
X81.28Y-45.72
X81.28Y-48.26
X83.82Y-45.72
X83.82Y-48.26
X86.36Y-45.72
X86.36Y-48.26
X88.9Y-45.72
X88.9Y-48.26
X91.44Y-45.72
X91.44Y-48.26
X93.98Y-45.72
X93.98Y-48.26
T0
M30
