G04 #@! TF.GenerationSoftware,KiCad,Pcbnew,6.0.9-8da3e8f707~116~ubuntu20.04.1*
G04 #@! TF.CreationDate,2023-03-03T20:37:27+01:00*
G04 #@! TF.ProjectId,led_drv_pmod,6c65645f-6472-4765-9f70-6d6f642e6b69,rev?*
G04 #@! TF.SameCoordinates,Original*
G04 #@! TF.FileFunction,Paste,Top*
G04 #@! TF.FilePolarity,Positive*
%FSLAX46Y46*%
G04 Gerber Fmt 4.6, Leading zero omitted, Abs format (unit mm)*
G04 Created by KiCad (PCBNEW 6.0.9-8da3e8f707~116~ubuntu20.04.1) date 2023-03-03 20:37:27*
%MOMM*%
%LPD*%
G01*
G04 APERTURE LIST*
G04 Aperture macros list*
%AMRoundRect*
0 Rectangle with rounded corners*
0 $1 Rounding radius*
0 $2 $3 $4 $5 $6 $7 $8 $9 X,Y pos of 4 corners*
0 Add a 4 corners polygon primitive as box body*
4,1,4,$2,$3,$4,$5,$6,$7,$8,$9,$2,$3,0*
0 Add four circle primitives for the rounded corners*
1,1,$1+$1,$2,$3*
1,1,$1+$1,$4,$5*
1,1,$1+$1,$6,$7*
1,1,$1+$1,$8,$9*
0 Add four rect primitives between the rounded corners*
20,1,$1+$1,$2,$3,$4,$5,0*
20,1,$1+$1,$4,$5,$6,$7,0*
20,1,$1+$1,$6,$7,$8,$9,0*
20,1,$1+$1,$8,$9,$2,$3,0*%
G04 Aperture macros list end*
%ADD10C,0.010000*%
%ADD11RoundRect,0.237500X0.250000X0.237500X-0.250000X0.237500X-0.250000X-0.237500X0.250000X-0.237500X0*%
%ADD12RoundRect,0.237500X-0.237500X0.250000X-0.237500X-0.250000X0.237500X-0.250000X0.237500X0.250000X0*%
%ADD13RoundRect,0.237500X0.237500X-0.300000X0.237500X0.300000X-0.237500X0.300000X-0.237500X-0.300000X0*%
%ADD14RoundRect,0.007800X-0.122200X0.397200X-0.122200X-0.397200X0.122200X-0.397200X0.122200X0.397200X0*%
%ADD15RoundRect,0.007800X0.397200X0.122200X-0.397200X0.122200X-0.397200X-0.122200X0.397200X-0.122200X0*%
%ADD16RoundRect,0.237500X-0.250000X-0.237500X0.250000X-0.237500X0.250000X0.237500X-0.250000X0.237500X0*%
G04 APERTURE END LIST*
G36*
X88704000Y-55938000D02*
G01*
X87064000Y-55938000D01*
X87064000Y-54298000D01*
X88704000Y-54298000D01*
X88704000Y-55938000D01*
G37*
D10*
X88704000Y-55938000D02*
X87064000Y-55938000D01*
X87064000Y-54298000D01*
X88704000Y-54298000D01*
X88704000Y-55938000D01*
D11*
X93218000Y-52424500D03*
X95043000Y-52424500D03*
D12*
X80264000Y-54512500D03*
X80264000Y-56337500D03*
D13*
X82296000Y-56234500D03*
X82296000Y-54509500D03*
D14*
X89134000Y-57068000D03*
X88634000Y-57068000D03*
X88134000Y-57068000D03*
X87634000Y-57068000D03*
X87134000Y-57068000D03*
X86634000Y-57068000D03*
D15*
X85934000Y-56368000D03*
X85934000Y-55868000D03*
X85934000Y-55368000D03*
X85934000Y-54868000D03*
X85934000Y-54368000D03*
X85934000Y-53868000D03*
D14*
X86634000Y-53168000D03*
X87134000Y-53168000D03*
X87634000Y-53168000D03*
X88134000Y-53168000D03*
X88634000Y-53168000D03*
X89134000Y-53168000D03*
D15*
X89834000Y-53868000D03*
X89834000Y-54368000D03*
X89834000Y-54868000D03*
X89834000Y-55368000D03*
X89834000Y-55868000D03*
X89834000Y-56368000D03*
D13*
X94742000Y-84481500D03*
X94742000Y-86206500D03*
D11*
X80471000Y-52578000D03*
X82296000Y-52578000D03*
D16*
X82296000Y-58420000D03*
X80471000Y-58420000D03*
D13*
X94996000Y-56081000D03*
X94996000Y-54356000D03*
X93218000Y-56081000D03*
X93218000Y-54356000D03*
M02*
