G04 #@! TF.GenerationSoftware,KiCad,Pcbnew,6.0.9-8da3e8f707~116~ubuntu20.04.1*
G04 #@! TF.CreationDate,2023-03-08T17:55:07+01:00*
G04 #@! TF.ProjectId,led_drv_pmod,6c65645f-6472-4765-9f70-6d6f642e6b69,rev?*
G04 #@! TF.SameCoordinates,Original*
G04 #@! TF.FileFunction,Legend,Top*
G04 #@! TF.FilePolarity,Positive*
%FSLAX46Y46*%
G04 Gerber Fmt 4.6, Leading zero omitted, Abs format (unit mm)*
G04 Created by KiCad (PCBNEW 6.0.9-8da3e8f707~116~ubuntu20.04.1) date 2023-03-08 17:55:07*
%MOMM*%
%LPD*%
G01*
G04 APERTURE LIST*
G04 Aperture macros list*
%AMRoundRect*
0 Rectangle with rounded corners*
0 $1 Rounding radius*
0 $2 $3 $4 $5 $6 $7 $8 $9 X,Y pos of 4 corners*
0 Add a 4 corners polygon primitive as box body*
4,1,4,$2,$3,$4,$5,$6,$7,$8,$9,$2,$3,0*
0 Add four circle primitives for the rounded corners*
1,1,$1+$1,$2,$3*
1,1,$1+$1,$4,$5*
1,1,$1+$1,$6,$7*
1,1,$1+$1,$8,$9*
0 Add four rect primitives between the rounded corners*
20,1,$1+$1,$2,$3,$4,$5,0*
20,1,$1+$1,$4,$5,$6,$7,0*
20,1,$1+$1,$6,$7,$8,$9,0*
20,1,$1+$1,$8,$9,$2,$3,0*%
G04 Aperture macros list end*
%ADD10C,0.150000*%
%ADD11C,0.100000*%
%ADD12C,0.120000*%
%ADD13C,0.127000*%
%ADD14C,0.200000*%
%ADD15R,1.700000X1.700000*%
%ADD16O,1.700000X1.700000*%
%ADD17RoundRect,0.237500X-0.250000X-0.237500X0.250000X-0.237500X0.250000X0.237500X-0.250000X0.237500X0*%
%ADD18RoundRect,0.237500X-0.237500X0.250000X-0.237500X-0.250000X0.237500X-0.250000X0.237500X0.250000X0*%
%ADD19R,1.800000X1.800000*%
%ADD20C,1.800000*%
%ADD21RoundRect,0.237500X0.237500X-0.300000X0.237500X0.300000X-0.237500X0.300000X-0.237500X-0.300000X0*%
%ADD22RoundRect,0.007800X0.397200X0.122200X-0.397200X0.122200X-0.397200X-0.122200X0.397200X-0.122200X0*%
%ADD23RoundRect,0.007800X-0.122200X0.397200X-0.122200X-0.397200X0.122200X-0.397200X0.122200X0.397200X0*%
%ADD24R,2.600000X2.600000*%
%ADD25R,1.800000X1.070000*%
%ADD26O,1.800000X1.070000*%
%ADD27RoundRect,0.237500X0.250000X0.237500X-0.250000X0.237500X-0.250000X-0.237500X0.250000X-0.237500X0*%
G04 APERTURE END LIST*
D10*
X79065428Y-48751904D02*
X79065428Y-47990000D01*
X79446380Y-48370952D02*
X78684476Y-48370952D01*
X78446380Y-47609047D02*
X78446380Y-46990000D01*
X78827333Y-47323333D01*
X78827333Y-47180476D01*
X78874952Y-47085238D01*
X78922571Y-47037619D01*
X79017809Y-46990000D01*
X79255904Y-46990000D01*
X79351142Y-47037619D01*
X79398761Y-47085238D01*
X79446380Y-47180476D01*
X79446380Y-47466190D01*
X79398761Y-47561428D01*
X79351142Y-47609047D01*
X78446380Y-46704285D02*
X79446380Y-46370952D01*
X78446380Y-46037619D01*
X78446380Y-45799523D02*
X78446380Y-45180476D01*
X78827333Y-45513809D01*
X78827333Y-45370952D01*
X78874952Y-45275714D01*
X78922571Y-45228095D01*
X79017809Y-45180476D01*
X79255904Y-45180476D01*
X79351142Y-45228095D01*
X79398761Y-45275714D01*
X79446380Y-45370952D01*
X79446380Y-45656666D01*
X79398761Y-45751904D01*
X79351142Y-45799523D01*
D11*
X83286666Y-49434000D02*
X83220000Y-49400666D01*
X83120000Y-49400666D01*
X83020000Y-49434000D01*
X82953333Y-49500666D01*
X82920000Y-49567333D01*
X82886666Y-49700666D01*
X82886666Y-49800666D01*
X82920000Y-49934000D01*
X82953333Y-50000666D01*
X83020000Y-50067333D01*
X83120000Y-50100666D01*
X83186666Y-50100666D01*
X83286666Y-50067333D01*
X83320000Y-50034000D01*
X83320000Y-49800666D01*
X83186666Y-49800666D01*
X83620000Y-50100666D02*
X83620000Y-49400666D01*
X84020000Y-50100666D01*
X84020000Y-49400666D01*
X84353333Y-50100666D02*
X84353333Y-49400666D01*
X84520000Y-49400666D01*
X84620000Y-49434000D01*
X84686666Y-49500666D01*
X84720000Y-49567333D01*
X84753333Y-49700666D01*
X84753333Y-49800666D01*
X84720000Y-49934000D01*
X84686666Y-50000666D01*
X84620000Y-50067333D01*
X84520000Y-50100666D01*
X84353333Y-50100666D01*
D10*
X95932666Y-45172380D02*
X95932666Y-45886666D01*
X95885047Y-46029523D01*
X95789809Y-46124761D01*
X95646952Y-46172380D01*
X95551714Y-46172380D01*
X96932666Y-46172380D02*
X96361238Y-46172380D01*
X96646952Y-46172380D02*
X96646952Y-45172380D01*
X96551714Y-45315238D01*
X96456476Y-45410476D01*
X96361238Y-45458095D01*
X94829333Y-51506380D02*
X94496000Y-51030190D01*
X94257904Y-51506380D02*
X94257904Y-50506380D01*
X94638857Y-50506380D01*
X94734095Y-50554000D01*
X94781714Y-50601619D01*
X94829333Y-50696857D01*
X94829333Y-50839714D01*
X94781714Y-50934952D01*
X94734095Y-50982571D01*
X94638857Y-51030190D01*
X94257904Y-51030190D01*
X95781714Y-51506380D02*
X95210285Y-51506380D01*
X95496000Y-51506380D02*
X95496000Y-50506380D01*
X95400761Y-50649238D01*
X95305523Y-50744476D01*
X95210285Y-50792095D01*
X79192380Y-55591666D02*
X78716190Y-55925000D01*
X79192380Y-56163095D02*
X78192380Y-56163095D01*
X78192380Y-55782142D01*
X78240000Y-55686904D01*
X78287619Y-55639285D01*
X78382857Y-55591666D01*
X78525714Y-55591666D01*
X78620952Y-55639285D01*
X78668571Y-55686904D01*
X78716190Y-55782142D01*
X78716190Y-56163095D01*
X78525714Y-54734523D02*
X79192380Y-54734523D01*
X78144761Y-54972619D02*
X78859047Y-55210714D01*
X78859047Y-54591666D01*
X88932380Y-79198095D02*
X87932380Y-79198095D01*
X87932380Y-78960000D01*
X87980000Y-78817142D01*
X88075238Y-78721904D01*
X88170476Y-78674285D01*
X88360952Y-78626666D01*
X88503809Y-78626666D01*
X88694285Y-78674285D01*
X88789523Y-78721904D01*
X88884761Y-78817142D01*
X88932380Y-78960000D01*
X88932380Y-79198095D01*
X87932380Y-77721904D02*
X87932380Y-78198095D01*
X88408571Y-78245714D01*
X88360952Y-78198095D01*
X88313333Y-78102857D01*
X88313333Y-77864761D01*
X88360952Y-77769523D01*
X88408571Y-77721904D01*
X88503809Y-77674285D01*
X88741904Y-77674285D01*
X88837142Y-77721904D01*
X88884761Y-77769523D01*
X88932380Y-77864761D01*
X88932380Y-78102857D01*
X88884761Y-78198095D01*
X88837142Y-78245714D01*
X83907333Y-57380142D02*
X83859714Y-57427761D01*
X83716857Y-57475380D01*
X83621619Y-57475380D01*
X83478761Y-57427761D01*
X83383523Y-57332523D01*
X83335904Y-57237285D01*
X83288285Y-57046809D01*
X83288285Y-56903952D01*
X83335904Y-56713476D01*
X83383523Y-56618238D01*
X83478761Y-56523000D01*
X83621619Y-56475380D01*
X83716857Y-56475380D01*
X83859714Y-56523000D01*
X83907333Y-56570619D01*
X84859714Y-57475380D02*
X84288285Y-57475380D01*
X84574000Y-57475380D02*
X84574000Y-56475380D01*
X84478761Y-56618238D01*
X84383523Y-56713476D01*
X84288285Y-56761095D01*
X81312380Y-63958095D02*
X80312380Y-63958095D01*
X80312380Y-63720000D01*
X80360000Y-63577142D01*
X80455238Y-63481904D01*
X80550476Y-63434285D01*
X80740952Y-63386666D01*
X80883809Y-63386666D01*
X81074285Y-63434285D01*
X81169523Y-63481904D01*
X81264761Y-63577142D01*
X81312380Y-63720000D01*
X81312380Y-63958095D01*
X80645714Y-62529523D02*
X81312380Y-62529523D01*
X80264761Y-62767619D02*
X80979047Y-63005714D01*
X80979047Y-62386666D01*
X81312380Y-69038095D02*
X80312380Y-69038095D01*
X80312380Y-68800000D01*
X80360000Y-68657142D01*
X80455238Y-68561904D01*
X80550476Y-68514285D01*
X80740952Y-68466666D01*
X80883809Y-68466666D01*
X81074285Y-68514285D01*
X81169523Y-68561904D01*
X81264761Y-68657142D01*
X81312380Y-68800000D01*
X81312380Y-69038095D01*
X80312380Y-68133333D02*
X80312380Y-67514285D01*
X80693333Y-67847619D01*
X80693333Y-67704761D01*
X80740952Y-67609523D01*
X80788571Y-67561904D01*
X80883809Y-67514285D01*
X81121904Y-67514285D01*
X81217142Y-67561904D01*
X81264761Y-67609523D01*
X81312380Y-67704761D01*
X81312380Y-67990476D01*
X81264761Y-68085714D01*
X81217142Y-68133333D01*
X88932380Y-74118095D02*
X87932380Y-74118095D01*
X87932380Y-73880000D01*
X87980000Y-73737142D01*
X88075238Y-73641904D01*
X88170476Y-73594285D01*
X88360952Y-73546666D01*
X88503809Y-73546666D01*
X88694285Y-73594285D01*
X88789523Y-73641904D01*
X88884761Y-73737142D01*
X88932380Y-73880000D01*
X88932380Y-74118095D01*
X87932380Y-72689523D02*
X87932380Y-72880000D01*
X87980000Y-72975238D01*
X88027619Y-73022857D01*
X88170476Y-73118095D01*
X88360952Y-73165714D01*
X88741904Y-73165714D01*
X88837142Y-73118095D01*
X88884761Y-73070476D01*
X88932380Y-72975238D01*
X88932380Y-72784761D01*
X88884761Y-72689523D01*
X88837142Y-72641904D01*
X88741904Y-72594285D01*
X88503809Y-72594285D01*
X88408571Y-72641904D01*
X88360952Y-72689523D01*
X88313333Y-72784761D01*
X88313333Y-72975238D01*
X88360952Y-73070476D01*
X88408571Y-73118095D01*
X88503809Y-73165714D01*
X81312380Y-74118095D02*
X80312380Y-74118095D01*
X80312380Y-73880000D01*
X80360000Y-73737142D01*
X80455238Y-73641904D01*
X80550476Y-73594285D01*
X80740952Y-73546666D01*
X80883809Y-73546666D01*
X81074285Y-73594285D01*
X81169523Y-73641904D01*
X81264761Y-73737142D01*
X81312380Y-73880000D01*
X81312380Y-74118095D01*
X80407619Y-73165714D02*
X80360000Y-73118095D01*
X80312380Y-73022857D01*
X80312380Y-72784761D01*
X80360000Y-72689523D01*
X80407619Y-72641904D01*
X80502857Y-72594285D01*
X80598095Y-72594285D01*
X80740952Y-72641904D01*
X81312380Y-73213333D01*
X81312380Y-72594285D01*
X81312380Y-79198095D02*
X80312380Y-79198095D01*
X80312380Y-78960000D01*
X80360000Y-78817142D01*
X80455238Y-78721904D01*
X80550476Y-78674285D01*
X80740952Y-78626666D01*
X80883809Y-78626666D01*
X81074285Y-78674285D01*
X81169523Y-78721904D01*
X81264761Y-78817142D01*
X81312380Y-78960000D01*
X81312380Y-79198095D01*
X81312380Y-77674285D02*
X81312380Y-78245714D01*
X81312380Y-77960000D02*
X80312380Y-77960000D01*
X80455238Y-78055238D01*
X80550476Y-78150476D01*
X80598095Y-78245714D01*
X88932380Y-69038095D02*
X87932380Y-69038095D01*
X87932380Y-68800000D01*
X87980000Y-68657142D01*
X88075238Y-68561904D01*
X88170476Y-68514285D01*
X88360952Y-68466666D01*
X88503809Y-68466666D01*
X88694285Y-68514285D01*
X88789523Y-68561904D01*
X88884761Y-68657142D01*
X88932380Y-68800000D01*
X88932380Y-69038095D01*
X87932380Y-68133333D02*
X87932380Y-67466666D01*
X88932380Y-67895238D01*
X87122095Y-58126380D02*
X87122095Y-58935904D01*
X87169714Y-59031142D01*
X87217333Y-59078761D01*
X87312571Y-59126380D01*
X87503047Y-59126380D01*
X87598285Y-59078761D01*
X87645904Y-59031142D01*
X87693523Y-58935904D01*
X87693523Y-58126380D01*
X88693523Y-59126380D02*
X88122095Y-59126380D01*
X88407809Y-59126380D02*
X88407809Y-58126380D01*
X88312571Y-58269238D01*
X88217333Y-58364476D01*
X88122095Y-58412095D01*
X88932380Y-63958095D02*
X87932380Y-63958095D01*
X87932380Y-63720000D01*
X87980000Y-63577142D01*
X88075238Y-63481904D01*
X88170476Y-63434285D01*
X88360952Y-63386666D01*
X88503809Y-63386666D01*
X88694285Y-63434285D01*
X88789523Y-63481904D01*
X88884761Y-63577142D01*
X88932380Y-63720000D01*
X88932380Y-63958095D01*
X88360952Y-62815238D02*
X88313333Y-62910476D01*
X88265714Y-62958095D01*
X88170476Y-63005714D01*
X88122857Y-63005714D01*
X88027619Y-62958095D01*
X87980000Y-62910476D01*
X87932380Y-62815238D01*
X87932380Y-62624761D01*
X87980000Y-62529523D01*
X88027619Y-62481904D01*
X88122857Y-62434285D01*
X88170476Y-62434285D01*
X88265714Y-62481904D01*
X88313333Y-62529523D01*
X88360952Y-62624761D01*
X88360952Y-62815238D01*
X88408571Y-62910476D01*
X88456190Y-62958095D01*
X88551428Y-63005714D01*
X88741904Y-63005714D01*
X88837142Y-62958095D01*
X88884761Y-62910476D01*
X88932380Y-62815238D01*
X88932380Y-62624761D01*
X88884761Y-62529523D01*
X88837142Y-62481904D01*
X88741904Y-62434285D01*
X88551428Y-62434285D01*
X88456190Y-62481904D01*
X88408571Y-62529523D01*
X88360952Y-62624761D01*
X84034333Y-51538142D02*
X83986714Y-51585761D01*
X83843857Y-51633380D01*
X83748619Y-51633380D01*
X83605761Y-51585761D01*
X83510523Y-51490523D01*
X83462904Y-51395285D01*
X83415285Y-51204809D01*
X83415285Y-51061952D01*
X83462904Y-50871476D01*
X83510523Y-50776238D01*
X83605761Y-50681000D01*
X83748619Y-50633380D01*
X83843857Y-50633380D01*
X83986714Y-50681000D01*
X84034333Y-50728619D01*
X84891476Y-50966714D02*
X84891476Y-51633380D01*
X84653380Y-50585761D02*
X84415285Y-51300047D01*
X85034333Y-51300047D01*
X84122380Y-86183095D02*
X83122380Y-86183095D01*
X83122380Y-85945000D01*
X83170000Y-85802142D01*
X83265238Y-85706904D01*
X83360476Y-85659285D01*
X83550952Y-85611666D01*
X83693809Y-85611666D01*
X83884285Y-85659285D01*
X83979523Y-85706904D01*
X84074761Y-85802142D01*
X84122380Y-85945000D01*
X84122380Y-86183095D01*
X84122380Y-85135476D02*
X84122380Y-84945000D01*
X84074761Y-84849761D01*
X84027142Y-84802142D01*
X83884285Y-84706904D01*
X83693809Y-84659285D01*
X83312857Y-84659285D01*
X83217619Y-84706904D01*
X83170000Y-84754523D01*
X83122380Y-84849761D01*
X83122380Y-85040238D01*
X83170000Y-85135476D01*
X83217619Y-85183095D01*
X83312857Y-85230714D01*
X83550952Y-85230714D01*
X83646190Y-85183095D01*
X83693809Y-85135476D01*
X83741428Y-85040238D01*
X83741428Y-84849761D01*
X83693809Y-84754523D01*
X83646190Y-84706904D01*
X83550952Y-84659285D01*
X81216833Y-51506380D02*
X80883500Y-51030190D01*
X80645404Y-51506380D02*
X80645404Y-50506380D01*
X81026357Y-50506380D01*
X81121595Y-50554000D01*
X81169214Y-50601619D01*
X81216833Y-50696857D01*
X81216833Y-50839714D01*
X81169214Y-50934952D01*
X81121595Y-50982571D01*
X81026357Y-51030190D01*
X80645404Y-51030190D01*
X81550166Y-50506380D02*
X82169214Y-50506380D01*
X81835880Y-50887333D01*
X81978738Y-50887333D01*
X82073976Y-50934952D01*
X82121595Y-50982571D01*
X82169214Y-51077809D01*
X82169214Y-51315904D01*
X82121595Y-51411142D01*
X82073976Y-51458761D01*
X81978738Y-51506380D01*
X81693023Y-51506380D01*
X81597785Y-51458761D01*
X81550166Y-51411142D01*
X92543333Y-51379380D02*
X92210000Y-50903190D01*
X91971904Y-51379380D02*
X91971904Y-50379380D01*
X92352857Y-50379380D01*
X92448095Y-50427000D01*
X92495714Y-50474619D01*
X92543333Y-50569857D01*
X92543333Y-50712714D01*
X92495714Y-50807952D01*
X92448095Y-50855571D01*
X92352857Y-50903190D01*
X91971904Y-50903190D01*
X92924285Y-50474619D02*
X92971904Y-50427000D01*
X93067142Y-50379380D01*
X93305238Y-50379380D01*
X93400476Y-50427000D01*
X93448095Y-50474619D01*
X93495714Y-50569857D01*
X93495714Y-50665095D01*
X93448095Y-50807952D01*
X92876666Y-51379380D01*
X93495714Y-51379380D01*
X96877142Y-55385166D02*
X96924761Y-55432785D01*
X96972380Y-55575642D01*
X96972380Y-55670880D01*
X96924761Y-55813738D01*
X96829523Y-55908976D01*
X96734285Y-55956595D01*
X96543809Y-56004214D01*
X96400952Y-56004214D01*
X96210476Y-55956595D01*
X96115238Y-55908976D01*
X96020000Y-55813738D01*
X95972380Y-55670880D01*
X95972380Y-55575642D01*
X96020000Y-55432785D01*
X96067619Y-55385166D01*
X95972380Y-55051833D02*
X95972380Y-54432785D01*
X96353333Y-54766119D01*
X96353333Y-54623261D01*
X96400952Y-54528023D01*
X96448571Y-54480404D01*
X96543809Y-54432785D01*
X96781904Y-54432785D01*
X96877142Y-54480404D01*
X96924761Y-54528023D01*
X96972380Y-54623261D01*
X96972380Y-54908976D01*
X96924761Y-55004214D01*
X96877142Y-55051833D01*
X92051142Y-54776666D02*
X92098761Y-54824285D01*
X92146380Y-54967142D01*
X92146380Y-55062380D01*
X92098761Y-55205238D01*
X92003523Y-55300476D01*
X91908285Y-55348095D01*
X91717809Y-55395714D01*
X91574952Y-55395714D01*
X91384476Y-55348095D01*
X91289238Y-55300476D01*
X91194000Y-55205238D01*
X91146380Y-55062380D01*
X91146380Y-54967142D01*
X91194000Y-54824285D01*
X91241619Y-54776666D01*
X91241619Y-54395714D02*
X91194000Y-54348095D01*
X91146380Y-54252857D01*
X91146380Y-54014761D01*
X91194000Y-53919523D01*
X91241619Y-53871904D01*
X91336857Y-53824285D01*
X91432095Y-53824285D01*
X91574952Y-53871904D01*
X92146380Y-54443333D01*
X92146380Y-53824285D01*
D12*
X80900000Y-47150000D02*
X80900000Y-46762929D01*
X83440000Y-47217071D02*
X83440000Y-46762929D01*
X80900000Y-44677071D02*
X80900000Y-44280000D01*
X94360000Y-44677071D02*
X94360000Y-44280000D01*
X84200000Y-47217071D02*
X84200000Y-46762929D01*
X88520000Y-47217071D02*
X88520000Y-46762929D01*
X91060000Y-44677071D02*
X91060000Y-44280000D01*
X81660000Y-47150000D02*
X81660000Y-46762929D01*
X91820000Y-47217071D02*
X91820000Y-46762929D01*
X86740000Y-44677071D02*
X86740000Y-44280000D01*
X89280000Y-47217071D02*
X89280000Y-46762929D01*
X91820000Y-44677071D02*
X91820000Y-44280000D01*
X91060000Y-47217071D02*
X91060000Y-46762929D01*
X94360000Y-47217071D02*
X94360000Y-46762929D01*
X84200000Y-44677071D02*
X84200000Y-44280000D01*
X81280000Y-49530000D02*
X80010000Y-49530000D01*
X85980000Y-44677071D02*
X85980000Y-44280000D01*
X86740000Y-47217071D02*
X86740000Y-46762929D01*
X88520000Y-44677071D02*
X88520000Y-44280000D01*
X89280000Y-44677071D02*
X89280000Y-44280000D01*
X93600000Y-47217071D02*
X93600000Y-46762929D01*
X93600000Y-44677071D02*
X93600000Y-44280000D01*
X85980000Y-47217071D02*
X85980000Y-46762929D01*
X80010000Y-49530000D02*
X80010000Y-48260000D01*
X83440000Y-44677071D02*
X83440000Y-44280000D01*
X81660000Y-44677071D02*
X81660000Y-44280000D01*
X93875776Y-52947000D02*
X94385224Y-52947000D01*
X93875776Y-51902000D02*
X94385224Y-51902000D01*
X79741500Y-55170276D02*
X79741500Y-55679724D01*
X80786500Y-55170276D02*
X80786500Y-55679724D01*
X92520000Y-80020000D02*
X92676000Y-80020000D01*
X90204000Y-80020000D02*
X90360000Y-80020000D01*
X90360163Y-77418870D02*
G75*
G03*
X90360000Y-79500961I1079837J-1041130D01*
G01*
X90361392Y-76787665D02*
G75*
G03*
X90204484Y-80020000I1078608J-1672335D01*
G01*
X92675516Y-80020000D02*
G75*
G03*
X92518608Y-76787665I-1235516J1560000D01*
G01*
X92520000Y-79500961D02*
G75*
G03*
X92519837Y-77418870I-1080000J1040961D01*
G01*
X81786000Y-55518267D02*
X81786000Y-55225733D01*
X82806000Y-55518267D02*
X82806000Y-55225733D01*
X82584000Y-64780000D02*
X82740000Y-64780000D01*
X84900000Y-64780000D02*
X85056000Y-64780000D01*
X82740163Y-62178870D02*
G75*
G03*
X82740000Y-64260961I1079837J-1041130D01*
G01*
X84900000Y-64260961D02*
G75*
G03*
X84899837Y-62178870I-1080000J1040961D01*
G01*
X82741392Y-61547665D02*
G75*
G03*
X82584484Y-64780000I1078608J-1672335D01*
G01*
X85055516Y-64780000D02*
G75*
G03*
X84898608Y-61547665I-1235516J1560000D01*
G01*
X84900000Y-69860000D02*
X85056000Y-69860000D01*
X82584000Y-69860000D02*
X82740000Y-69860000D01*
X82740163Y-67258870D02*
G75*
G03*
X82740000Y-69340961I1079837J-1041130D01*
G01*
X85055516Y-69860000D02*
G75*
G03*
X84898608Y-66627665I-1235516J1560000D01*
G01*
X82741392Y-66627665D02*
G75*
G03*
X82584484Y-69860000I1078608J-1672335D01*
G01*
X84900000Y-69340961D02*
G75*
G03*
X84899837Y-67258870I-1080000J1040961D01*
G01*
X92520000Y-74940000D02*
X92676000Y-74940000D01*
X90204000Y-74940000D02*
X90360000Y-74940000D01*
X90361392Y-71707665D02*
G75*
G03*
X90204484Y-74940000I1078608J-1672335D01*
G01*
X90360163Y-72338870D02*
G75*
G03*
X90360000Y-74420961I1079837J-1041130D01*
G01*
X92520000Y-74420961D02*
G75*
G03*
X92519837Y-72338870I-1080000J1040961D01*
G01*
X92675516Y-74940000D02*
G75*
G03*
X92518608Y-71707665I-1235516J1560000D01*
G01*
X82584000Y-74940000D02*
X82740000Y-74940000D01*
X84900000Y-74940000D02*
X85056000Y-74940000D01*
X82741392Y-71707665D02*
G75*
G03*
X82584484Y-74940000I1078608J-1672335D01*
G01*
X82740163Y-72338870D02*
G75*
G03*
X82740000Y-74420961I1079837J-1041130D01*
G01*
X85055516Y-74940000D02*
G75*
G03*
X84898608Y-71707665I-1235516J1560000D01*
G01*
X84900000Y-74420961D02*
G75*
G03*
X84899837Y-72338870I-1080000J1040961D01*
G01*
X84900000Y-80020000D02*
X85056000Y-80020000D01*
X82584000Y-80020000D02*
X82740000Y-80020000D01*
X84900000Y-79500961D02*
G75*
G03*
X84899837Y-77418870I-1080000J1040961D01*
G01*
X82741392Y-76787665D02*
G75*
G03*
X82584484Y-80020000I1078608J-1672335D01*
G01*
X85055516Y-80020000D02*
G75*
G03*
X84898608Y-76787665I-1235516J1560000D01*
G01*
X82740163Y-77418870D02*
G75*
G03*
X82740000Y-79500961I1079837J-1041130D01*
G01*
X90204000Y-69860000D02*
X90360000Y-69860000D01*
X92520000Y-69860000D02*
X92676000Y-69860000D01*
X90361392Y-66627665D02*
G75*
G03*
X90204484Y-69860000I1078608J-1672335D01*
G01*
X92675516Y-69860000D02*
G75*
G03*
X92518608Y-66627665I-1235516J1560000D01*
G01*
X92520000Y-69340961D02*
G75*
G03*
X92519837Y-67258870I-1080000J1040961D01*
G01*
X90360163Y-67258870D02*
G75*
G03*
X90360000Y-69340961I1079837J-1041130D01*
G01*
D13*
X89884000Y-53118000D02*
X89584000Y-53118000D01*
X89884000Y-57118000D02*
X89584000Y-57118000D01*
X89884000Y-53118000D02*
X89884000Y-53418000D01*
X85884000Y-53118000D02*
X85884000Y-53418000D01*
X89884000Y-57118000D02*
X89884000Y-56818000D01*
X85884000Y-53118000D02*
X86184000Y-53118000D01*
X85884000Y-57118000D02*
X86184000Y-57118000D01*
X85884000Y-57118000D02*
X85884000Y-56818000D01*
D14*
X90944000Y-56368000D02*
G75*
G03*
X90944000Y-56368000I-100000J0D01*
G01*
D12*
X90204000Y-64780000D02*
X90360000Y-64780000D01*
X92520000Y-64780000D02*
X92676000Y-64780000D01*
X92520000Y-64260961D02*
G75*
G03*
X92519837Y-62178870I-1080000J1040961D01*
G01*
X90361392Y-61547665D02*
G75*
G03*
X90204484Y-64780000I1078608J-1672335D01*
G01*
X90360163Y-62178870D02*
G75*
G03*
X90360000Y-64260961I1079837J-1041130D01*
G01*
X92675516Y-64780000D02*
G75*
G03*
X92518608Y-61547665I-1235516J1560000D01*
G01*
X83437000Y-53613267D02*
X83437000Y-53320733D01*
X84457000Y-53613267D02*
X84457000Y-53320733D01*
X86085000Y-88005000D02*
X86550000Y-88005000D01*
X88710000Y-88005000D02*
X89175000Y-88005000D01*
X86549173Y-82657185D02*
G75*
G03*
X86085170Y-88005000I1080827J-2787815D01*
G01*
X88710000Y-87699684D02*
G75*
G03*
X88710429Y-83190521I-1080000J2254684D01*
G01*
X89174830Y-88005000D02*
G75*
G03*
X88710827Y-82657185I-1544830J2560000D01*
G01*
X86549571Y-83190521D02*
G75*
G03*
X86550000Y-87699684I1080429J-2254479D01*
G01*
X81638224Y-52055500D02*
X81128776Y-52055500D01*
X81638224Y-53100500D02*
X81128776Y-53100500D01*
X90297724Y-50404500D02*
X89788276Y-50404500D01*
X90297724Y-51449500D02*
X89788276Y-51449500D01*
X94486000Y-55364767D02*
X94486000Y-55072233D01*
X95506000Y-55364767D02*
X95506000Y-55072233D01*
X92708000Y-55364767D02*
X92708000Y-55072233D01*
X93728000Y-55364767D02*
X93728000Y-55072233D01*
%LPC*%
D15*
X81280000Y-48260000D03*
D16*
X81280000Y-45720000D03*
X83820000Y-48260000D03*
X83820000Y-45720000D03*
X86360000Y-48260000D03*
X86360000Y-45720000D03*
X88900000Y-48260000D03*
X88900000Y-45720000D03*
X91440000Y-48260000D03*
X91440000Y-45720000D03*
X93980000Y-48260000D03*
X93980000Y-45720000D03*
D17*
X95043000Y-52424500D03*
X93218000Y-52424500D03*
D18*
X80264000Y-54512500D03*
X80264000Y-56337500D03*
D19*
X91440000Y-79730000D03*
D20*
X91440000Y-77190000D03*
D21*
X82296000Y-56234500D03*
X82296000Y-54509500D03*
D19*
X83820000Y-64490000D03*
D20*
X83820000Y-61950000D03*
D19*
X83820000Y-69570000D03*
D20*
X83820000Y-67030000D03*
D19*
X91440000Y-74650000D03*
D20*
X91440000Y-72110000D03*
D19*
X83820000Y-74650000D03*
D20*
X83820000Y-72110000D03*
D19*
X83820000Y-79730000D03*
D20*
X83820000Y-77190000D03*
D19*
X91440000Y-69570000D03*
D20*
X91440000Y-67030000D03*
D22*
X89834000Y-56368000D03*
X89834000Y-55868000D03*
X89834000Y-55368000D03*
X89834000Y-54868000D03*
X89834000Y-54368000D03*
X89834000Y-53868000D03*
D23*
X89134000Y-53168000D03*
X88634000Y-53168000D03*
X88134000Y-53168000D03*
X87634000Y-53168000D03*
X87134000Y-53168000D03*
X86634000Y-53168000D03*
D22*
X85934000Y-53868000D03*
X85934000Y-54368000D03*
X85934000Y-54868000D03*
X85934000Y-55368000D03*
X85934000Y-55868000D03*
X85934000Y-56368000D03*
D23*
X86634000Y-57068000D03*
X87134000Y-57068000D03*
X87634000Y-57068000D03*
X88134000Y-57068000D03*
X88634000Y-57068000D03*
X89134000Y-57068000D03*
D24*
X87884000Y-55118000D03*
D19*
X91440000Y-64490000D03*
D20*
X91440000Y-61950000D03*
D21*
X83947000Y-54329500D03*
X83947000Y-52604500D03*
D25*
X87630000Y-87350000D03*
D26*
X87630000Y-86080000D03*
X87630000Y-84810000D03*
X87630000Y-83540000D03*
D27*
X82296000Y-52578000D03*
X80471000Y-52578000D03*
X90955500Y-50927000D03*
X89130500Y-50927000D03*
D21*
X94996000Y-56081000D03*
X94996000Y-54356000D03*
X93218000Y-56081000D03*
X93218000Y-54356000D03*
M02*
